<mxfile host="65bd71144e">
    <diagram name="Page-1" id="j8f2F_6v4KrYI3lepGM_">
        <mxGraphModel dx="1571" dy="676" grid="1" gridSize="10" guides="1" tooltips="1" connect="1" arrows="1" fold="1" page="0" pageScale="1" pageWidth="1654" pageHeight="1169" math="0" shadow="0">
            <root>
                <mxCell id="0"/>
                <mxCell id="1" parent="0"/>
                <mxCell id="DbYkKETLYe-rnW8ThWG0-46" value="" style="rounded=0;whiteSpace=wrap;html=1;shadow=0;labelBackgroundColor=default;strokeColor=none;strokeWidth=1;fontFamily=Helvetica;fontSize=13;fontColor=#666666;fillColor=default;" parent="1" vertex="1">
                    <mxGeometry x="-3" y="160" width="1563" height="690" as="geometry"/>
                </mxCell>
                <mxCell id="DbYkKETLYe-rnW8ThWG0-2" value="" style="rounded=0;whiteSpace=wrap;html=1;fillColor=none;dashed=1;strokeColor=#FFB570;strokeWidth=3;dashPattern=1 1;" parent="1" vertex="1">
                    <mxGeometry x="800" y="395.5" width="600" height="284.5" as="geometry"/>
                </mxCell>
                <mxCell id="XRfYKmiPNdRlxdjmCls0-73" value="" style="rounded=0;whiteSpace=wrap;html=1;strokeWidth=2;fontStyle=1;fontSize=14;align=right;labelPosition=center;verticalLabelPosition=middle;verticalAlign=bottom;dashed=1;strokeColor=#3399FF;fillColor=none;" parent="1" vertex="1">
                    <mxGeometry x="12" y="320" width="240" height="220" as="geometry"/>
                </mxCell>
                <mxCell id="XRfYKmiPNdRlxdjmCls0-47" value="&lt;div style=&quot;&quot;&gt;&lt;span style=&quot;background-color: initial;&quot;&gt;&lt;span style=&quot;white-space: pre;&quot;&gt; SAP B&lt;/span&gt;usiness Technology Platform&lt;/span&gt;&lt;/div&gt;" style="rounded=0;whiteSpace=wrap;html=1;strokeWidth=2;fontStyle=1;fontSize=14;align=left;labelPosition=center;verticalLabelPosition=middle;verticalAlign=top;strokeColor=#074D92;fillColor=none;shadow=0;" parent="1" vertex="1">
                    <mxGeometry x="362" y="349" width="878" height="471" as="geometry"/>
                </mxCell>
                <mxCell id="DbYkKETLYe-rnW8ThWG0-32" style="edgeStyle=orthogonalEdgeStyle;rounded=0;sketch=0;jumpStyle=none;orthogonalLoop=1;jettySize=auto;html=1;exitX=0.5;exitY=0;exitDx=0;exitDy=0;entryX=0.5;entryY=1;entryDx=0;entryDy=0;shadow=0;strokeColor=default;fontSize=11;fontColor=default;endSize=6;sourcePerimeterSpacing=0;targetPerimeterSpacing=0;endFill=1;startArrow=classic;startFill=1;" parent="1" source="XRfYKmiPNdRlxdjmCls0-4" target="XRfYKmiPNdRlxdjmCls0-19" edge="1">
                    <mxGeometry relative="1" as="geometry"/>
                </mxCell>
                <mxCell id="XRfYKmiPNdRlxdjmCls0-4" value="SAP Cloud &#10;Identity Service" style="shape=image;verticalLabelPosition=bottom;verticalAlign=top;imageAspect=0;aspect=fixed;image=data:image/svg+xml,PHN2ZyB4bWxucz0iaHR0cDovL3d3dy53My5vcmcvMjAwMC9zdmciIGlkPSJpZGVudGl0eV9wcm92aXNpb25pbmciIHZpZXdCb3g9IjQuMDAwMDAxOTA3MzQ4NjMzIDQuMDE3OTk5NjQ5MDQ3ODUyIDQ4IDQ4IiB3aWR0aD0iNDgiIGhlaWdodD0iNDgiPjxkZWZzPjxzdHlsZT4uY2xzLTF7ZmlsbDojMDc0ZDkyO30uY2xzLTJ7ZmlsbDojMDUzYjcwO30uY2xzLTN7ZmlsbDojMGE2ZWQxO308L3N0eWxlPjwvZGVmcz48dGl0bGU+aWRlbnRpdHlfcHJvdmlzaW9uaW5nX2NpcmNsZTwvdGl0bGU+PHBhdGggY2xhc3M9ImNscy0xIiBkPSJNMjgsNi4wMThhMjIsMjIsMCwxLDEtMjIsMjIsMjIuMDI1LDIyLjAyNSwwLDAsMSwyMi0yMm0wLTJhMjQsMjQsMCwxLDAsMjQsMjQsMjQsMjQsMCwwLDAtMjQtMjRaIi8+PHBhdGggY2xhc3M9ImNscy0yIiBkPSJNMzguNDA3LDI0LjIwNWE0Ljk1MSw0Ljk1MSwwLDAsMC03LjQ1Ny0zLjMzMyw2Ljc0Myw2Ljc0MywwLDAsMC02LjIxMS00LjIyOWMtNy40NDksMC02LjYsNy41NzctNi42LDcuNTc3QTUuOTc5LDUuOTc5LDAsMCwwLDE0LDI5Ljg5NGMwLDMuMzEzLDIuMSw2LDUuNDE2LDZoLjQxN3YtMS43NWgtLjQxN2MtMi4zNDMsMC0zLjY2Ni0xLjkwNi0zLjY2Ni00LjI0OWE0LjIyOSw0LjIyOSwwLDAsMSwyLjkzMi00LjAxMmwxLjMzLS40NDgtLjEzNS0xLjM5NGE2LjEyNiw2LjEyNiwwLDAsMSwxLjE3Mi00LjA5LDUuMSw1LjEsMCwwLDEsMy43MjItMS41NTYsNS4zNzIsNS4zNzIsMCwwLDEsNC42NjMsMy4xMTVsLjY4NywxLjY3NSwxLjQxMy0uNzY5YTQuNDMyLDQuNDMyLDAsMCwxLDEuOTc4LS41MjIsMy4yMzUsMy4yMzUsMCwwLDEsMy4xNzUsMi42MzZsLjE2OC44OTEuODI1LjM3N2E0LjM4NCw0LjM4NCwwLDAsMSwyLjU3LDMuOTcxYzAsMi40MTMtMS4zNzksNC4zNzUtMy43OTIsNC4zNzVoLS4yOTF2MS43NWguMjkxYzMuMzgzLDAsNS41NDItMi43NDIsNS41NDItNi4xMjVBNi4xMTUsNi4xMTUsMCwwLDAsMzguNDA3LDI0LjIwNVoiLz48cGF0aCBjbGFzcz0iY2xzLTMiIGQ9Ik0yNi45MjIsMzUuNjU5YTIuMjA5LDIuMjA5LDAsMCwwLS43LS40NywyLjE1NywyLjE1NywwLDAsMC0uODQ2LS4xNzFIMjMuMTg4YTIuMTM3LDIuMTM3LDAsMCwwLS44NTUuMTcxLDIuMjI2LDIuMjI2LDAsMCwwLS42OTIuNDcsMi4xOTMsMi4xOTMsMCwwLDAtLjQ3LjcsMi4xMzksMi4xMzksMCwwLDAtLjE3MS44NDZ2Mi4xODdoNi41NjJWMzcuMjA2YTIuMTU2LDIuMTU2LDAsMCwwLS4xNy0uODQ2QTIuMjA5LDIuMjA5LDAsMCwwLDI2LjkyMiwzNS42NTlaIi8+PHBhdGggY2xhc3M9ImNscy0zIiBkPSJNMjUuODI4LDM0LjM3OGEyLjIzMSwyLjIzMSwwLDAsMCwuNDctLjY5MywyLjExNSwyLjExNSwwLDAsMCwuMTcxLS44NTQsMi4xMzksMi4xMzksMCwwLDAtLjE3MS0uODQ2LDIuMTgsMi4xOCwwLDAsMC0xLjE3MS0xLjE3MSwyLjE1NywyLjE1NywwLDAsMC0uODQ2LS4xNzEsMi4xMzUsMi4xMzUsMCwwLDAtLjg1NC4xNzEsMi4yMjYsMi4yMjYsMCwwLDAtLjY5Mi40NywyLjE3NiwyLjE3NiwwLDAsMC0uNDcuNywyLjEzOSwyLjEzOSwwLDAsMC0uMTcxLjg0NiwyLjExNSwyLjExNSwwLDAsMCwuMTcxLjg1NCwyLjIsMi4yLDAsMCwwLC40Ny42OTMsMi4yMjYsMi4yMjYsMCwwLDAsLjY5Mi40NywyLjIxLDIuMjEsMCwwLDAsMS43LDBBMi4yMDksMi4yMDksMCwwLDAsMjUuODI4LDM0LjM3OFoiLz48cGF0aCBjbGFzcz0iY2xzLTMiIGQ9Ik0zNC44MjksMzYuMzZhMi4xOCwyLjE4LDAsMCwwLTEuMTcxLTEuMTcxLDIuMTUsMi4xNSwwLDAsMC0uODQ2LS4xNzFIMzAuNjI1YTIuMTMyLDIuMTMyLDAsMCwwLS44NTQuMTcxLDIuMiwyLjIsMCwwLDAtMS4xNjMsMS4xNzEsMi4xMzgsMi4xMzgsMCwwLDAtLjE3Ljg0NnYyLjE4N0gzNVYzNy4yMDZBMi4xMzksMi4xMzksMCwwLDAsMzQuODI5LDM2LjM2WiIvPjxwYXRoIGNsYXNzPSJjbHMtMyIgZD0iTTMzLjI2NSwzNC4zNzhhMi4yMTQsMi4yMTQsMCwwLDAsLjQ3LS42OTMsMi4xMTUsMi4xMTUsMCwwLDAsLjE3MS0uODU0LDIuMTM5LDIuMTM5LDAsMCwwLS4xNzEtLjg0NiwyLjE4MywyLjE4MywwLDAsMC0xLjE3LTEuMTcxLDIuMiwyLjIsMCwwLDAtMS43LDBBMi4yLDIuMiwwLDAsMCwyOS43LDMxLjk4NWEyLjEzOSwyLjEzOSwwLDAsMC0uMTcxLjg0NiwyLjExNSwyLjExNSwwLDAsMCwuMTcxLjg1NCwyLjIyNiwyLjIyNiwwLDAsMCwxLjE2MiwxLjE2MywyLjIxMiwyLjIxMiwwLDAsMCwxLjcsMEEyLjIsMi4yLDAsMCwwLDMzLjI2NSwzNC4zNzhaIi8+PHBhdGggY2xhc3M9ImNscy0zIiBkPSJNMjIuMjk0LDI1LjA0M2EuNTE4LjUxOCwwLDAsMCwuMzc3LS4xNjRsMS4xODEtMS40MTF2NS40MjVIMjQuOVYyMy40NjhsMS4xNjYsMS4zOTVhLjQ4My40ODMsMCwwLDAsLjc1NCwwLC40NTIuNDUyLDAsMCwwLDAtLjcyMmwtMS42OS0xLjk1MmExLjExLDEuMTEsMCwwLDAtMS41MDksMGwtMS43MDcsMS45NjhhLjUuNSwwLDAsMC0uMTY0LjM2MS41LjUsMCwwLDAsLjE2NC4zNjFBLjUxNi41MTYsMCwwLDAsMjIuMjk0LDI1LjA0M1oiLz48L3N2Zz4=;fontStyle=1;fontColor=#084D92;" parent="1" vertex="1">
                    <mxGeometry x="995" y="720" width="48" height="48" as="geometry"/>
                </mxCell>
                <mxCell id="DbYkKETLYe-rnW8ThWG0-40" style="edgeStyle=orthogonalEdgeStyle;rounded=0;sketch=0;jumpStyle=none;orthogonalLoop=1;jettySize=auto;html=1;exitX=0.5;exitY=1;exitDx=0;exitDy=0;entryX=1;entryY=0.5;entryDx=0;entryDy=0;shadow=0;strokeColor=default;fontFamily=Helvetica;fontSize=13;fontColor=#000000;startSize=6;endSize=6;sourcePerimeterSpacing=0;targetPerimeterSpacing=0;" parent="1" source="XRfYKmiPNdRlxdjmCls0-5" target="DbYkKETLYe-rnW8ThWG0-35" edge="1">
                    <mxGeometry relative="1" as="geometry"/>
                </mxCell>
                <mxCell id="XRfYKmiPNdRlxdjmCls0-5" value="SAP&#10;Destination&#10;Service" style="shape=image;verticalLabelPosition=bottom;verticalAlign=top;imageAspect=0;aspect=fixed;image=data:image/svg+xml,PHN2ZyB4bWxucz0iaHR0cDovL3d3dy53My5vcmcvMjAwMC9zdmciIGlkPSJkZXN0aW5hdGlvbiIgdmlld0JveD0iNC4wMDAwMDE5MDczNDg2MzMgMy45OTk5OTkwNDYzMjU2ODM2IDQ4IDQ3Ljk5OTk5NjE4NTMwMjczNCIgd2lkdGg9IjQ4IiBoZWlnaHQ9IjQ3Ljk5OTk5NjE4NTMwMjczNCI+PGRlZnM+PHN0eWxlPi5jbHMtMXtmaWxsOiMwNzRkOTI7fS5jbHMtMntmaWxsOiMwNTNiNzA7fS5jbHMtM3tmaWxsOiMwYTZlZDE7fTwvc3R5bGU+PC9kZWZzPjx0aXRsZT5kZXN0aW5hdGlvbl9jaXJjbGU8L3RpdGxlPjxwYXRoIGNsYXNzPSJjbHMtMSIgZD0iTTI4LDZBMjIsMjIsMCwxLDEsNiwyOCwyMi4wMjUsMjIuMDI1LDAsMCwxLDI4LDZtMC0yQTI0LDI0LDAsMSwwLDUyLDI4LDI0LDI0LDAsMCwwLDI4LDRaIi8+PHBhdGggY2xhc3M9ImNscy0yIiBkPSJNMjMuNSw0MEgxOS4wNDdhMS41NCwxLjU0LDAsMCwxLTEuMS0uNDIyQTEuNDE5LDEuNDE5LDAsMCwxLDE3LjUsMzguNVYyMmw2LTZIMzRhMS40MjMsMS40MjMsMCwwLDEsMS4wNzguNDQ1QTEuNDg2LDEuNDg2LDAsMCwxLDM1LjUsMTcuNVYxOUgzNFYxNy41SDI1VjIyYTEuNDIxLDEuNDIxLDAsMCwxLS40NDUsMS4wNzhBMS40ODYsMS40ODYsMCwwLDEsMjMuNSwyMy41SDE5djE1aDQuNVoiLz48cGF0aCBjbGFzcz0iY2xzLTMiIGQ9Ik0yNy45NjksMzQuOTMyLDI2LjM1OCwzNC4xbC0xLjAxMi45MjlMMjQuMDU4LDMzLjc2bC44ODEtLjg4Mi0uNjgzLTEuNzYzTDIzLDMxLjFWMjkuMzEyaDEuMjM5bC43MzYtMS43NzUtLjkxNy0uOTIzLDEuMjY1LTEuMjg3Ljk1NS45NTYsMS42OTEtLjctLjAwNy0xLjM3NywxLjg4Mi4wMDl2MS4zNjhsMS42OS43LDEuMDA4LS44ODIsMS4yMTMsMS4zMzktLjg4Mi44ODIuNywxLjY5LDEuMzMzLjA5NHYuODQ0aDEuNXYtLjg0NGExLjU2MywxLjU2MywwLDAsMC0xLjU5My0xLjU5NEgzNC44bC4wNDEtLjAzOWExLjYzNCwxLjYzNCwwLDAsMCwuNDI5LTEuMTA5LDEuNTM2LDEuNTM2LDAsMCwwLS40NTctMS4xMUwzMy42LDI0LjM0MWExLjYzMiwxLjYzMiwwLDAsMC0yLjI0OCwwbC0uMDExLjAxMnYtLjAwOUExLjU2MSwxLjU2MSwwLDAsMCwyOS43NSwyMi43NUgyOC4wNjNhMS41NjEsMS41NjEsMCwwLDAtMS41OTQsMS41OTR2LjAwOWwtLjAxMi0uMDEyYTEuNjMsMS42MywwLDAsMC0yLjI0NywwTDIzLDI1LjU1NGExLjUzNiwxLjUzNiwwLDAsMC0uNDU3LDEuMTFBMS42NTYsMS42NTYsMCwwLDAsMjMsMjcuOGwuMDEyLjAxMUgyM2ExLjU2MywxLjU2MywwLDAsMC0xLjU5NCwxLjU5NHYxLjY4OGExLjU5LDEuNTksMCwwLDAsLjQ0MywxLjEwOUExLjU0MSwxLjU0MSwwLDAsMCwyMywzMi42ODhoLjAwOUwyMywzMi43YTEuNjEsMS42MSwwLDAsMCwwLDIuMjQ3bDEuMjEzLDEuMjEzYTEuNjIyLDEuNjIyLDAsMCwwLDIuMjU5LS4wMTJ2LjAwOWExLjU5LDEuNTksMCwwLDAsLjQ0MiwxLjEwOSwxLjU0NCwxLjU0NCwwLDAsMCwxLjE1Mi40ODVoLjg0M3YtMS41bC0uOTM3LS4wOTRaIi8+PHBhdGggY2xhc3M9ImNscy0zIiBkPSJNMjguOTA2LDI4Ljc1YTEuNDgsMS40OCwwLDAsMSwxLjI3Ljc1SDMxLjhhMi45OTQsMi45OTQsMCwxLDAtMy42NDQsMy42NDNWMzEuNTJhMS40ODEsMS40ODEsMCwwLDEtLjc1LTEuMjdBMS41LDEuNSwwLDAsMSwyOC45MDYsMjguNzVaIi8+PHBhdGggY2xhc3M9ImNscy0zIiBkPSJNMzUuOTM0LDM2LjYzOWwuMTMyLS4xMzJhMi4yNTYsMi4yNTYsMCwwLDAsMC0zLjE4M0wzNC4zOSwzMS42NDhhMi4yNTUsMi4yNTUsMCwwLDAtMy4xODIsMGwtLjEzMy4xMzJMMjkuNDkyLDMwLjJsLS44LjgsMS41ODMsMS41ODMtLjEzMi4xMzJhMi4yNTYsMi4yNTYsMCwwLDAsMCwzLjE4M2wxLjY3NiwxLjY3NmEyLjI1NiwyLjI1NiwwLDAsMCwzLjE4MywwbC4xMzItLjEzMkwzNy43LDQwbC44LS44Wk0zMS4zMjEsMzUuNmwtLjM0OS0uMzQ5YTEuMiwxLjIsMCwwLDEsMC0xLjY5bDEuMDg4LTEuMDg4YTEuMiwxLjIsMCwwLDEsMS42OSwwbC4zNDkuMzQ5Wm0zLjkyMS4wNTUtMS4wODgsMS4wODhhMS4yLDEuMiwwLDAsMS0xLjY5LDBsLS4zNDgtLjM0N0wzNC45LDMzLjYxNmwuMzQ3LjM0OEExLjIsMS4yLDAsMCwxLDM1LjI0MiwzNS42NTRaIi8+PC9zdmc+;fontStyle=1;fontColor=#084d92;labelBackgroundColor=default;" parent="1" vertex="1">
                    <mxGeometry x="732" y="572" width="48" height="48" as="geometry"/>
                </mxCell>
                <mxCell id="DbYkKETLYe-rnW8ThWG0-30" style="edgeStyle=orthogonalEdgeStyle;rounded=0;sketch=0;jumpStyle=none;orthogonalLoop=1;jettySize=auto;html=1;exitX=0.5;exitY=0;exitDx=0;exitDy=0;entryX=0.75;entryY=1;entryDx=0;entryDy=0;shadow=0;strokeColor=default;fontSize=11;fontColor=default;endSize=6;sourcePerimeterSpacing=0;targetPerimeterSpacing=0;endFill=1;startArrow=classic;startFill=1;" parent="1" source="XRfYKmiPNdRlxdjmCls0-7" edge="1">
                    <mxGeometry relative="1" as="geometry">
                        <mxPoint x="1168.5" y="654.0000000000002" as="targetPoint"/>
                    </mxGeometry>
                </mxCell>
                <mxCell id="XRfYKmiPNdRlxdjmCls0-7" value="SAP HANA Cloud" style="shape=image;verticalLabelPosition=bottom;verticalAlign=top;imageAspect=0;aspect=fixed;image=data:image/svg+xml,PHN2ZyB4bWxucz0iaHR0cDovL3d3dy53My5vcmcvMjAwMC9zdmciIGlkPSJoYW5hIiB2aWV3Qm94PSI0LjAwMDAwMTkwNzM0ODYzMyAzLjk5OTk5OTA0NjMyNTY4MzYgNDggNDcuOTk5OTk2MTg1MzAyNzM0IiB3aWR0aD0iNDgiIGhlaWdodD0iNDcuOTk5OTk2MTg1MzAyNzM0Ij48ZGVmcz48c3R5bGU+LmNscy0xe2ZpbGw6IzBhNmVkMTt9LmNscy0ye2ZpbGw6IzA1M2I3MDt9LmNscy0ze2ZpbGw6IzA3NGQ5Mjt9PC9zdHlsZT48L2RlZnM+PHRpdGxlPmhhbmFfY2lyY2xlPC90aXRsZT48cGF0aCBjbGFzcz0iY2xzLTEiIGQ9Ik00MC40MTcsMjQuNjk0YTQuMjI2LDQuMjI2LDAsMCwwLTEuNTI0LTEuMDYyLDEzLjA3NCwxMy4wNzQsMCwwLDAtNS4xNDQtLjg4MiwxMy4wNywxMy4wNywwLDAsMC01LjE0NC44ODIsNC4yMDksNC4yMDksMCwwLDAtMS41MjQsMS4wNjIsMi4yLDIuMiwwLDAsMC0uNTgzLDEuNDdWMzguNTQ3YTIuMTIzLDIuMTIzLDAsMCwwLC41ODMsMS40NjdBNC4xMzgsNC4xMzgsMCwwLDAsMjguNiw0MS4wNzYsMTIuMzQ1LDEyLjM0NSwwLDAsMCwzMy43NDksNDJhMTMuMDc0LDEzLjA3NCwwLDAsMCw1LjE0NC0uODgyLDQuMjI2LDQuMjI2LDAsMCwwLDEuNTI0LTEuMDYyQTIuMjg5LDIuMjg5LDAsMCwwLDQxLDM4LjU4NlYyNi4xNjRBMi4yLDIuMiwwLDAsMCw0MC40MTcsMjQuNjk0Wk0zNS4zOCw0MC4zNTJjLS41MjIuMDQ5LTEuMDYxLjA4My0xLjYzMS4wODNhMTYuNzg3LDE2Ljc4NywwLDAsMS0xLjk4Ny0uMTIyVjI5LjVhMTkuMjI4LDE5LjIyOCwwLDAsMCwxLjk4Ny4xYy41NzEsMCwxLjExMS0uMDMsMS42MzEtLjA3NFptNC4xOC0xLjc2NmMwLC40MDgtLjUzNC44NTEtMS40MzEsMS4xODdhOC40NDIsOC40NDIsMCwwLDEtMS4zLjM2M1YyOS4zMjNhNy45NDcsNy45NDcsMCwwLDAsMi43MzEtLjk1OVpNMzguMTI5LDI3LjQwOGExMi41ODMsMTIuNTgzLDAsMCwxLTQuMzguNjYzLDEyLjU0OCwxMi41NDgsMCwwLDEtNC4zNzctLjY2M2MtLjg4OC0uMzc5LTEuNC0uODI2LTEuNC0xLjIyNnYtLjAxOGMwLS43NTUsMi4wNTYtMS44NSw1Ljc3NC0xLjg1LDMuNzQzLDAsNS44MTEsMS4wOTUsNS44MTEsMS44N0MzOS41NiwyNi41ODcsMzkuMDM4LDI3LjAzNCwzOC4xMjksMjcuNDA4WiIvPjxwYXRoIGNsYXNzPSJjbHMtMiIgZD0iTTI0Ljg0LDI3Ljk5MkgxNy45MDZhMy4xNDMsMy4xNDMsMCwwLDEtLjk3Ny02LjEzNGwxLjM0Ni0uNDQzLS4xNTMtMS40MDhBNC43MzMsNC43MzMsMCwwLDEsMTksMTYuOTI0YTMuOCwzLjgsMCwwLDEsMi44MTktMS4xNzNBMy41MzQsMy41MzQsMCwwLDEsMjUuMjM1LDE4LjFMMjYsMjAuMDIzbDEuNzY3LTEuMDY2YTIuMjg3LDIuMjg3LDAsMCwxLDEuMTkyLS4zNDUsMi4zMjYsMi4zMjYsMCwwLDEsMi4yODMsMS45bC4wOTMuNDkzaDEuNzQ5Yy0uMDI3LS4yNTYtLjA2My0uNTI4LS4xMjItLjgxN2E0LjA0OSw0LjA0OSwwLDAsMC02LjEtMi43MjVBNS41MTQsNS41MTQsMCwwLDAsMjEuNzgyLDE0Yy01Ljk0NS4xNDEtNS40LDYuMi01LjQsNi4yYTQuODkzLDQuODkzLDAsMCwwLDEuNTI0LDkuNTQ3SDI0Ljg0WiIvPjxwYXRoIGNsYXNzPSJjbHMtMyIgZD0iTTI4LDZBMjIsMjIsMCwxLDEsNiwyOCwyMi4wMjUsMjIuMDI1LDAsMCwxLDI4LDZtMC0yQTI0LDI0LDAsMSwwLDUyLDI4LDI0LDI0LDAsMCwwLDI4LDRaIi8+PC9zdmc+;fontStyle=1;fontColor=#084D92;" parent="1" vertex="1">
                    <mxGeometry x="1145" y="720" width="48" height="48" as="geometry"/>
                </mxCell>
                <mxCell id="XRfYKmiPNdRlxdjmCls0-19" value="" style="rounded=0;whiteSpace=wrap;html=1;strokeWidth=2;verticalAlign=bottom;fontStyle=1;strokeColor=#084d92;fontColor=#084D92;" parent="1" vertex="1">
                    <mxGeometry x="818" y="421" width="402" height="233" as="geometry"/>
                </mxCell>
                <mxCell id="XRfYKmiPNdRlxdjmCls0-128" style="edgeStyle=orthogonalEdgeStyle;rounded=0;sketch=0;orthogonalLoop=1;jettySize=auto;html=1;entryX=0.5;entryY=1;entryDx=0;entryDy=0;shadow=0;strokeColor=#000000;strokeWidth=1.7;fontSize=14;fontColor=#FFFFFF;startArrow=classic;startFill=1;endArrow=none;endFill=0;startSize=5;endSize=3;" parent="1" source="XRfYKmiPNdRlxdjmCls0-20" target="XRfYKmiPNdRlxdjmCls0-24" edge="1">
                    <mxGeometry relative="1" as="geometry"/>
                </mxCell>
                <mxCell id="XRfYKmiPNdRlxdjmCls0-20" value="SAP AI Core" style="rounded=0;whiteSpace=wrap;html=1;strokeWidth=2;fontStyle=1;fontSize=14;verticalAlign=top;fontColor=#10828f;" parent="1" vertex="1">
                    <mxGeometry x="392" y="530" width="300" height="140" as="geometry"/>
                </mxCell>
                <mxCell id="XRfYKmiPNdRlxdjmCls0-24" value="&lt;div style=&quot;&quot;&gt;&lt;span style=&quot;background-color: initial;&quot;&gt;SAP AI Launchpad&lt;/span&gt;&lt;/div&gt;" style="rounded=0;whiteSpace=wrap;html=1;strokeWidth=2;fontStyle=1;fontSize=14;align=center;labelPosition=center;verticalLabelPosition=middle;verticalAlign=top;fontColor=#10828f;" parent="1" vertex="1">
                    <mxGeometry x="392" y="390" width="300" height="120" as="geometry"/>
                </mxCell>
                <mxCell id="XRfYKmiPNdRlxdjmCls0-15" value="" style="shape=image;verticalLabelPosition=bottom;verticalAlign=top;imageAspect=0;aspect=fixed;image=data:image/svg+xml,PHN2ZyB4bWxucz0iaHR0cDovL3d3dy53My5vcmcvMjAwMC9zdmciIGlkPSJhaS1jb3JlIiB2aWV3Qm94PSI0LjAwMDAwMTkwNzM0ODYzMyAzLjk5OTk5OTA0NjMyNTY4MzYgNDggNDcuOTk5OTk2MTg1MzAyNzM0IiB3aWR0aD0iNDgiIGhlaWdodD0iNDcuOTk5OTk2MTg1MzAyNzM0Ij48ZGVmcz48c3R5bGU+LmNscy0xe2ZpbGw6IzA3NGQ5Mjt9LmNscy0ye2ZpbGw6bm9uZTt9LmNscy0ze2ZpbGw6IzBhNmVkMTt9LmNscy00e2ZpbGw6IzA1M2I3MDt9PC9zdHlsZT48L2RlZnM+PHBhdGggY2xhc3M9ImNscy0xIiBkPSJNMjgsNkEyMiwyMiwwLDEsMSw2LDI4LDIyLjAyNSwyMi4wMjUsMCwwLDEsMjgsNm0wLTJBMjQsMjQsMCwxLDAsNTIsMjgsMjQsMjQsMCwwLDAsMjgsNFoiLz48cmVjdCBjbGFzcz0iY2xzLTIiIHg9IjE3LjUiIHk9IjIzIiB3aWR0aD0iMjEiIGhlaWdodD0iMyIvPjxyZWN0IGNsYXNzPSJjbHMtMiIgeD0iMTcuNSIgeT0iMTguNSIgd2lkdGg9IjIxIiBoZWlnaHQ9IjMiLz48cGF0aCBjbGFzcz0iY2xzLTMiIGQ9Ik0yNS45ODMsMzkuODR2MEgyNS40NGExLjEzNSwxLjEzNSwwLDAsMS0xLjEwNS0xLjE2NVYzNi42YTIuMjU4LDIuMjU4LDAsMCwwLS43NDQtMS41NSwyLjM1NSwyLjM1NSwwLDAsMCwuNzQ0LTEuNTU1VjMxLjMyOWExLjEzNSwxLjEzNSwwLDAsMSwxLjEwNS0xLjE2NWguNTQzdi0uMDA1YS41OC41OCwwLDAsMCwwLTEuMTU0djBoLS41NDZhMi4yNjksMi4yNjksMCwwLDAtMi4yMDcsMi4zMjlWMzMuNWExLjA3OSwxLjA3OSwwLDAsMS0uOC45MDl2LjAxYS42NTUuNjU1LDAsMCwwLDAsMS4yMjh2LjAwN2ExLjEzNCwxLjEzNCwwLDAsMSwuOC45NTF2Mi4wNjhBMi4yNjksMi4yNjksMCwwLDAsMjUuNDM3LDQxaC41NDZWNDFhLjU4LjU4LDAsMCwwLDAtMS4xNTVaIi8+PHBhdGggY2xhc3M9ImNscy0zIiBkPSJNNDAsMzQuOTY5YS42NDUuNjQ1LDAsMCwwLS40MjYtLjYxNHYtLjAwN2ExLjEzMSwxLjEzMSwwLDAsMS0uOC0uOTUxVjMxLjMyOUEyLjI2OSwyLjI2OSwwLDAsMCwzNi41NjYsMjlIMzYuMDJ2MGEuNTguNTgsMCwwLDAsMCwxLjE1NHYuMDA1aC41NDNhMS4xMzUsMS4xMzUsMCwwLDEsMS4xLDEuMTY1VjMzLjRhMi4yNTgsMi4yNTgsMCwwLDAsLjc0NCwxLjU1LDIuMzU5LDIuMzU5LDAsMCwwLS43NDQsMS41NTV2Mi4xNjlhMS4xMzUsMS4xMzUsMCwwLDEtMS4xLDEuMTY1SDM2LjAydjBhLjU4LjU4LDAsMCwwLDAsMS4xNTVWNDFoLjU0NmEyLjI2OSwyLjI2OSwwLDAsMCwyLjIwOC0yLjMyOVYzNi41YTEuMDc4LDEuMDc4LDAsMCwxLC44LS45MDl2LS4wMTFBLjY0My42NDMsMCwwLDAsNDAsMzQuOTY5WiIvPjxwYXRoIGNsYXNzPSJjbHMtMyIgZD0iTTIwLjUwNSwyMC41NjNoLTEuNWEuNTYzLjU2MywwLDEsMSwwLTEuMTI1aDEuNWEuNTYzLjU2MywwLDEsMSwwLDEuMTI1WiIvPjxwYXRoIGNsYXNzPSJjbHMtMyIgZD0iTTIwLjUwNSwyNS4wNDhoLTEuNWEuNTYzLjU2MywwLDEsMSwwLTEuMTI1aDEuNWEuNTYzLjU2MywwLDEsMSwwLDEuMTI1WiIvPjxwYXRoIGNsYXNzPSJjbHMtMyIgZD0iTTIwLjUwNSwyOS41MzJoLTEuNWEuNTYzLjU2MywwLDEsMSwwLTEuMTI1aDEuNWEuNTYzLjU2MywwLDEsMSwwLDEuMTI1WiIvPjxwYXRoIGNsYXNzPSJjbHMtNCIgZD0iTTQwLDI2VjE4LjVBMS41LDEuNSwwLDAsMCwzOC41LDE3aC0yMUExLjUsMS41LDAsMCwwLDE2LDE4LjV2MTJBMS41LDEuNSwwLDAsMCwxNy41LDMyaDIuODE4YS43NS43NSwwLDAsMCwwLTEuNUgxNy41di0zaDIxQTEuNSwxLjUsMCwwLDAsNDAsMjZaTTE3LjUsMTguNWgyMXYzaC0yMVptMCw0LjVoMjF2M2gtMjFaIi8+PHBhdGggY2xhc3M9ImNscy00IiBkPSJNMzEuMywzNi4zMzlBMS4zMzgsMS4zMzgsMCwwLDEsMjkuOTY0LDM1YS4zNzUuMzc1LDAsMCwxLC43NSwwLC41ODQuNTg0LDAsMCwwLC4xNzEuNDE2LjYuNiwwLDAsMCwuODMyLDBBLjU4Mi41ODIsMCwwLDAsMzEuODkyLDM1YS41ODkuNTg5LDAsMCwwLS41ODktLjU4OS4zNzUuMzc1LDAsMSwxLDAtLjc1QTEuMzQxLDEuMzQxLDAsMCwxLDMyLjY0MiwzNSwxLjM0LDEuMzQsMCwwLDEsMzEuMywzNi4zMzlaIi8+PHBhdGggY2xhc3M9ImNscy00IiBkPSJNMzEuMywzOC4xMzNhMy4xMzIsMy4xMzIsMCwwLDEtMi4yMTUtNS4zNDksMy4yMTEsMy4yMTEsMCwwLDEsNC40MzEsMEEzLjExNCwzLjExNCwwLDAsMSwzNC40MzYsMzVhLjU2My41NjMsMCwxLDEtMS4xMjUsMCwxLjk4NiwxLjk4NiwwLDAsMC0uNTg3LTEuNDE5LDIuMDU3LDIuMDU3LDAsMCwwLTIuODQxLDAsMi4wMDksMi4wMDksMCwwLDAsMS40MiwzLjQyOS41NjMuNTYzLDAsMCwxLDAsMS4xMjVaIi8+PHBhdGggY2xhc3M9ImNscy00IiBkPSJNMzEuMyw0MC4wNjNhNS4wMzUsNS4wMzUsMCwwLDEtMy41OC0xLjQ4My41NjQuNTY0LDAsMSwxLC44LS44LDQuMDI4LDQuMDI4LDAsMCwwLDUuNTY2LDAsMy44NzcsMy44NzcsMCwwLDAsLjYyOC0uODE0LjU2My41NjMsMCwwLDEsLjk3My41NjVBNS4wODEsNS4wODEsMCwwLDEsMzEuMyw0MC4wNjNaIi8+PHBhdGggY2xhc3M9ImNscy00IiBkPSJNMjYuOCwzNS41NjNBLjU2My41NjMsMCwwLDEsMjYuMjQsMzVhNS4wMzUsNS4wMzUsMCwwLDEsMS40ODMtMy41OCw1LjE5LDUuMTksMCwwLDEsNy4xNiwwLC41NjQuNTY0LDAsMCwxLS44LjgsNC4wMjgsNC4wMjgsMCwwLDAtNS41NjYsMEEzLjksMy45LDAsMCwwLDI3LjM2NSwzNSwuNTYzLjU2MywwLDAsMSwyNi44LDM1LjU2M1oiLz48L3N2Zz4=" parent="1" vertex="1">
                    <mxGeometry x="402" y="545" width="48" height="48" as="geometry"/>
                </mxCell>
                <mxCell id="XRfYKmiPNdRlxdjmCls0-17" value="" style="shape=image;verticalLabelPosition=bottom;verticalAlign=top;imageAspect=0;aspect=fixed;image=data:image/svg+xml,PHN2ZyB4bWxucz0iaHR0cDovL3d3dy53My5vcmcvMjAwMC9zdmciIGlkPSJhaS1jb2NrcGl0IiB2aWV3Qm94PSI0LjAwMDAwMTkwNzM0ODYzMyAzLjk5OTk5OTA0NjMyNTY4MzYgNDggNDcuOTk5OTk2MTg1MzAyNzM0IiB3aWR0aD0iNDgiIGhlaWdodD0iNDcuOTk5OTk2MTg1MzAyNzM0Ij48ZGVmcz48c3R5bGU+LmNscy0xe2ZpbGw6IzA3NGQ5Mjt9LmNscy0ye2ZpbGw6IzBhNmVkMTt9LmNscy0ze2ZpbGw6IzA1M2I3MDt9PC9zdHlsZT48L2RlZnM+PHBhdGggY2xhc3M9ImNscy0xIiBkPSJNMjgsNkEyMiwyMiwwLDEsMSw2LDI4LDIyLjAyNSwyMi4wMjUsMCwwLDEsMjgsNm0wLTJBMjQsMjQsMCwxLDAsNTIsMjgsMjQsMjQsMCwwLDAsMjgsNFoiLz48cGF0aCBjbGFzcz0iY2xzLTIiIGQ9Ik0zNi45OTQsMzQuMjE5YS42NDQuNjQ0LDAsMCwwLS40MjYtLjYxNFYzMy42YTEuMTM0LDEuMTM0LDAsMCwxLS44LS45NTFWMjkuODI5QTIuMjY5LDIuMjY5LDAsMCwwLDMzLjU2NSwyNy41aC0uNTQ2djBhLjU4LjU4LDAsMCwwLDAsMS4xNTR2LjAwNWguNTQzYTEuMTM1LDEuMTM1LDAsMCwxLDEuMTA1LDEuMTY1djIuODE4YTIuMjU4LDIuMjU4LDAsMCwwLC43NDQsMS41NSwyLjM1NSwyLjM1NSwwLDAsMC0uNzQ0LDEuNTU1djIuOTE5YTEuMTM1LDEuMTM1LDAsMCwxLTEuMTA1LDEuMTY1aC0uNTQzdi4wMDVhLjU4LjU4LDAsMCwwLDAsMS4xNTRWNDFoLjU0NmEyLjI2OSwyLjI2OSwwLDAsMCwyLjIwNy0yLjMyOVYzNS43NTJhMS4wNzksMS4wNzksMCwwLDEsLjgtLjkwOXYtLjAxMUEuNjQyLjY0MiwwLDAsMCwzNi45OTQsMzQuMjE5WiIvPjxwYXRoIGNsYXNzPSJjbHMtMiIgZD0iTTIyLjk3NCwzOS44NDF2LS4wMDVoLS41NDJhMS4xMzUsMS4xMzUsMCwwLDEtMS4xLTEuMTY1VjM1Ljg1M2EyLjI2MywyLjI2MywwLDAsMC0uNzQ1LTEuNTUsMi4zNiwyLjM2LDAsMCwwLC43NDUtMS41NTVWMjkuODI5YTEuMTM1LDEuMTM1LDAsMCwxLDEuMS0xLjE2NWguNTQydi0uMDA1YS41OC41OCwwLDAsMCwwLTEuMTU0djBoLS41NDZhMi4yNjksMi4yNjksMCwwLDAtMi4yMDcsMi4zMjl2Mi45MTlhMS4wNzgsMS4wNzgsMCwwLDEtLjguOTA5di4wMTFhLjY1NS42NTUsMCwwLDAsMCwxLjIyN1YzNC45YTEuMTMxLDEuMTMxLDAsMCwxLC44Ljk1MXYyLjgxOEEyLjI2OSwyLjI2OSwwLDAsMCwyMi40MjgsNDFoLjU0NlY0MWEuNTguNTgsMCwwLDAsMC0xLjE1NFoiLz48cGF0aCBjbGFzcz0iY2xzLTMiIGQ9Ik00MCwyMS40N2gtLjAwN1YxOC41YTEuNSwxLjUsMCwwLDAtMS41LTEuNUgxNy41QTEuNSwxLjUsMCwwLDAsMTYsMTguNVYzNC4yNWEuNzUyLjc1MiwwLDAsMCwuNzUuNzUuNzQzLjc0MywwLDAsMCwuNzUtLjc1VjIyLjZIMzguNDk0VjM0LjI1YS43NTIuNzUyLDAsMCwwLC43NS43NS43NDIuNzQyLDAsMCwwLC43NDktLjc1VjIyLjZINDBabS0yMi41LDBWMTguNUgzOC40OTR2Mi45N1oiLz48cGF0aCBjbGFzcz0iY2xzLTIiIGQ9Ik0zNi45OTQsMTkuMjJhLjc1Ljc1LDAsMSwwLC43NS43NUEuNzQ5Ljc0OSwwLDAsMCwzNi45OTQsMTkuMjJaIi8+PHBhdGggY2xhc3M9ImNscy0yIiBkPSJNMzQuNzQ1LDE5LjIyYS43NS43NSwwLDEsMCwuNzUuNzVBLjc1Ljc1LDAsMCwwLDM0Ljc0NSwxOS4yMloiLz48cGF0aCBjbGFzcz0iY2xzLTIiIGQ9Ik0zMi41LDE5LjIyYS43NS43NSwwLDEsMCwuNzQ5Ljc1QS43NS43NSwwLDAsMCwzMi41LDE5LjIyWiIvPjxwYXRoIGNsYXNzPSJjbHMtMyIgZD0iTTI3Ljg4MiwzNC42NjdhLjU4Mi41ODIsMCwwLDEtLjE3My0uNDE3LjM3NS4zNzUsMCwwLDAtLjc1LDBBMS4zMzksMS4zMzksMCwxLDAsMjguMywzMi45MTFhLjM3NS4zNzUsMCwwLDAsMCwuNzUuNTkuNTksMCwwLDEsLjQxOSwxQS42MDkuNjA5LDAsMCwxLDI3Ljg4MiwzNC42NjdaIi8+PHBhdGggY2xhc3M9ImNscy0zIiBkPSJNMzAuMzA2LDM0LjI1YS41NjMuNTYzLDAsMCwwLDEuMTI1LDAsMy4xMDcsMy4xMDcsMCwwLDAtLjkxNy0yLjIxNSwzLjIxMSwzLjIxMSwwLDAsMC00LjQzMywwQTMuMTM1LDMuMTM1LDAsMCwwLDI4LjMsMzcuMzg1YS41NjMuNTYzLDAsMCwwLDAtMS4xMjUsMi4wMDksMi4wMDksMCwwLDEtMS40Mi0zLjQzLDIuMDUzLDIuMDUzLDAsMCwxLDIuODM5LDBBMS45OTEsMS45OTEsMCwwLDEsMzAuMzA2LDM0LjI1WiIvPjxwYXRoIGNsYXNzPSJjbHMtMyIgZD0iTTMyLjQ3NywzNi4wMTNhLjU3LjU3LDAsMCwwLS43NjkuMjA3LDMuODE0LDMuODE0LDAsMCwxLS42MjcuODEzLDQuMDI4LDQuMDI4LDAsMCwxLTUuNTY2LDAsLjU2NC41NjQsMCwwLDAtLjguOCw1LjA3MSw1LjA3MSwwLDAsMCw3Ljk2NS0xLjA0N0EuNTY0LjU2NCwwLDAsMCwzMi40NzcsMzYuMDEzWiIvPjxwYXRoIGNsYXNzPSJjbHMtMyIgZD0iTTMxLjA4MSwzMS40NjdhLjU2NC41NjQsMCwxLDAsLjgtLjgsNS4xOSw1LjE5LDAsMCwwLTcuMTYsMCw1LjAzNSw1LjAzNSwwLDAsMC0xLjQ4MywzLjU4LjU2My41NjMsMCwwLDAsMS4xMjUsMCwzLjksMy45LDAsMCwxLDEuMTU1LTIuNzgzQTQuMDI2LDQuMDI2LDAsMCwxLDMxLjA4MSwzMS40NjdaIi8+PC9zdmc+" parent="1" vertex="1">
                    <mxGeometry x="402" y="400" width="48" height="48" as="geometry"/>
                </mxCell>
                <mxCell id="XRfYKmiPNdRlxdjmCls0-25" value="" style="rounded=0;whiteSpace=wrap;html=1;strokeWidth=2;fontStyle=1;fontSize=14;strokeColor=#0A6ED1;fontColor=#084D92;dashed=1;dashPattern=1 1;" parent="1" vertex="1">
                    <mxGeometry x="840" y="491" width="360" height="140" as="geometry"/>
                </mxCell>
                <mxCell id="XRfYKmiPNdRlxdjmCls0-16" value="" style="shape=image;verticalLabelPosition=bottom;verticalAlign=top;imageAspect=0;aspect=fixed;image=data:image/svg+xml,PHN2ZyB4bWxucz0iaHR0cDovL3d3dy53My5vcmcvMjAwMC9zdmciIGlkPSJjbG91ZC1mb3VuZHJ5LXJ1bnRpbWUiIHZpZXdCb3g9IjQuMDAwMDAxOTA3MzQ4NjMzIDMuOTk5OTk5MDQ2MzI1NjgzNiA0OCA0Ny45OTk5OTYxODUzMDI3MzQiIHdpZHRoPSI0OCIgaGVpZ2h0PSI0Ny45OTk5OTYxODUzMDI3MzQiPjxkZWZzPjxzdHlsZT4uY2xzLTF7ZmlsbDojMDc0ZDkyO30uY2xzLTJ7ZmlsbDojMDUzYjcwO30uY2xzLTN7ZmlsbDojMGE2ZWQxO308L3N0eWxlPjwvZGVmcz48dGl0bGU+Y2xvdWQtZm91bmRyeS1ydW50aW1lPC90aXRsZT48cGF0aCBjbGFzcz0iY2xzLTEiIGQ9Ik0yOCw2QTIyLDIyLDAsMSwxLDYsMjgsMjIuMDI1LDIyLjAyNSwwLDAsMSwyOCw2bTAtMkEyNCwyNCwwLDEsMCw1MiwyOCwyNCwyNCwwLDAsMCwyOCw0WiIvPjxwYXRoIGNsYXNzPSJjbHMtMiIgZD0iTTE3LjI1LDI4LjE0OGEuODc1Ljg3NSwwLDAsMC0uODc1LS44NzVoLTMuNWEuODc1Ljg3NSwwLDEsMCwwLDEuNzVoMy41QS44NzUuODc1LDAsMCwwLDE3LjI1LDI4LjE0OFoiLz48cGF0aCBjbGFzcz0iY2xzLTIiIGQ9Ik0xNC42MjUsMjMuNzczaDMuNWEuODc1Ljg3NSwwLDAsMCwwLTEuNzVoLTMuNWEuODc1Ljg3NSwwLDEsMCwwLDEuNzVaIi8+PHBhdGggY2xhc3M9ImNscy0yIiBkPSJNMTguMTI1LDMyLjUyM2gtMS43OGEuODc1Ljg3NSwwLDEsMCwwLDEuNzVoMS43OGEuODc1Ljg3NSwwLDAsMCwwLTEuNzVaIi8+PHBhdGggY2xhc3M9ImNscy0zIiBkPSJNMzguNzg3LDI2LjM3NWMtLjAzNCwwLS4wNjcsMC0uMSwwSDM3LjU0OWwtLjQ5Mi0xLjE4OC44MTktLjgyMWExLjM2NCwxLjM2NCwwLDAsMCwuMzctLjk0MywxLjIyNiwxLjIyNiwwLDAsMC0uMzctLjlsLTEuOS0xLjg4NmExLjIyNiwxLjIyNiwwLDAsMC0uOS0uMzcsMS4yNjgsMS4yNjgsMCwwLDAtLjk0My4zN2wtLjgyMS44Mi0xLjE5LS40OTNWMTkuODEzQTEuMjYyLDEuMjYyLDAsMCwwLDMwLjkwNywxOC41YS44MzQuODM0LDAsMCwwLS4xLDBIMjguMTgyYTEuMjYzLDEuMjYzLDAsMCwwLTEuMzEzLDEuMjEyYzAsLjAzMywwLC4wNjcsMCwuMXYxLjE0OGwtMS4xOS40OTMtLjgxOS0uODJhMS4yNzcsMS4yNzcsMCwwLDAtLjk0My0uMzcsMS4yMjYsMS4yMjYsMCwwLDAtLjkuMzdsLTEuODc5LDEuODkxYTEuMjI2LDEuMjI2LDAsMCwwLS4zNy45LDEuMzY3LDEuMzY3LDAsMCwwLC4zNy45NDRsLjgyLjgyLS40OTMsMS4xODNIMjAuMzE0QTEuMjY0LDEuMjY0LDAsMCwwLDE5LDI3LjU4NmEuODY4Ljg2OCwwLDAsMCwwLC4xdjIuNjI1YTEuMywxLjMsMCwwLDAsLjM2OS45MjQsMS4yNDIsMS4yNDIsMCwwLDAsLjk0My4zODhIMjEuNDZsLjQ5NCwxLjE5LS44MjEuODIxYTEuMzM5LDEuMzM5LDAsMCwwLDAsMS44NDZsMS44OTIsMS44ODZhMS4yMjMsMS4yMjMsMCwwLDAsLjkuMzcsMS4yNzksMS4yNzksMCwwLDAsLjk0My0uMzdsLjgxOS0uODYxLDEuMTkuNTI1djEuMTVhMS4yOTEsMS4yOTEsMCwwLDAsLjM2OS45MjIsMS4yNDIsMS4yNDIsMCwwLDAsLjk0LjRoMi42MjVhMS4yNDQsMS4yNDQsMCwwLDAsLjk0My0uMzg5LDEuMywxLjMsMCwwLDAsLjM2OS0uOTIydi0xLjE1bDEuMTktLjUyNS44MjEuODYxYTEuMjY4LDEuMjY4LDAsMCwwLC45NDMuMzcsMS4yMjYsMS4yMjYsMCwwLDAsLjktLjM3bDEuODg3LTEuOWExLjMzOSwxLjMzOSwwLDAsMCwwLTEuODQ2bC0uODE5LS44MjEuNS0xLjE4M0gzOC43YTEuMjQ0LDEuMjQ0LDAsMCwwLC45NDMtLjM4OEExLjI5MywxLjI5MywwLDAsMCw0MCwzMC4zMTNWMjcuNjg4QTEuMjYzLDEuMjYzLDAsMCwwLDM4Ljc4NywyNi4zNzVabS0uNTM4LDMuNUgzNi4zMjRMMzQuOTcsMzMuMjE0bDEuMzQ0LDEuMzQ0LTEuMjUsMS4yNDktMS40MjQtMS41LTMuMjY2LDEuNTE0VjM3Ljc1aC0xLjc1VjM1LjgyNWwtMy4yNTgtMS41MTktMS40MzEsMS41LTEuMjUtMS4yNTEsMS4zNDQtMS4zNDQtMS4yLTMuMzM5SDIwLjc1di0xLjc1aDIuMDgybDEuMi0zLjMzOS0xLjM0Mi0xLjM0NCwxLjI1Ny0xLjI1NiwxLjM0NywxLjM0NiwzLjMzNS0xLjJWMjAuMjVoMS43NXYyLjA3NGwzLjM0MSwxLjIsMS4zNDItMS4zNDIsMS4yNTcsMS4yNTZMMzQuOTg1LDI0LjgybDEuMzM5LDMuMzA1aDEuOTI1WiIvPjxwYXRoIGNsYXNzPSJjbHMtMyIgZD0iTTMzLjUxLDI4LjZsLTUuODY5LTMuMDI1YS42NTguNjU4LDAsMCwwLS4yOTItLjA3NC41MjcuNTI3LDAsMCwwLS4zODQuMTY1LjU3MS41NzEsMCwwLDAtLjE2NC40MTh2NS44NzFhLjUxNS41MTUsMCwwLDAsLjE2NC40LjU3Mi41NzIsMCwwLDAsLjM4NC4xNDUuNjQ0LjY0NCwwLDAsMCwuMjkyLS4wNzNsNS44NjktMi44NDRhLjU2Mi41NjIsMCwwLDAsMC0uOTg0WiIvPjwvc3ZnPg==" parent="1" vertex="1">
                    <mxGeometry x="829" y="429" width="48" height="48" as="geometry"/>
                </mxCell>
                <mxCell id="XRfYKmiPNdRlxdjmCls0-82" style="edgeStyle=orthogonalEdgeStyle;rounded=0;orthogonalLoop=1;jettySize=auto;html=1;entryX=1;entryY=0.5;entryDx=0;entryDy=0;fontSize=14;startArrow=classic;startFill=1;endArrow=classic;endFill=1;" parent="1" source="XRfYKmiPNdRlxdjmCls0-27" target="XRfYKmiPNdRlxdjmCls0-72" edge="1">
                    <mxGeometry relative="1" as="geometry">
                        <Array as="points">
                            <mxPoint x="310" y="596"/>
                            <mxPoint x="310" y="450"/>
                        </Array>
                    </mxGeometry>
                </mxCell>
                <mxCell id="XRfYKmiPNdRlxdjmCls0-27" value="AI API" style="rounded=0;whiteSpace=wrap;html=1;strokeWidth=2;dashed=1;fontStyle=1" parent="1" vertex="1">
                    <mxGeometry x="504" y="580" width="75" height="32" as="geometry"/>
                </mxCell>
                <mxCell id="XRfYKmiPNdRlxdjmCls0-28" value="Git Repo" style="rounded=0;whiteSpace=wrap;html=1;strokeWidth=2;dashed=1;fontStyle=1" parent="1" vertex="1">
                    <mxGeometry x="595.5" y="623" width="75" height="30" as="geometry"/>
                </mxCell>
                <mxCell id="XRfYKmiPNdRlxdjmCls0-29" value="Object Store" style="rounded=0;whiteSpace=wrap;html=1;strokeWidth=2;dashed=1;fontStyle=1" parent="1" vertex="1">
                    <mxGeometry x="502.5" y="623" width="75" height="30" as="geometry"/>
                </mxCell>
                <mxCell id="XRfYKmiPNdRlxdjmCls0-30" value="Docker Repo" style="rounded=0;whiteSpace=wrap;html=1;strokeWidth=2;dashed=1;fontStyle=1" parent="1" vertex="1">
                    <mxGeometry x="412.5" y="623" width="75" height="30" as="geometry"/>
                </mxCell>
                <mxCell id="XRfYKmiPNdRlxdjmCls0-31" value="ML Operations" style="rounded=0;whiteSpace=wrap;html=1;strokeWidth=2;dashed=1;fontStyle=1" parent="1" vertex="1">
                    <mxGeometry x="477" y="430" width="130" height="30" as="geometry"/>
                </mxCell>
                <mxCell id="XRfYKmiPNdRlxdjmCls0-32" value="AI API Connector" style="rounded=0;whiteSpace=wrap;html=1;strokeWidth=2;dashed=1;fontStyle=1" parent="1" vertex="1">
                    <mxGeometry x="477" y="470" width="130" height="30" as="geometry"/>
                </mxCell>
                <mxCell id="XRfYKmiPNdRlxdjmCls0-33" style="edgeStyle=orthogonalEdgeStyle;rounded=0;orthogonalLoop=1;jettySize=auto;html=1;entryX=1;entryY=0.5;entryDx=0;entryDy=0;startArrow=classic;startFill=1;endArrow=classic;endFill=1;" parent="1" source="XRfYKmiPNdRlxdjmCls0-5" target="XRfYKmiPNdRlxdjmCls0-27" edge="1">
                    <mxGeometry relative="1" as="geometry"/>
                </mxCell>
                <mxCell id="XRfYKmiPNdRlxdjmCls0-63" value="" style="shape=image;verticalLabelPosition=bottom;labelBackgroundColor=default;verticalAlign=top;aspect=fixed;imageAspect=0;image=data:image/png,iVBORw0KGgoAAAANSUhEUgAAAIgAAAAsCAYAAAC+N/CqAAAAAXNSR0IArs4c6QAAAIRlWElmTU0AKgAAAAgABQESAAMAAAABAAEAAAEaAAUAAAABAAAASgEbAAUAAAABAAAAUgEoAAMAAAABAAIAAIdpAAQAAAABAAAAWgAAAAAAAACQAAAAAQAAAJAAAAABAAOgAQADAAAAAQABAACgAgAEAAAAAQAAAIigAwAEAAAAAQAAACwAAAAACXHY6wAAAAlwSFlzAAAWJQAAFiUBSVIk8AAAEChJREFUeAHtnAlwVdUZx+/bspAAgbDKJrFGDIIwWrEDWCu41mKtBdtSCw6IlcUJO+IoQW3Zd4UpVhERRZiiVWvtTJEpVNmCIEhkCUtQEohAQiBkJa+//+Xd5315eSR5bSXEd2dOzrnnfN93zvm+//nOdl8MI/JENBDRQEQDEQ1ENBDRQEQDEQ1ENBDRQEQDl1MDq1evdtWmfkdtiL8PtP3793etWbPmQn3q67BhwzwJCQlTKyoqfku/4gkrZ8+e/SSxt7p+uisTFDyYlBzvdq4oveB1h4Mej8tw5xd5n1r4/qGPHOuNbU5n5Rpq9k7Lo8sqjCHP32FsqY5j4sSJvaCZTyh3Op3u4uLipfPmzVsaii81NfWnDRo0SLvA43A4vOXl5WNQ2KaxY8cOdLvdryOvCBl9FixYUG3doeqoS/mNGjVa73K5eqIbgy6X0rYOhGrBoT4EAaT8gjfG6/R2L6nwesIBSJTLabgc3sZ7DMPRucLoWl4eXIcqru5xRyOg3ER7daQGI6MRhr6Jzpu0Ho9n+KhRo5YvWrSopDKz1+t1TJgwYWRJScnNKkNpFfA29NH14d2JMuMAza3kXfEAGTNmzBMxMTE96Y9BmJyVlTWnQ4cOCeinEfmP0PdhdPmB6dOnH/HpICAKAkhA6WV8CQecVnMBQZfY2Nired9n5Vkx3qMFALoLpQhYZjaxWV1paWkq+XuJC44ePfqyxXMlx+jiRz5wGLNmzZoBINTpXIAzBi86h74aRUVFIbtYZwESssWXKKDzBShE00xTjP4MpJpzAx6mkBnR0dFOppDPKUgm4KsuPsePHy9s1arVAr2xmJNn8ZWYkWPw4MHRrVu3bohC48jJP3/+fOHSpUvLSDsYkVGiwmuVpqWluQBYbPv27S+QPq98HpMmMTExDv54AFxA3nnK5fIDHq2DmjdvDklsoqYE2pHPlFkMkX9agE+Td9S5c+ca4fFi6Hdefn5+sa89hsr37Nnj0EDQQ3nZ1KlTDdoZTRvKCgoKysvKyjRI1E+3L1/tLTcZfH/CXCHYRdSNNAowMH4e8VxiTR0D8Rat7a0bPXp0G5Q5SFMRehkFTcCKvm3btv2Zr79u2LBh9siRI6+1eOGLHT9+/KuAJ5PReByAHcYLncCIW6hD7rpNXFzcAcJeaO8EOJsxwglAuAGFxxAawL+UEbu/sLDwBG3MUgxQMlj3PEs9fiROnjy5dVJS0ke0IYc6jhCyAUoOdXSztacNdawhHMG4OfQlC5knmjRpsk3rKNHl5eXdl5ycfJw+PiQg8LipL4s2ZIoPPUyV90AXzqioqA20PROwDReh/ak3APF1yiOAYJgSjX6A8oS9s7w/QrlG08eNGzfeRuyxl8MTw3sz4qYYxgQPhmkE3wEUPRhwXEX5KeIv4D1NuJYy9BvlUhmGaAfvO9B2JS6hzGAUV2CQDbwPxRhtMGY+8QHez8NzDfVMBTyzrHYgYzM0fQViDLiReDfy4jBoA9EAyKsFHJK/oP6mhGzoM5FXAe2NGPoNQPp70VLWgGANAgfpWAWKJCuKtGg0WGIJog3Qh2TUN4A4WHy6UOgMlG+g1IcYvf5pFCU+SvBC8yojrLEUUN3D6J0MjQwr0iGM/KQ5c+Z0wRhJGPMejG9NIQayqdJVAkBvYbQmY+CfM83MBCg30SbxpyKnPfzJKifvHbWT8rEYtTPLgu54p/YAToYbPnfu3NsILPTLr2NBmSEBlM9EhpvyItpwG1NFEjsw1SWPtw+5BvzToNlJ3Jz4LwBKrGWkO1CehBdpC+8zqoe6ya7oSX5HZLwoQvvjV54980pOM0V46OybKHQCSkxBgV3ozw5c790oIxllF6Oc9zFknMBSXV9R3mM+mrUYYplFz5pAK7tP9I7sRMXIk8tOnT9//k69a2qinoEASaM0A2D4DcBa5Ru8wdMA8EHRQjcKuj/SZnkOyRoBYLbQnyOA/JBoeBzIeUA0lC8FPJuVybpDUQ6e6Dfkb4cmAVBcB9862uA/04mPjy+iDybSla/26qHN52mP1kRBT33zIGYHOb/Yh7J3oXStRcxFJwVLpBCUsTCUMuzaAUjecePGtQBUTSWHZ6O9vKo0hpPS2eFffJCRCH+0vAf5f7PyrZjDqwOAQVODPEYy7T6K91mgkQ19D4z8OQ5qG0C6XTwY9RraEqX2wGOC0JKlmLqyiAp9AOpoL1N6ypQp/gGBfH+6Mp39vV4CRB1ESeNQgoGSezPCB6G8q5laylj8PW9XQKg0RvACshjJ0IO8i4lQDL586MwRWpmM/CBdsz5RHlWYos3dDF4mFdA8Sv4uQBCFN+iKF1mPN7mf6cUvFtAFtQc+rTPMeig35fkZwkwENTpMOXWOjSlgIyM4Xe4dA/yJtAyxFrd7riaNhdapEQ1/KbzyRLfXhM9Og0Hz4NXcr2xzKrGXsz65ERotXNRGv4fivOK1M2fO3EzeD6Ev0TIHmlEcZmUCmnJ5HJ4edllKA44u8MQSLlCvuWapTGO9Q+sHGG2oEtSirXdrEEsBilHCIpT1GgqNltvGg7xmL69JGv5lhMcJ/ZhynkbGcrawHDnkN0OxDzBqV4SSw3xfyMh/nfWQFqdJeLI/YOiX2E4WsB7Qwncu8gQOgWAB5SkA8ceA8l2mn2+Q+wW0MnR3aE2DQruWMIAwlDXHOvg+hqeMOn4A3Sq1hfcs5O5VOtSDRz2rMgEF2beyW8snz83AOm3nqW8eJGBepeMfSvkozEDpuXT+I3vnUY75SnkAn50GAz3F+zHkKPsFFpX7ycsGcBnwTacOc4tg57GnWUiOpu6NvrqeQs4BdhHZ8GoN0QuQibz/4sWLz7H+aMz7YkLm2bNnc9gxnYSvO/Ra5C7xyR0N7znkuHhfxbY2C/qvedeCtQWhHNp7JE/05FfZN+R+IE9E0GHaCmQcA7yPi8f+1FmAVNkre8sD02fo5FY6uB2l+lftzOcnUcBcOr8TRY2ys0BbBs8WBs0maMwVPEo7BZ12ATtw0Tq5NJYsWZKH4a4hT9vVXWQVwifQZUGzirgA/lLkmbLgDzq3ZrroA00a/J9Rx1l4yohlkLWApxee5n3VxXopB5maanIp03a9gGg9YOkHuN8RzcyZM7Opoy3teZGyDOQUQafT1kzSy+FPYoo6IFo90GVRrjul7dCYefpDnbm0aRh1fslrIW3LpzzHT+BLfMvhyzjdr2PXBI8z/dyF8C7r4j1OI6+4YuDj7x16+4Z1RgmDVEiv9eNhYJUUG32fu8tYVwNmB2sLsy/EledTs6yKfIM8c4AQC48Kl5Jj0qekpJj18EmAQVBdJpZtsirX72++aMSfkZHhYIHqtfNbRBjZMWDAAGfnzp1NGmIvfFXKrKk8jthD6cbQsb5VV1XtCQJIYb/rrvK4yycVXQhedVuduFQc7XK4iyuMl+d3O7jD6GXMMyrCAwhLKA+An5PW19h/qfoiZf9fDQQBxKwuLTxw+JuaplHFjivtvzypRQ4NNEeoX3Yk8Z1qIBggy052Mpo2fcsoKvHU2rxyhLHRbuP0qfHeuOYfGonGLmSEZ2AHt6xFxu8c9xqbvlONRCoL0EDwNtfpZD9Y2tkoK/KwBA4grvZFuwK2k4bDFW/0h/qfXKeH+cGQ7xLevKCqtt4qCPgoqCFbUBfbRV2YnWV+9S9eqyCPZIXQQIhdDMCoJTZM+SagYAxrWRqihWFkA46rWOEf1K6AHUhuu3btfh2GmAgLGggBkCtbN2zt7mD7qJvMGGIP2zx9OBQO5K9sRfwPWl8vAYJexgEKqecwsVZGfSZNmpSgjMhTOw0Er0Fqx1/nqLnxvJmDsRvVMNYgQzkA+isgiefoeRJZE+0N1tdgHFFfi5ep8pwBD+Tq1KnTjn379qVwPuHhYOnMwoUL/YdQOoegjhv4vECXal9xd3OCL+Ibc+CUTH3yWLs5cW0O7y3w5nJwt0H16yMk2tgZuuspK4V3Nxdy+5BnHs7Z23i50/XOgwCGFzCG7l0O8l3Gxxj/HxhBl12p3KXoW1L/A3h+ggG3EqdbAbp0ZGxV4L5ky5EjR/TF/EYMuo01zSI/88WEgPEhvNsI5vevAOY26LZyJL8FvgmQfYGsNcQviwUA9+bofC9lnyDzFQC6Avp0ToC3A5zmoqlLT70CCJdXrTBUD4ymI+bnpGgM8SxBAJExA25Uyc9iEbua4+mVvqCLva3QOSlz4hmGTZs27RQA0yNZQZ5G+arPeqAxaZHrpc405OUQdHyeDTiSAMQGCFoTtiP/MS7bxsJ/nPIUAPOmJaeuxPVqikHRfVB8AiM2Dw9ifqCDW89gV7MTI3UDPNrNvGEpnzuLz0g/bL1rekDGMfh1ibWW8j+fPHkyxionrnKhCyh0K2ojM29UhZR/AYD7W7RocT47O1tb7lV4GIF1A96pD1OK+QU5U91neJX1COgLiLpw77I7QNhlfKlXAMFQk33GSueL80IMEMXPFLz79+9/i/xuGP9eDNC08pW29K+fJ2LQ9YAjDnDsx4APw+PF7QdavobGwhsY3Pousm5VYatgirtb4MNbHeJTyAdpC1WYt62xTIX6llRX9b2hjQCkhnquMRnK7o1RUnDtmgp6cwN6HIM7MITeXRrhGECjWlPPyMqCWSTOpqw7BtLNsH90V6arzTv1Hbbo2UU1AaACn9oxmDoGW2WKKdNtrkH7W9rzL3e63ngQFD5B7ptY7p6LPodCgH597n0IXmGy/btUPtQZBrielJEw0HA8zNcBjN++BHgTFrBGy5YtQ67jkOdvwMGDB4v5yaPZPrzFYkR++q3YiynA46LNmvbqzFMvAKLVP+uLW2VgwsoePXoMSk9P9x/T5+bmljVr1uwRRu5SjAAWou/BAqtlBcDRAd55Ag/AehZwBCwU9Ss0vFERZY2QnWK3HD9U0i/fWtnzQqU56i9iEX0YOR2hiWJttDIUbV3KDw0QjRU//utSk4PbgsHvRPHNCGr1PL6n0L3LWTsl65FX2ErOwMhNWCQOomy13D7rgU3kCUz6QdRXAGagxYc30qWBALOR9C8BUgc+IZzOKF8jYDAlvESVmrYslkvG0L1C3dqGD2E9oh9QvY3cb6hfAL8d5kIWxksuKeQ7LqzaPco166NpxeEEdoS+fjjMlN7CCTVUBop/ASXrs/+jeAL/QZadHYDoN6jvadoh3Cdw4OpfwkCtxcuTyBZ0GUZ/wwqcZSzna7D2eJCh1FHgq2MigExnEfsBgNIXaCck03qg49VhTiVWnhXDMw1QfApIRDMO+TpbOaKYvFnktbFo60oc7EFKy04YDbxpFz/0+bbjNWswii4t1qjbZUzlmr+nMYV01SCsTmCJ4THKjEPVkY0YMSIRI78FHTvbkkz72qIyL4CYwzRzCCO6MVQnDLIGo3/Ju7a1ZrDzAADtbE7zw6QzbJWvp+xXvCcjpxi+f7OwfZdt7HDSCTK8eAHpXsqfV5q8bMXWI5CS7on3+BmAuBu69rRB/5/kGPFm1j9/t2gjcUQDEQ1ENBDRQEQDEQ1ENPB91sB/ALMnd1y6g1ArAAAAAElFTkSuQmCC;" parent="1" vertex="1">
                    <mxGeometry x="23.84" y="329" width="92.73" height="30" as="geometry"/>
                </mxCell>
                <mxCell id="XRfYKmiPNdRlxdjmCls0-74" value="" style="shape=image;verticalLabelPosition=bottom;labelBackgroundColor=default;verticalAlign=top;aspect=fixed;imageAspect=0;image=data:image/png,iVBORw0KGgoAAAANSUhEUgAAACQAAAAkCAYAAADhAJiYAAAAAXNSR0IArs4c6QAAAIRlWElmTU0AKgAAAAgABQESAAMAAAABAAEAAAEaAAUAAAABAAAASgEbAAUAAAABAAAAUgEoAAMAAAABAAIAAIdpAAQAAAABAAAAWgAAAAAAAACQAAAAAQAAAJAAAAABAAOgAQADAAAAAQABAACgAgAEAAAAAQAAACSgAwAEAAAAAQAAACQAAAAAODYCaQAAAAlwSFlzAAAWJQAAFiUBSVIk8AAAApxJREFUWAntlS2M1EAUx6coHOZIAMUlCMRCCB+OZKcKewoNAkFAQEDgts0hScBhEASDPXeKtKcxkEMgLjlFzpw9th/bDu+97pvOdPu1zTo6yex8vPf+79c3064QYxsrMFZgrEB9BbbeH3vY663tu+vEOu1ShZVAHDGjlRL+6cttr08c+qwbe65L2BJEZ0dMu2Isu+kPD0V6loO9aK3QCowQ4emLbdeW6F5tfTgOwEtqz5YqNwJtCoYh+kLVHhnASDia4s6wIjwVTweN1fji+GRVa6VCSxgscdmUcOEih+XGsFkfbQuoT8AwlDKqK4c+si7HN8FEvt6fyFLanrXZdg/vSu/7LYqlSkPFrWhHBJQfNqlCnTDfbnpJnM3SSIk0ysXiTLifnvwOWfTV/kThftHB9ri0vT28EyTzTJJtnvvvHvzyMK4pZ1EhIGRxGit3Jo2zaTqHhNAT7MlCsj9UxmOYhKAW+mXY/XnbM2AQWNsaKjXjIws5wQ33krj/8KpOiPsxJEqgOphwEefsSmMcqSnuIygCmy1L8pAfhKFNO+bBfLopcUBAy49diMYLF8/jQc52/iiPHRdnykdBhvny7Ejb0ijzKSnYsalcHNAEfrx7P8I0BiiwUfzf3Gcb6UMezLeECvEvie6QdjpRgVBC8hrA3L3LTsjrRx+vyc9Pj/Sa93FEG4519udfr8soEoLvFsOgPzVHhJDHxXkVSAKQfZ8qUIXC8N+dE7WSY++Kozn4DlEGqgYAWOkAkESszWGLOhg8BVNNk5mbTYHm8Zn+feZ9NWuBMEFfgU3CoFYjEBo3AbWuhnWHEMJsTXfK9Omcr/mStAJhshUoeEU7IUwH03+TbyyWHrr9STATt8zxu0NH1+IzmsYKjBX4byvwD/Doll1IDWe0AAAAAElFTkSuQmCC;" parent="1" vertex="1">
                    <mxGeometry x="212" y="329" width="30" height="30" as="geometry"/>
                </mxCell>
                <mxCell id="XRfYKmiPNdRlxdjmCls0-79" value="REST" style="rounded=1;whiteSpace=wrap;html=1;strokeWidth=1;fontSize=14;arcSize=50;fillColor=#616161;fontColor=#FFFFFF;strokeColor=#000000;fontStyle=1" parent="1" vertex="1">
                    <mxGeometry x="276" y="504" width="70" height="26" as="geometry"/>
                </mxCell>
                <mxCell id="XRfYKmiPNdRlxdjmCls0-88" style="edgeStyle=orthogonalEdgeStyle;rounded=0;orthogonalLoop=1;jettySize=auto;html=1;fontSize=14;startArrow=classic;startFill=1;endArrow=classic;endFill=1;entryX=1;entryY=0.5;entryDx=0;entryDy=0;exitX=0.5;exitY=1;exitDx=0;exitDy=0;" parent="1" source="XRfYKmiPNdRlxdjmCls0-68" target="XRfYKmiPNdRlxdjmCls0-31" edge="1">
                    <mxGeometry relative="1" as="geometry">
                        <mxPoint x="592" y="310" as="sourcePoint"/>
                        <mxPoint x="549" y="430" as="targetPoint"/>
                    </mxGeometry>
                </mxCell>
                <mxCell id="XRfYKmiPNdRlxdjmCls0-76" value="" style="shape=image;verticalLabelPosition=bottom;labelBackgroundColor=default;verticalAlign=top;aspect=fixed;imageAspect=0;image=data:image/png,iVBORw0KGgoAAAANSUhEUgAAAEQAAABECAYAAAA4E5OyAAAAAXNSR0IArs4c6QAAAIRlWElmTU0AKgAAAAgABQESAAMAAAABAAEAAAEaAAUAAAABAAAASgEbAAUAAAABAAAAUgEoAAMAAAABAAIAAIdpAAQAAAABAAAAWgAAAAAAAACQAAAAAQAAAJAAAAABAAOgAQADAAAAAQABAACgAgAEAAAAAQAAAESgAwAEAAAAAQAAAEQAAAAA0uEiKgAAAAlwSFlzAAAWJQAAFiUBSVIk8AAADhFJREFUeAHtW3lwFOUS72xukBsxJlwJh4CcKiAeyCEeUCivAAUFH3iB8KDQUimlng8EOeQSD64CigIVBaQKBVRQUBCQ0+IwCAKCcl8BQmCT7G6//rU16+xkdnd2N0H/SFdtZr6r55ue/vpOHAtQKfgp4PLfld4oBUoJYmGEUoKUEsRCAUuzlEMsBEmwtP9xzd9//50OHjxIycnJ1LRpUypXrlzJ7hFq958IBQUF/OSTT8Ik8P/i4+P5008/LdHtUolijwH5I488ws2bN+ctW7YwiHPp0iX+8MMPWTiF58yZEwPm0Ev/kQT58ssvuUKFCpyfn19k94sWLeLExEQ+ffp0kbHi6CgWofrVV1/R6NGjadu2bcVyvt9//30SDqGkpKQi+Hr16kUul4v27NlTZKw4OmImyMSJE+nhhx+mjz76iNq0aUN79+6NeV8XLlygG2+8MSieSpUqUV5eXtDxmAZiYTO3283Vq1fn2bNnK5rXX3+dn3vuuaAod+/ezfPmzeMFCxawaA7beZhTrVo1bteune34H3/8oUL2p59+sh2PtTMmGeLxeFTwPfXUU5ybm8sPPPAAC5vzO++8wzk5Of694by3bdtWX0S+LlesWJGF7RnrIDABuE6ePFnnPPvssyzqlZcvX+7HgZurV68yhG2zZs0C+ouzERNBsBF86VtvvZXj4uL4oYce4lWrVnHr1q31hfBi+/fv1y/er18/FpuCCwsLVVj+/PPPLEdMCfrDDz9w/fr1OSsrizdt2qTvt3r1aiXOfffdx2PHjuVXXnlFx/GsixcvFicNAnDFTBADm8/nM271+t133/Ftt92mL/Xoo48GjJkbtWvX1jngFiucOXOG+/fvz5mZmdykSRMeP348W59jXRNru9gIYrcRvBA4Z/369XbD2gdOqFmzZtBxDJQ0EcwPj1nLhJLoJ06cAMHplltuCTqtQYMGhHmhQIgaMAyccsxIuIfq1q1LNWrUoM6dO9OSJUtI5EzA3EgbJUqQsmXL6n7kzAfd15UrVyglJSVgfNasWdSlSxcSIyygHw0R5NSxY0e6//77STQczZ8/n5YtW0ZyLOmll16iOnXq0KFDh4qsc9xhZpdI7iEcX3zxRU5NTdUf7tFnhZtvvlmForXfaA8aNIj79u1rNFmIoVbqY489prLFUOnGhAcffJAbNmzIZ8+eNboCrsAFLXb+/PmAfqeNqGXI0KFD+aabbmL5GvrDPfqs8OOPP+qLGdrDPD5jxgw1ww8cOODvbtmyJX/99dfaFqOPW7VqxbB3AJ9//rlqLKj7UNCjRw/u06dPqClBx6IiCHwMqMm5c+f6EcPgQp+d/zFt2jQlyuOPP66O2cyZM7lbt25cvnx5Xrx4sR8HboYMGaJG2YYNG1jkC4vFygkJCarK09LSWMz6gPl2DTHr9XnRcElUBMEXuuOOO/iFF17w7wesf/vttwfVCGDxV199Ve0O2BswvGB1WuHy5css8oPh6vfu3VsJjD5xDfQlt2/fbl1SpA0j8YYbbuAvvviiyFi4jqgIAqSwM+CK46vjh3Nbq1Yt7t69O586dSrcczmRUlQdn3ef4iOX9/GR3F/4vPtk0HWwdkUw8r59+4LOMQbApdgPiBgpRB0xEwuS5AvTpEmTQFQSOaDeqVirVK9ePfrmm29Izr+tcPeQm3pMa0njT/cm1zoPedhLUKwuiqeqKenUqXov6p71H0qJL+Nfb0TKoKKhqkOBxE5I5A6J0Rdqmu1YHChoOxJDp/gyJFqHRMiS+CckMkCxebmQFh2cSssOTydvYj7FeaXfh6G/7AyfEMftzaMKSVWoR9YQ6pk1lFxxf1oHULUgtgjjkLuTo0Jy3AgqPVIoEYJgE3Js6J577tFNwYjKqpNJw7d0o3052yjBlehon4W+AmpepS2NbvkJLVm8lBALASDuIjLMFoeofqpSpQqJ4KYnnnjCdk6ozogJImqUVqxYoUdEBB9JmI9EY6g1CmYzW5VylumNN96gWTNnU7+VrelA7g5KcgUaYaE2hzEP5VMNX2Na2mcvzZs/V4/p4MGDaerUqSQaibAHAyTSRuITqeEGo868F2NOuKtjguBcisCkb7/9lsTRorvvvpvwwmvWrKHjx4/TsGHDaMqUKbbPm7trFK08M1uOR3SGsS/OS/+uP4L+VXuw4hf/h0SQE/bUvn17EuOQNm/erO0RI0bQqFGjbPfhpNMRQRDBwtmFyTxhwgQS7zMAt6hCEkOIqlatSuLIaYjPmFDgyaUZa+qR11todEV1TUhIpUGdDlFCfLKuF1VMW7duJQkoEY6J2EB6jODXxAKOCALnDBpj4cKFIZ8F6d+1a1dCWNGADdn/o80HxlJSQmz5lHzPZWrfeBK1qjvMQF0i17AEkTyIfv1z586RRMJDbmLXrl3UokULlS/wQgGzVtelq/nn5DxHd1yMB0L7VChTi57puNvoKpFr2F0uXbqUxCINSwzsTkJ7qvsNL/VqwWm64j4lxPhL8EX7Fi7BcenqUbpWeMEWBYLO48aN06ODIz18+HCSMKbt3FCdYQ0zGFwDBgwIhSNgrEOHDnq0YBglls2hys2F5r7iMXV8YsdcyTtLqRUrBzwTMRBxCjXdCRsI6QvYP5ArSIOG42wzsrAEgcCyxivMCKz3mHvs2DFVzRlpBfTfZgVUUFhgtr2sS5y1habJkqZp0aghuQsqa2AIKh8/5GjKlClDEO4GwIjr2bOnBpEQL3EKYQkC8xeGFYwsJyBuvh4xfKH8aydo46oa5FLNECOXiDHrLvTS1m3ZdP5CoQaBsrOz1QzAsV63bl2R7cFaNswDJMudQFiCSECGJOpN4qkGqFM75OAMCNb33ntPh5NT0ym5TDoVuk8Lh8QmR5g9lFI2i9IzGsiP1BaCQQhA5Mwuy2cQwev16jwnf8IKVUk8EUKAEtMIiw+CDE4fvooBabWeJq8nNhsEuLwSOszIHGigDbgifAjL1QqIsUK24Dg5hbBqF4gkA69pShBl4MCBJMnmAPywGCVvQhLsocOHD1Plyn8JPa84aptXZhD73AFrIm24EspTm87HhUsDnw08EhpQmSKRMj2u2B/28vbbb6sJgDirU3BEECADUST7pi8LX+Lee+8lybYRPEs4UvBj4Jrb5WSvZY+kgr1iToflR/ttx4n4SWo2kVLqv2w/QXolAKX2Esx6gASr6OOPP1ZNox0O/zgmCPBBlSIzDycK/gscKwkKKaHgQ8C3MVx96/OzF9ahGimHySfCMRKAkFu+lajDy2cprVrVsEthj0geJ+pKo4gIYuwG3GCEUeBRSkJKCQOBapeD2SMVAc2bNqGdczKodtnjJHEgZyCyMKlmF2o54CRVq1qe1q4tqkmcIXI+KyomBhFQo4Ef7pF/wQ9GnB30FcevX/9nqNnTxyix6Rji+HIkNtafxVLWBRIwwhgnVKKkFhMptc0K2rl9kxzHkxrfgD8F4w8lEXgmYh8ox/jss8+smKJry5eOGUStaTxVPOEiuF577TUWoRbQ7/Pk8ZXs0ZyzoibnLiO+tNjFOZ/IT64XV2Zy3i8T2Of9M/VgLERyHCQUjcF4jqh4rQb47bffGGUYiMwj2W6kLIx1kV6jDjJbHySpRN0Q0hFILchZZolR6EvY5WSM9fUy03jL+sXsyd3PXrd98glz77zzTi23CJZaQAQfUX/xtg3UUV0dE+TIkSNa6mC3IWTshI01sS0ql8V81zoR5FTefPPNoBvDOnx1lEyEApRDiPccaoqOiUeuuZ4PPvgg7NxgExwRRM6tviSyaMh3gH3NIGFCFmHqrwq6du0aS85VXzZYyhHrRVMp4ULNQY4F6Q5rQsv8fPO92B6aMIv26DgiCIhg5DiQO0W5pPgR/sIVfOVff/3VvC+9x9znn3++SD8ItmPHDhZ7RgmC/C1kAmSRFTZu3KiENVckWeeY2yAgqpPsONk8L9i9Iy0DYwuRblikyKzLC2k4ESFDhBZxNVunhnhHlA1BaTPAcELwqFOnTlq6AAcMViXsGVQeWlMHiGkgZiqJJzOaoPfy8dRUxx6jgmCUMvcjWybqTb8UMu9GAQtKpMSRU5ZG0tsKSG9K6sDfLapRcbz11lv+PuMGmTnUjiHNia8MgEzAcURaM1yC28CDK44Y8EUDjo4MEINlxU9hsLsVxL/R8inzpiUary9vVBuiYA4FtyBKMMCREc7R1CiOGkotIJvkS/POnTuDLQvoR7USBLtB1IBBBw3HBAmFS9hcyxagXVCfjopD2AWSlvAvGzlyJEvQxt8OdgONA46QQn9eu3atToPKRQGfE0DBH3LN0UKxEAQPh1RHZv7dd99laCUISTNkZGRojaq5z+4eXIY61enTp/uHUasGIqHWPRTgA2BeLFWKxUaQUBuFzBET318IE2ouxlBqgTJMM0hsQ48OrNKjR4/65RgIiGMpcV8dF+FvXhbxvSMtE5W0Ni2Cv4NAL7SUE4CzCB/FDIh1iJlOqKsXwUvCcdS4cWNKT0/3B5NPnjwZNOdrxhXqPipvNxTCYGOoGJTPRWKwBZui/QgrIPuG+AuiXXYgZd0kFUYktgZJKRdJGTg1atTIbmrkfRHzVJQL5OspS9upZzNKyRGrxjL3Xc/76yJDjBeSIJJapt9//73R5b+i1h2eMYQiZMTfBWGj7pHzXPAVY8aM0UgWAtF33XUXIYANlsfxQKQekS7kWKSyOTiSEh65bjLE/B7I2EOWiLGl//cCwYhSLMiZSJJiZpzFdf+3EKS4Nl8SeK6L2i2JjZcUzlKCWChbSpBSglgoYGmWckgpQSwUsDRLOcRCkP8DldwSe6xIs9YAAAAASUVORK5CYII=;" parent="1" vertex="1">
                    <mxGeometry x="138.46" y="405.5" width="68" height="68" as="geometry"/>
                </mxCell>
                <mxCell id="XRfYKmiPNdRlxdjmCls0-125" value="GPT Model Deployment" style="whiteSpace=wrap;html=1;strokeWidth=0;fontSize=14;fontStyle=1;strokeColor=none;fillColor=none;" parent="1" vertex="1">
                    <mxGeometry x="125.69" y="470.57000000000005" width="93.54" height="30" as="geometry"/>
                </mxCell>
                <mxCell id="XRfYKmiPNdRlxdjmCls0-72" value="&lt;div style=&quot;&quot;&gt;&lt;br&gt;&lt;/div&gt;" style="rounded=0;whiteSpace=wrap;html=1;strokeWidth=2;fontStyle=1;fontSize=14;align=left;labelPosition=center;verticalLabelPosition=middle;verticalAlign=top;fillColor=none;dashed=1;strokeColor=#3399FF;" parent="1" vertex="1">
                    <mxGeometry x="32" y="385.5" width="200" height="129" as="geometry"/>
                </mxCell>
                <mxCell id="XRfYKmiPNdRlxdjmCls0-129" value="" style="shape=image;verticalLabelPosition=bottom;labelBackgroundColor=default;verticalAlign=top;aspect=fixed;imageAspect=0;image=data:image/png,iVBORw0KGgoAAAANSUhEUgAAAEQAAABSEAYAAAC9DK53AAAMP2lDQ1BJQ0MgUHJvZmlsZQAASImVVwdYU8kWnltSIbRAKFJCb4JIDSAlhBZAehFshCRAKDEGgoodXVRw7WIBG7oqotgBsSOKhUWx98WCirIuFuzKmxTQdV/53nzf3PnvP2f+c+bcmXvvAKB5gieR5KFaAOSLC6XxYUHMUalpTNJTgAJtoAXIgMHjF0jYsbFRAJaB9u/l3XWAyNsrTnKtf/b/16ItEBbwAUBiIc4QFPDzIT4AAF7Fl0gLASDKectJhRI5hhXoSmGAEM+X4ywlrpLjDCXeo7BJjOdA3AIAWZ3Hk2YBoHEJ8swifhbU0OiF2EUsEIkB0GRC7J+fP0EAcTrEdtBGArFcn5Xxg07W3zQzBjV5vKxBrJyLopCDRQWSPN6U/zMd/7vk58kGfNjAqp4tDY+Xzxnm7WbuhEg5Voe4R5wRHQOxDsQfRAKFPcQoNVsWnqS0R435BRyYM8CA2EXAC46E2BjiUHFedJSKz8gUhXIhhisEnSwq5CZCbADxfGFBSILKZqN0QrzKF1qfKeWwVfxZnlThV+7rviw3ia3Sf50t5Kr0MY3i7MQUiKkQWxWJkqMh1oDYuSA3IVJlM6I4mxM9YCOVxcvjt4I4XigOC1LqY0WZ0tB4lX1ZfsHAfLGN2SJutArvK8xODFfmB2vh8xTxw7lgl4RidtKAjrBgVNTAXATC4BDl3LFnQnFSgkrng6QwKF45FqdK8mJV9riFMC9MzltA7F5QlKAaiycXwgWp1MczJYWxico48eIcXkSsMh58CYgCHBAMmEAGawaYAHKAqL2noQfeKXtCAQ9IQRYQAicVMzAiRdEjhtcEUAz+hEgICgbHBSl6haAI8l8HWeXVCWQqeosUI3LBE4jzQSTIg/cyxSjxoLdk8Bgyon9458HKh/HmwSrv//f8APudYUMmSsXIBjwyNQcsiSHEYGI4MZRojxvh/rgvHgWvgbC64izce2Ae3+0JTwgdhIeEa4ROwq3xohLpT1GOBJ1QP1SVi4wfc4HbQE0PPAj3g+pQGWfgRsAJd4d+2HgA9OwBWY4qbnlWmD9p/20GPzwNlR3FhYJS9CmBFLufR2o4aHgMqshz/WN+lLFmDOabM9jzs3/OD9kXwDbyZ0tsPrYfa8VOYuewI1gDYGLHsUasDTsqx4Or67FidQ14i1fEkwt1RP/wN/Bk5ZkscKl16Xb5ouwrFE6Wv6MBZ4JkilSUlV3IZMMvgpDJFfOdhzJdXVzdAJB/X5Svrzdxiu8Gwmj7zs35AwC/4/39/Ye/cxHHAdjrBbf/oe+cHQt+OtQAOHuIL5MWKTlcfiHAt4Qm3GmGwBRYAjs4H1fgCXxBIAgBESAGJIJUMA5Gnw3XuRRMAtPAbFAKysESsBKsBRvAZrAd7AL7QAM4Ak6CM+ACuASugTtw9XSBF6AXvAOfEQQhITSEjhgiZog14oi4IizEHwlBopB4JBVJR7IQMSJDpiFzkHJkGbIW2YTUIHuRQ8hJ5BzSgdxCHiDdyGvkE4qh6qguaoLaoMNQFspGI9FEdCyahU5Ei9G56CJ0NVqN7kTr0ZPoBfQa2om+QPswgKlhDMwcc8JYGAeLwdKwTEyKzcDKsAqsGqvDmuBzvoJ1Yj3YR5yI03Em7gRXcDiehPPxifgMfCG+Ft+O1+Mt+BX8Ad6LfyPQCMYER4IPgUsYRcgiTCKUEioIWwkHCafhXuoivCMSiQyiLdEL7sVUYg5xKnEhcR1xN/EEsYP4iNhHIpEMSY4kP1IMiUcqJJWS1pB2ko6TLpO6SB/IamQzsis5lJxGFpNLyBXkHeRj5Mvkp+TPFC2KNcWHEkMRUKZQFlO2UJooFyldlM9Ubaot1Y+aSM2hzqauptZRT1PvUt+oqalZqHmrxamJ1GaprVbbo3ZW7YHaR3UddQd1jvoYdZn6IvVt6ifUb6m/odFoNrRAWhqtkLaIVkM7RbtP+6BB13DW4GoINGZqVGrUa1zWeKlJ0bTWZGuO0yzWrNDcr3lRs0eLomWjxdHiac3QqtQ6pHVDq0+brj1cO0Y7X3uh9g7tc9rPdEg6NjohOgKduTqbdU7pPKJjdEs6h86nz6FvoZ+md+kSdW11ubo5uuW6u3TbdXv1dPTc9ZL1JutV6h3V62RgDBsGl5HHWMzYx7jO+KRvos/WF+ov0K/Tv6z/3mCIQaCB0KDMYLfBNYNPhkzDEMNcw6WGDYb3jHAjB6M4o0lG641OG/UM0R3iO4Q/pGzIviG3jVFjB+N446nGm43bjPtMTE3CTCQma0xOmfSYMkwDTXNMV5geM+02o5v5m4nMVpgdN3vO1GOymXnM1cwWZq+5sXm4ucx8k3m7+WcLW4skixKL3Rb3LKmWLMtMyxWWzZa9VmZWI62mWdVa3bamWLOss61XWbdav7extUmxmWfTYPPM1sCWa1tsW2t7145mF2A30a7a7qo90Z5ln2u/zv6SA+rg4ZDtUOlw0RF19HQUOa5z7BhKGOo9VDy0eugNJ3UntlORU63TA2eGc5RziXOD88thVsPShi0d1jrsm4uHS57LFpc7w3WGRwwvGd40/LWrgyvftdL1qhvNLdRtpluj2yt3R3eh+3r3mx50j5Ee8zyaPb56enlKPes8u72svNK9qrxusHRZsayFrLPeBO8g75neR7w/+nj6FPrs8/nL18k313eH77MRtiOEI7aMeORn4cfz2+TX6c/0T/ff6N8ZYB7AC6gOeBhoGSgI3Br4lG3PzmHvZL8McgmSBh0Mes/x4UznnAjGgsOCy4LbQ3RCkkLWhtwPtQjNCq0N7Q3zCJsadiKcEB4ZvjT8BteEy+fWcHsjvCKmR7REqkcmRK6NfBjlECWNahqJjowYuXzk3WjraHF0QwyI4cYsj7kXaxs7MfZwHDEuNq4y7kn88Php8a0J9ITxCTsS3iUGJS5OvJNklyRLak7WTB6TXJP8PiU4ZVlK56hho6aPupBqlCpKbUwjpSWnbU3rGx0yeuXorjEeY0rHXB9rO3by2HPjjMbljTs6XnM8b/z+dEJ6SvqO9C+8GF41ry+Dm1GV0cvn8FfxXwgCBSsE3UI/4TLh00y/zGWZz7L8spZndWcHZFdk94g4orWiVznhORty3ufG5G7L7c9LydudT85Pzz8k1hHnilsmmE6YPKFD4igplXRO9Jm4cmKvNFK6tQApGFvQWKgLf+TbZHayX2QPivyLKos+TEqetH+y9mTx5LYpDlMWTHlaHFr821R8Kn9q8zTzabOnPZjOnr5pBjIjY0bzTMuZc2d2zQqbtX02dXbu7N9LXEqWlbydkzKnaa7J3FlzH/0S9kttqUaptPTGPN95G+bj80Xz2xe4LViz4FuZoOx8uUt5RfmXhfyF538d/uvqX/sXZS5qX+y5eP0S4hLxkutLA5ZuX6a9rHjZo+Ujl9evYK4oW/F25fiV5yrcKzasoq6SrepcHbW6cY3VmiVrvqzNXnutMqhyd5Vx1YKq9+sE6y6vD1xft8FkQ/mGTxtFG29uCttUX21TXbGZuLlo85MtyVtaf2P9VrPVaGv51q/bxNs6t8dvb6nxqqnZYbxjcS1aK6vt3jlm56Vdwbsa65zqNu1m7C7fA/bI9jzfm773+r7Ifc37WfvrDlgfqDpIP1hWj9RPqe9tyG7obExt7DgUcai5ybfp4GHnw9uOmB+pPKp3dPEx6rG5x/qPFx/vOyE50XMy6+Sj5vHNd06NOnW1Ja6l/XTk6bNnQs+camW3Hj/rd/bIOZ9zh86zzjdc8LxQ3+bRdvB3j98Ptnu211/0uth4yftSU8eIjmOXAy6fvBJ85cxV7tUL16KvdVxPun7zxpgbnTcFN5/dyrv16nbR7c93Zt0l3C27p3Wv4r7x/eo/7P/Y3enZefRB8IO2hwkP7zziP3rxuODxl665T2hPKp6aPa155vrsSHdo96Xno593vZC8+NxT+qf2n1Uv7V4e+Cvwr7beUb1dr6Sv+l8vfGP4Zttb97fNfbF999/lv/v8vuyD4YftH1kfWz+lfHr6edIX0pfVX+2/Nn2L/Ha3P7+/X8KT8hS/AhisaGYmAK+3AUBLBYAOz2fU0crzn6IgyjOrAoH/hJVnREXxBKAO/r/H9cC/mxsA7NkCj19QX3MMALE0ABK9AermNlgHzmqKc6W8EOE5YGPs14z8DPBvivLM+UPcP7dAruoOfm7/BWuNfEsrqUtlAAAAOGVYSWZNTQAqAAAACAABh2kABAAAAAEAAAAaAAAAAAACoAIABAAAAAEAAABEoAMABAAAAAEAAABSAAAAAAyxg6cAACI1SURBVHgB7Z0LmKRVeeffHgYYLg4jKgwXrUazEYHAiEZHE63SxySYmDAal0yU0AVrWONyGbOut7hWoaiIZhlRV7xWR1AxTrTxFqLBKnYjjgrSXlBYkWrU6HARWuWqM/Pm//vqvN8pqrqni2FgnJ05v+fp813Od67vec+lzjlttsvsyoEt5MCYJ7MFN7te7cQ5sGgnTvuupI+QA7sEZIRM2pmd7BKQnbn0R0j7LgEZIZN2Zie7BGRnLv0R0r5LQEbIpJ3ZyS4B2ZlLf4S07xKQETJpZ3ayS0B25tIfIe2LR3Dz4DiZMTDrFFhxx/14Qbb1qDBNg2wmDbKJ7/KTbXsV4Q2GM9/zCL1uMJyeeP8bbm+/qfYQkMjgyKiagRXFPyk7ufMOmPk46Hkyi2Yg7szuKTD7SYHZtR0wu74DZj9vgvxpgtleNTCrdMDsiHFQeRbGbN8aWDZJUDc3wWysBno9WWBjddB9MhHv8n1zTOhlcl+ktpYc/wZa212DREGNzYByKDRK1NSwU+YNCsRPxsHsX2fA7LNngdnX14LZT9eB2b1XgTwZK0i+yTqrwHZ7DJg98hdgdswsmP1BG8z+uANmh9fAbFGBBK0O8icEXpeFSQJQBhfv0Sd1uRhIV++j37y/20+DRF6EQKSa6QYygxmcMnS2CWafKTD7wL1g9pXTwOzXh0J4vu3sI1aD2V89HsxePAlmj56BvnAiHTUX+fnYJOg+BGNHEZT4Nfcht7sO7hMF7tUC90bBUHSur4L76U1wX9oBL2RJ9dhtX3Afeyb0PS/KSM+nwH2vV4D73svBfbfTYdh9r2iHny9+I7j/aR3cv1wFRbddMBTvHf3Bb44G6ZWIDbbJ3zAwe8vlYHbJ1SBN8XKIj7L9sCvB7NjPgtkzpsDs6OPB7MAamC2ug9nt46C+yjiYfflyMLviUjC76XCw0owtBonkaWC2ci2YvaoNZs/ugNmvmmB2dxNyk7SPgdk+NTDbvQZ6sLVmpmjcsmbaWn/m+267SXjSFJsboFgM1MDr2uD+Vx1QTf8xDNfoJReB+x82wf3jBe63dUH+3k9zTxUUnQq4n9QE9wOeA9JET4C+eFxiwv2wGXD/vSa4H34puB/yUnA/9Mfg/sRl4H7CGnB/SwPcL2+D+y+64ENmcxfcNxd4qXE3t0H382hevXlAxh7Q1w/k45aDb66APEoJvKUK7q8ZB/eHvRD6CqSQdBXYOnB/3SS4/6QB8mfARAZuroLCSwIZGR3vN7XBy4zXVWHurIL7OQ1wX34c9MXnVhN99yl+vQo5+vP9Pgruf2zgvq4NwwIzFP9uT3CK3Gz5NjfbX0BSDdhUhZwxRzZhOIMPmgX3t06A++1tyPkSBb55AiQQyf/o48T9Jgf3UjAGNNjNDu4frIL70+8B9z3/BqRJCqP4FSp+OJ73V0AG3e97Crj/1zXgft0EKEIRT6pXS+kLjRLP5WRbmu0nIAMJ+kEb3OuFcV/8McgZv/QKkGZZA+63NiBnRVmzQjBCY8R9ZORE6hTnT4uruxrg/pk2uD+vDurUroQcD7se+u6Txlh6NrgfdTG4/0kd3F9k4P7CaVATtB7U5KwDNZ1vh2H/BgXm6cvA/QttcL+3BX0VYJ50+QM0209ABiK+zsH9CRugL8OebkIZPg3u35iA/HHUoCEBSZojmhavFJQfxnffroL739bB/eAToS/8JACDBXbIreB+cgfcpwrc/70B7r9uQxlcefHLNrh/qwruaydAgnMOuO/xQegL/2gT+f7o9eB+WYHCqYJn03XYZmZ0AWkUvYSiHm4m+GqBh8ou6uWEnid3USBREHzSb25xUEInQG1vE5RBN0LOkEO/A+7/u8D9ngp4acL/0k6CsakLpbPy4oYGuL+xDe6PXw05vEFBiPv9p0ACMQka3rZBBdQAn99EvnVTX2Eelz9rgfvfV0Cd3uWgeL0H1KQ9HHI8f68G7l9vgZrKAnkemiTZUT6bW6D3qdwKMerqfgEzuoC01OK1FBFlOxkfAZcRCoEJVT4Q8PVdcH9DBdSbvwc0H7EOcsLtXMj3IThXtSF7GuFHxpQZkJ0UV7c6uL+vC+5PGQep9jMgh2MnQ75f8lmQ4K4B909Xwf2OBsjDMCEAbWLU1yeIghjMl3Df7QlMaD5vF4Svfmkb3I9dBu6L9occvxDcv66D+48boM/RH92+eITARHwGwtEXWzSjC0jyOFR2FEwIzKYJyGGFKr2wDe5PWgnDCYyEjp0Cqin/Cu5Lbgb3M5rgvqEg+18KRCQ8vbq7Ae7/UuD+53Vw3+ds6Av/cBN9918x4f47h4NUfxU0OirI4ZZXkfGp6So1WIMiVwF1ewJQ5pNzJZO+i/iX3yUBw0m/+acqSNPVQPG9DnK8H7UMNLyvgHukX5UZPAQwwik1fBKk/rDmuh5dQELylfwiA6r3HTaG5xuq4P7KZaBO3v6QE2QnQd99ISG6fyTk5w83cH9zG9zvbECEkhMeNe86B/c1NXB/1HLI/oUgDtoHrwT3V9TA/TtVkP9d8Gwi/VGQqaCzg3SVCmboeTyIitbqqfzQhGGXo6oIb6I3GjvXIc/HDKbjhSvA/QcNiMCyXQpIEujIt+xi7qvRBSQS1u1lXEhmeBvzEGc2QSr8VZALaOxMyPdLvwNSobPg/ogm5PcHLgH381ugXnsbVHAFCjXF5xcNUJ9iAjQFvxKyP8XE5T75ft9/A2mWNaBRQYH7rxogf8NEelN4UYBlG57czbbB/eIGqI9StFXu/6MG7l+tghw3CnTRM6FBNrVA6WrdV2AGw7mxCu7HzYBGeVdBTtchF4BGYQVKTxd6YRV/I/yUrr43W7y0Lb6d6+VAADHcbBbGfffHQI54SPpuPwT11i8FzXc0wP1rFdDw8FrI3x28DtzfU4U5euspbhsa4H7aKlD4r4Tsz+5HgMK9GNw/XAX32QokT/qt6DOEpoiMTW5idNJpg/tfrgAJ5rsghxvpflwTFG4DNG9T0B9g77oUkNDMSTCjSYovznOQhrwYcni9HwPd3zQBc6TvfmqOCG90ARkQjJiS/ngVNMN4GuQI2/8CdULPBs1vTIF71ISIwLVVcD9yBeTvD3oh5NHLxirEV9mOvskZ4yABWQ0arl4E7q8fh+Fww4fQhKGZos8Q78P+XgPcX70G3B/zCsjxDYEo7dNM5Pd7fQOkuWbBvdOC4VFQGZ8QlGRHPL7qIM07Beq8ViGHc9IUuP+wBfFVn911GNmMLiDhcaph3+6C+7MnIUcwMmif3wL36GXf3IUcr+jsXtMCCchKyP4c9AroE5DKRpG/j6ubKqBfeWdAAvJacP+jDmjepA3hWnZoiJTx8wlE9KXOr4D7ijrk+EU6D/gAuP/+CnD/TzMgd4+FPvcDneLlK0HxXgHu321BXzzjMmkwGvbNXfefToBGV1Og9F4OOZzqcnC/pgru0RSXTdxARZeLLRrb4ts5Xv6yAe7vroCmnk+BHMFoG5+7DNy7DcgeRVseNfaaCdgGAtI5XWge5WkgAVkDmifoQl/4Tsh9fZn06o42aMKrAe7PNVD6ToScviVXgvoCk+D+yQL9OFjgfmUD3F86De4Hng35+7FxyPchaEdNg/u7WqBRW2o6fcDc2Qb3UwykoVdA9u/Ya0HxmAClM5rK6FQPNJkD3g/dKogFTGiO5Ox6B/c/G4ccsUUfB/ffOhw07EpNT+l7SG6yQ0C+0wUJSA2yf6NqkGhiTp8F1ajfB/c/WAbqJBaUsSgvNjbAfX0D3F8yA+osr4Icj91vAvenLgH1iVrgflMXfF5zVxXcP1sBaaBZkL9p4isEY9DeYxW4P2cNuH+uAZogbEAu8FObIAE5BXJ8j7kYlO4JkPtWr/NbNCxd91KTDJSr3sxpbM6nczzc2Ab3Swv0M/bZkCO25BxwX92BXKPCq81d8GySoJRNzGAfZMQmphSQqdOFNMjjQBpkBoabmJhJPctBAr0KcjoGC+yIi8H9YxXI0S+vokamGlrW2NJB7+IHFXD/u2lwf/TFMH+4EY+lGyEL8Je7oGUIK2B4ovHYDijdVcgTm/dXMHqxVh+nF5GF/95rYHbdJJjd+lzI3y2tgdkzHayYxXh4fm091dr3oFYsDep7sJWXsWRx1sD8c6AFOnUwu6UDZv9QYPaX14FZ4xbQYuYpMNvjGDDb+/WguHytwL67Csxefznou5NB302C3KUlhrFEMmwWHLLkMBYtP3YGzM4+D8z+8UAwmxgHs2WLQf6F+aSB/WIxaGnlOJid8FUw+9xq0Frb2yE+yvkei7HHOqB4TILcpaWc+YsFrkJSFrJvq4B68XWQ5N8IuQYc2QH3dgMW8i2/f6Aa5KYJ0IxrB9RnuAz0W8bFoBnce0DD0FdCju/iJ4GGv9Ogn/Ub4H5JFzR8NXDfdy3k72LB0NOmwH2yDdKYKX980ESnOPoCA++j6fhoF9TZNdA8x7shh2uvgb77olx1fyLk53+9DNx/VJADK9fdpPjkN1u+GlmD3DUJWoJXoNhVCmzRXqAaMAVmB8xAEfuH5s+4gZXbDy4zsO5qMLtqCagmngtmj98AZm/cF8w+cjuYndIEs17fyuy9VVDNvR20ErIOZrvdAVokvQrMXnYVmJ16OZh9qQZaclhgeZW+LjGbZ0A1Oq2G39NAmm0cpFnaYPbmI8Dsty8GOXhLgS56Zuz9oOuLCmzxWjB7wtVgtl8HkmNZnrZ5FHq7lp8veLVl+clvb3Rwf3EdssQuugPcnzUJWthSkL9b6KrUIIPD3DUHidGHuWfMgDTIaZDjF/MpL5sC9e67oM5bJa1kSxEsf1Oq9hYuDcb7xjZooVID1KleAwrn/ZDDO+TtoKn7NaCp+zYM+qbwB4fZ0ZcZcHp1F9z/Sx3cl70acnhjLwDdnwBafzIJ7t+vgMJJndSwByfeBoIburWhJ/M8+GEXtEZ0FeQILnoruD9jBtxj4qv0puXgZS86XkQntXGNUIYvgezvQR8ACUgbNKHUnnt9RXRSz6iBRjH7g/sxq0Cdyy5oqr4Knk21mBFxrxR4jKqKp3IX92HnD3tXX2+D+/OnQU3CPpDj36uZ+vFvFbh/omB4CWGRO63hghwU4Lur4P7OAk3UHQrD4S2+ELQUcw24/6wBnk23KIl8v8DVyAJy8wRoYmca+iJ2pQkN4y4G96+0IIcaCY3efUxMxYzhNRVwP6ID2d+DF4MEpAV9vy0kwYoQftoGTbVPgwTkVNA8xTi4Xz0B4Vr2wPd9b+a+jAwdqOG3tcD9VbOgX4uPBgnKMaDe//mQ07Pva0Gjj2WgfCpwj+F2GXgS3BDMzV3wIRMV59E1UDjPhhze+HrQr9pdUAUrGPJmwQcj90H2roHZoZ8CtcWHgOrJkwvs1g1g9v069OoPf8u+QdooFPfRu948DnJ3KeTvFu0L2p7QAW0PqIPe1wpKhzFa6K0N1eP3FdjmtWC2aQZK51t/kfo64cGmcVCfotnbgmkfKrCVh4HZ3z4GzKrFbxJmd7wZzD48C2bFLwkHmb3mZFC+NUG+dwqMDZpjuo/Rx+Y66H0yvYkys9V1MOv9SBlvzWZWgtmnbgSN5mqQ3496NbKA7DEOZofVQJ3SwyAHc/tLQKPDh0PeDxKdMZ8BuU+CEgW6eBIkIMsg+zd7OKiT+XPQ8LoJ+X15lTK0HL690+AhN5v3B7OH1UA7744Bs0KhfsXspFnQMPTHYPbvG8DsbeNg9qIngDqpTZBAzYCG6zWQPQ65s7lnDbTTrwtmR50BclcsLLLSdC4FsxsKJNAF5esFL0YWkNjg84RxUG/5KMj+39UFs/+7Acyu7kCfBgmnM4VoSMR79qMnwex5y8HsEReAMmg9SCGcDMrA14DZBTUwu60G0iwF0jQzoPCuA7NiVkQF8qCbNP8ydiWoAMd7m8s31SBXqPd+CjTo+D5oQ9fhoPmXDWB25Wowe/VBoFHSJGg0NAnyV7MqLv9Kk+ZfjmqC8u9ukAB+GkpXduOJoL3KM2AWo9HsYstXIwtIeHPwDJg95x5QgVwNSsDvgCaQVoBqzhhoeFkDSXaBfJkssJhA2qcJZq+rgNmFjwcNNydBGXgSmH1jPZideSJoWPhNMPtEDcx+WQPF58NgD74JQU8h+VNA4c+CmuCCHI0l46BN4DVQ03AgmO1/HGR3t14EZjfXQU1kasoGN7eXTbOxPdzsWTOgvcJXgh4UC7OkyY8CVdhLQOVRB70f0dxvAdlvBrTFsAuaV/gm5NDuvBa0y/5Q0AxmDSRAHVAGzqRd/OmTaHpiK+JzayDN4WB27ixot30xKlGN+hiYfWEWVOP+BNTWzoK2ZF4IKqBJUHjNdNxChGcucnysXmClHX2cZEf8QjMkb2zRJEjw670Z27EPQa7p8V24j4oR91HAfiXEU8X3H0F2vXeMRPTZIn6RnkU1sNI8pgnqIy4DadQmWGlurIE07ySUjxe8GF1AkkrbrQ4qsA5ogmkCdM7GcrDSbCiM2dt/Dpp4moG+GlEj6XIeGiWp0JjQObAOZr35DbOP3w7q1N0GqilToBrxecgJ37wR1ETVQOeBdEDhJBMZHip7Ux3UNk9CXwEnQSq/SzU17n85CQp3FZhtnAIV7DTIVafX2Qz3kc64R0wRVFtXEI+VYQXl9yEopYMQ4HGD0vQ2s+v4iiZIQD4K5Wu7bSVI06Z4R+c3u5j7anQBSRGKmrG0DvptoANSma8G1aingjJqDzD74VrQbxmXgJqSs0AHvNRA7lINj1FNRLNMQBKgx3fA7A3Hg2ZAjwd10qZAneZZ0Nd/XmDrXwJmf/cOMPtgE8x+VqB4FkjTzIC+axZYCGic6xECde84mF02A9qs/XxQp/JikGb7Fig9q0D+LWSigBcbZLOHwf02oVF2XwtK32chexN9otBcRQ9wJr+f72phAYm2NmpE3KeCO7QOEpRjwOyQZ4Fq4udBGfZc0DBrf1AFORXMnv9xMPtQE3QyUB36BGYmNUUpvCi43ZqgTl6B2TuPB7P3Xw068GUW5M8RoM7eLJid/n1QS3Iy6HyRDqiNngRlaBOy4ISAXt0Es/8+BmYnfhCk0aZBGuo4MElagUUF0pOH1IRG8llQ/t8BOQq7TYPypd5ruvKbLV8tLCAh6cmfaIvDvqcG0giTIJX7AsiB+oWg+zsKbOPfg4bDy8HstBeD2SsvB7NvjYMSGCo4CWLpY8eg7NPsZ6B5hRqYTR4PZuc8EcyOnAUJwkdBfaNJMDv5XjB7+WGgXn4H9BtOHay3YtI0XL0JzN49DmYbzgaNFs4G/fY0BVLpq0EfbCdz1zjoOIsOqMn7P5Ajs/cSUFeg4H4IyoJTaeFgnhnFWyZAv/LOgmby0v4S+yZodftNoBnGP4I809eLet/9n5nQ1ssauL+tBdrKWIWIhOwUj/gtI2ZoY8o6XMZM5Dcd3M+sg/tBV0JfuN81ofUZS8D9t9eC9uUUo47sbq8Twf0FBu4f6YJmltM6lL3fBZrB7cDwOpSIV9jnN0ArztZBDmfp60D+N2B4J2H500ArLQRKHsZWzqeuB83kfgOyvyesAq1VrUL6aARrYQ2ShXDOq3troPUhq0BOnlZgi/8b6FC4u0E/Rq4Gsz8tUI1bB31eFlPFZt/rgNlrrwA1Cc8CjVJqIEU0CaoBnd46h+gjhEYLzRN9iGJrq4J5WwPUFH0b1ERtADUp/xnMfnQPmP2/NaAm7zTQRPGlYPaO3UDfO2i42gTVyGmQRlsK96NmKk5zmo0GpRlssqLpiwnIcJiWr9iPxkGd7mNB+fwRkCY9DzTj2oT4amG7v3u0ZdczRbfGBjs3mzqgDO1A9sLfBupVT4OagEnQqKcFZp98J5i9pw6a51gD+ftfvx/MvligiaRLwWzVBtDP6zUw+90mqAtQA32fmiCrFehBz9wwDuqT3AiayTwOlJGLIVxpYuse0DTCEpDdALPHTkJ2d8sMSDAuAQnGwExwdrmVVyn+MT0w6Et0sn9qoAVEl4A64adAdr28AmZPaYJONmr25p2yiy1fLdry67638whIWRBTBqUZ+yhoWHsOqJdfA00M1cHsJR0w+6cKSFPMgt6vgtKb8uL240ATcHXQRNl7QaOaJ4L6DjWQ85Sxtxho5rUg9yXedAJo6nkaNPo5GTQa6oBmOvcEjbpaIMFoQu7zyMueiQJc40LvrwXZxTb/cPQA7CTo5bzRuMGQSQvPbP2TQSvMPgnZ2dMPBc1XFUijjEN+v9DV6AJSN1AvsKD0N8762tsgm01Pgzzuvn0S8vtoCsabYHb+MaAFOseA2XFNMNvzWMjf2fMLbOZw0MKaD4Om4vcCszWHgTRVsdlXo49ngH7TWQ7y70Vg1juySk3GmaBOaBWMsyaENEIN5v/tIqb4d18GaqpOgvvRxESFS1P1ZQpjpVFownCXBCTi1a6D8uuboM7zXlD6Yo94CUjjdsFseR3y+5GvFuynROc01k00+KE+fxW75xszoM7RHpA7R5ViC9sci37jZ+0B/8Lnn1bA/bwKaF3FOaDN3WdA9r+X0IXvj7kA3N8xAfNvyo7ObdjRKY54xfP1VXA/fhko3RtB2yWaMEcnNeVf+HO+gzacPQdy/JfeDOqkToCWOVQhvtKGqwboxKM1oEHAfpC/j/w4qQ73v1OaQ+pd2eCDee/TOorIoBg9xG7yC7vgvt9FkCP8sC+BVlgZaP1DZWAD1ODCnTY+98WiUazH9m+3QQe9zIBO6Hkk5HAiY8I+dCPkTdksS7qmIX8H1oNEOsqFQoPhp6hEPXmLg0ZbTZDAvhZyPI6rQ94fkz73OBIr7t9RBQnIPZC/3+/DoAVGVdBJSm1w/0ADtG7mOJD7QtPILn6mzd+vXAPazpEEOHYjlOFHfvtoRkW2gImcSQUVGVoKShpufbUCwzvQFl0GkviXghbwdHtL6CLUckHRRG8Xu7cKPPwfLNBY5HtZFdxPHAetSDscdN8B9y+1QSvJCiI02UlAyiV4AzU7XBaKr5KHm8+ogWrsUsgFEgIZ9vOmwH26C+FbXqEWT2LH3kE1kKAdAFpcfSpoY9QkaPvGWtDi6Qsgh1suNSwC1vEQddA+mhZI87RAoUV6u2nhUdqeMagZ5XJOY3M+nevhYMFV05K95PamBmhll0FOSGTcsieDzhhbC32qM0U4BGJQAAv9IX/j+WDU7qxAPuUwTiUcdBfHKsSKtvA33P3KIR/tdMIMzHHK4qkmhtN35Fpw/4cJcI8zzyLeYUd4b+iCNmq9ELJ/Y2sh30f+WbGQQ88HVo4da+D+z12Yo0JE1yAqYAhIRGQBe3QBSZLoUeMioCQokcH/XAX3Yp5pSV9CX2bC/bErQcclFPTFLjRUoTuyQJSCE8+T7RF+nxf9l+V3KWPivt8N198rkOBOgtZ6TkNfvFMNLQsq3T9iPaimd0AqvQJqQqv33WS+qQEKKKXvrgq4/80qkGaYhhze2MNA938B+XmEv+enQX2fWdAOujZog1RB1lRxP2gvlG+K6X3M6AISGqTR66RGhqO4NnfdQ2Xd0gat1TRQAt8EOaFjJ4AWFR8HWSXKh/uY0v8QiNBYyY5wS3fdXjzKmhru7+OrNE0btPi3CmoS14LiFzPAIRADWyT3ugJ0+uEs6ByOCkhTtMGzCZXeJiY+pPlmJkBbQ5ugJut9oPD/BXI+hUDsuw7cqx1wv7AKOt6hIAcb6S7zpdo74Cc0Zwho/mK0q9EFZDT/ypoSpxFWz4HhhNsbQCcSF+NV9y82QItrW7CFwLqFKJbhRBs73xd3V0B7ZBug0xInQVPpL4U54pUEZNHnQWepLQFtVi+Gwe43V2A4tBDUsiAqha716FPFF1MtkCYdh+Hwj5wCdcanQVtdKzB8Hmz4F4JxfzVDfL+Qve0FJIUYqvZLDVBNXQZ9GXKniXxfWQL5OMqvVME9ThNYKCHx/mdtUMa2e4fAxVHaj5iGHF7U0EG7WGqreP7PcXC/vgHhe7ZjVBCd3fK3oWqv5pYFlzRZTAectAZ0NNfekOOz33rQQTMtUJPR6p08lEPsXUWnPvbxhMZYqKIM+jPq/bYXkOirpBjEfpZ4vLIDOWMGCyjuH/kBcK/NgH4Ua/b+y8O5VdDRVBOgE3WqoM3NNXD/3RWg0cCTYeFwHtUEnWhcAx0XUYU5CihprlIgoglJAhFt/cYuqGlJz0OjvK0NOhnoehiO1x/WQfuKKuBqU3qDgNgeUmqo6HvF+y4i4kOaSk+2ibFt4stcnqSEhIRHxn3NwX3VClAb/BnIGTb2Usj3ITBD9nkmRnD3BRMaRhYrvTQqORs0fKxDPvo7TmUsk5I6lVHQoRFKAUl9sajJMd8QghL+TLdAw/A6KB4HQ473XheB+wUt6NOYIQCOaMik+2hKQnCKhqyi90mAcbotzbYXkKQqQjAiQ6MmReTjbLP3TYD7464FZdxA53BIMIoHOYPnez/2Ccju9joNpClmQEdStXtbKSM+pR0FMVBApaBUUPJ9o4aJNH9TetC7uNxBM6vpIJ2xm0Hx2R9yvP5iClS+FdAHrQIvm7CkqUJASsGI+MX7JNC90Lfd320vIBG3kOhoWxZIQKzbOLcBWldRAw2Xp0FNxqGgnXMHgDTPy0F7ce8C94dvAA0bPwSqqUeDCuIHoKnw80DngawF90YdtJe4CxHprbc3VMC9t+lbndtpUPjFEkjF50mQBeNJs+D+b22QwDXScDgVfAjEkGaI/Iz83fooj/TlgycgCwUfmiZqwID7u1vgfkML3K+ogCaECjQ8roJGP11wv6oC7he1QCcqvxpygQxqmrELIC9QivNVL2mDNj83QHtb1eWl0xunE8aCm3ZhdHJ0gfvTVoNGR1dAX7jFbwz5Pv6LxaVd0MRWu3e8pydTaoiKg1RLQbx+yO3tJyCR1FCpqVMXbX283lr7i23QqQM1UAHFTGQ0UekUxkHB2fvJoBVm2vH6aH131Cy4H70apNE6II12FMjfpZAFYNC/uH/mKtBMbfqJoDyEP2nW6MsMNS2hMbY2Ix7gd9tPQEKDtOilqNdfoNQkFVvepwws2+bkLmrafH2cyJfvVUAHzKRjMg+4EhYu0CjYrbX3vgG0RHEZSCO1QbFK6Y4+WXRqo5MbFSTSF+4iPQ+1vf0EJFRnjHaiqQkBSfeRUWXGDboLwUoqOTqTm9rgpbm7DarBLdB5GytAE1azoL7Nj2ErBOetJvSr7L6gw/0mQcsbWqAmqqCMhpcFnuIbAjKoQWK0sr2bmLGIeq+mbIe/gwtjYoFM2CxTqiteaQXXvDGMhUzxXfgb36V9L/F9LP28YQa0mr4OZt8+C7RCrUDbGgr01VRvxdy+s6DtHctAa27PBG0kGwedCDQJWtpXB30XJuIX8Yl4xv3gvpxm2hEY6Z9nRVl4/2DZ219AHqyUzefvoODM425zDbSibBzkKH0Xu+wXdUDP/z83O5+ApJobq+AL/VTXUsGZtFErCcK85R7vo0aHPe8HO/aLvvXcO3ZCRo59rO2cTP8JOwQmbS4PTRFNWqwBLf2PpiEEI5qI+e7LD3fMi51PQKKcokDDjuepwMt/pR59gNAc4S7ZsSU0Hsd+nWIN+ng83XHtXQISGiGVYWwmHyrS6GSGoCS7dB+aJOwhD3bMBztfH2THLKftFuvR98VstyjuCnh75sAuAdmeub8DhL1LQHaAQtqeUdwlINsz93eAsHcJyA5QSNszirsEZHvm/g4Q9n8A55CktnuIxk8AAAAASUVORK5CYII=;" parent="1" vertex="1">
                    <mxGeometry x="49.00000000000001" y="399" width="68" height="82" as="geometry"/>
                </mxCell>
                <mxCell id="XRfYKmiPNdRlxdjmCls0-124" value="Open AI" style="whiteSpace=wrap;html=1;strokeWidth=0;fontSize=14;fontStyle=1;strokeColor=none;fillColor=none;" parent="1" vertex="1">
                    <mxGeometry x="55" y="467.5" width="56" height="30" as="geometry"/>
                </mxCell>
                <mxCell id="XRfYKmiPNdRlxdjmCls0-140" value="" style="group" parent="1" vertex="1" connectable="0">
                    <mxGeometry x="622" y="200" width="70" height="98" as="geometry"/>
                </mxCell>
                <mxCell id="XRfYKmiPNdRlxdjmCls0-68" value="ML Ops&lt;br&gt;Engineer" style="rounded=0;whiteSpace=wrap;html=1;strokeWidth=2;dashed=1;fontStyle=1;verticalAlign=bottom;" parent="XRfYKmiPNdRlxdjmCls0-140" vertex="1">
                    <mxGeometry width="70" height="98" as="geometry"/>
                </mxCell>
                <mxCell id="XRfYKmiPNdRlxdjmCls0-61" value="" style="shape=image;verticalLabelPosition=bottom;labelBackgroundColor=default;verticalAlign=top;aspect=fixed;imageAspect=0;image=data:image/png,iVBORw0KGgoAAAANSUhEUgAAAFYAAABYCAYAAABvXACHAAAAAXNSR0IArs4c6QAAAERlWElmTU0AKgAAAAgAAYdpAAQAAAABAAAAGgAAAAAAA6ABAAMAAAABAAEAAKACAAQAAAABAAAAVqADAAQAAAABAAAAWAAAAACmpLCGAAAJp0lEQVR4Ae2ce4wdVR3Hz5nHfe52S21ibWFtCdB2VYouVkiqlWxDH4QCmlaaqA1KjJEYUcFIbM3V8mjBP5DGskstRCBGoJV2tQ+K2xQbDWixD0pZsSgxug1LbZvu6965d87x+2t36N273bsze8/M3LudX/LdeZ4z53zm3HN+5zHLWGQRgYhARCAiEBGICEQEIgI+EuA+xl1R1DKT0V7v+fWkpGlOlDKfLkgW7z4yS9iCWZJrfVmLn76t47cnOeOyogf5FLiqwL65bFlMXn70C5omlgkm58YN1qBzbiDvmtSE1nVgtpSCS40x25bStoQ4hWuvMqE/Z2TntN+wN1PwiZPnaEMHu/8bzQ3pSX0LdF1baTP7pvq4rlkoljkUUbuoLHIuWNfBWUzKc0mmvxr+xDSdmZrG+goFS+P8dzlhP3OmP9GxfO8LvZ5pKAwQKtg3f/jx75tGYTXyU18QUiviOCyLZ8EeAlgxcpLpiqFrQkp2SgixqmVHe+uwiAI6MXIqfUzAmS1s6cm3Z6zVrOTsnpzt6kluwDoRUabSpsF6e2MHjnQ0/+C77N4/ONeC2qK6CtZO/cbYHIuxbXlpu4bqNYVU8nvzBWbZ9ifTptzdlrp/o9c4Kr0/MLAnNtbN7t2sddbXFb6Yy1eabLfhObNYnsdZ7M6NqQf3t12SaXQbstL7AgH73q+S16cn9x21mZjZO8AYD7gCGmBZhoaxmWWNd1rrMk2VQnMT3newXU8n56XS2T0Wmng0KqEZns4kl4YmzT9vSD9wtd8J8RXsfzal50xuyO6DT5oIE6oDkeAKKRoMyQ49nshMd877sfUNbFfb1NTEhv72gXy4JbUU2lm4TDBdM7c/z57XS6+rOvYNbHxCd4dhysZqKKmlsAiuzrSmE8nOzaXXVB37Avbks+ZdaP2vG8ipSqb6eHIszxI8dmtr8icr1MeOXqHqSPe3NZuxlL2mPxt86+8lL+SY5OCMadxc6yWc23uVg51ed3hT3BSXuE1A2PeZTG/ckMw8rDodSsF2PxW/sr4+/2XyVWvFsii3JjfvWZ/KTFWZZqVg4yn7K+hV8aA7AJUCgTvITandXmk8xeGVgtV1cYcQxdHXxr6A+6Vx7WsqU6sM7PEn6+anU+JSlYkLMi6TmR9T2d1VBtZMZr+DAaWatbO9baF9W1UGlID9V2Z6wtTt+QOWqmQFH48F1wtwb86wjBImSiJJf/T4ZcmkTNVi/eq8QjRgDMOLk6YlmRLvQAlYFrM/YtvwWgIeDnSgqNhS0tHVNVCbVQ9Yg2mX5W10v2vcMF5sSK5PUZENNSWWwRsIcaxVBQiKA24XfnRimor4lIA1YmKCZ64UwHMgFVkuFweNe3El3XFaDFGxGRqvjyfAySUoHU/tS3CWy2vMdbVMRcBl/GPPEKf6DDmp3JSAtfqSW7u6C6fXb8+v/tI87dGrpvL34CGMyEzDU0/3cJnrL7uUYEjusCLGlpyvA1wlv7IhkRcdcHRviw7HvKsE7MSv9u5BCg5Dq3/+e3sTtkdGT9G7o99ScsfLS65Ye671LrlQhYcq374Tl7MNJLsE2llmFMgDXT4kUAgu0+T6NgNtONZyHcZims9judfLCb1yj09goMt1AsrcWNNgdSyGg712484XX2nZsfVGqyC/FasQLsfKujK8XF+qabCUS1vwXzq5bdm59XGrYD8arxCuE18l26DAzkIiCcBO6B6o4t8sFSwh5MGFL239K+L7wGwRX1MQIvRxtiDA1iHXHdBKiPrhjwwKG+9GrixcL7wZ8oP1FfjdDvFu47n3+zFofaLktOsHITIlTJREMkqqF+D6h6EZ0Bzox9BdkOdnY87nTFzT34KL/IRliWkLd2/pRDxDzIrFdFuKCZgjHnLe7QFCKXFBlUQySqK34Tq1tE7JWoP9ByDPkzgt27d9COEImRMXHQ4xbiRXxDQtlcVwW5gWBNgLQfAMlSCVA0rXdy9Zem2MaxtyIUOltAQBlp7jq+1YvHgCVrV8HQ3aOixoVuKHVprgmge7a+Gtc+tN/TWqHQYKCpwBRR2EmgeL3hdcN8n6VUCttJgWhffcMheFjXbLEPAD7IUaqzJJqK5LqoD4URU0AxW5RZRGcibhrLNDUI2YVNL4+QH2qRKCf8LxvJJzVXvoYU6jbB5UgqXvWj8HOT4qlVj6vqoHqhnDdGL1zHkNUqOvt/YVESSwfUXHNbBLH3/Yn1GRUFV1tYq0jCkOLsp8XOsxRmp1Eyze+FjdT+d7DDrs9poHm0/Ibul2enhY9oefyGINV9xmrVjDVVE1WfNgF7W3Hxv8vwXDKY3hDK2VZVybNSVtrBtD8A+C1DxYyonGtBfJr1NlBDcpY9/bmLr/ybb6zOSxxDsuwGYL9kMJWgWi0Prx/S2K7h3S1v82lmjHBdhFL7Uf68kXbsHkolA0F3iepeT3nj9wvzcuwFJ2F+9qb88V+DzMMnTVmzGGZU/o9mElFq55E8eovMlSLIl/nSLu/ubAqufc4zx/p8qq6Xys5/bopdFEXze0+NypYP6+svS2lZ2nTq6yBhKN+qEbDjLTcj15ideRB5Q3DMN4+M4z9x0ba4r9BvsXJOx9KFCwgzA2YEixpSDlTC+uUxNrksvZ8nDndUZ5m/TS9kC0pisMa8VD3w7jwfRMP+tY6sgcgK6EGqGLyvwESyDXQ1Ryt0A0nNgA0TPpXKlwavyYWudvOJd3ceoa6FWIGjL6J2NnIKrDCKxjVLp/Aan8WDjUj/r9BkvgaFHFFOh26HqIVsMUt9I0sNwCTYIqMSzSYNOhGdCnoKVQFrpojKqCYk3EMX0v/pBHAjHcTwPo1Ken3lE/VICo9FvQaegoFIoFUWJLM+YMhJeeL3d8KS5eATVBn4ZozHQ2REYD7G9Bz0L7odcH9Ri2i6BQLAywI2WUSptjVF1Q9XAz9FmIBkKctNIc2l7oQeiP0HGIXhaJSqtjVKJDMyexoSVg8MEEZAk0F7oWcurbf2CfGj76qR+EaFLy35AbS+GmYtBuwoyre6iOderHw9hfC1HdmYSKPQccjmjUAJI79yNoH0TxEdR3oFCsWkosAXwEus8FhctxD9W1n4CuGdw69S3Nsb0BPQNRCaf6NhSrFrAXyjzBJu9hJrQAugm6DiK3ioxKJI1D0PT6z6C90D+hqrBqAkvAqBW/GiI/lEohiX7m1LBR/foCRPVtJ/R36L9QZCMQcOpYKoEkgvg/aBd0N+T8zLFbO1YNJZa6t09DRyDyR6nBoZZ/LP4ugkUWEYgIRAQiAhGBiEBEICIQEYgIRAQiAhcHgf8DFAOY3agQCnQAAAAASUVORK5CYII=;" parent="XRfYKmiPNdRlxdjmCls0-140" vertex="1">
                    <mxGeometry x="2.5499999999999545" y="5" width="66.45" height="68" as="geometry"/>
                </mxCell>
                <mxCell id="XRfYKmiPNdRlxdjmCls0-146" value="Smart Co&lt;sub&gt;2&lt;/sub&gt;nverter" style="whiteSpace=wrap;html=1;strokeWidth=0;fontSize=32;fontStyle=1;strokeColor=none;fillColor=default;align=left;" parent="1" vertex="1">
                    <mxGeometry x="12" y="180" width="373.7" height="100" as="geometry"/>
                </mxCell>
                <mxCell id="s0rFaAMLf7Hx1bdV1saP-2" value="&lt;div style=&quot;&quot;&gt;&lt;span style=&quot;background-color: initial; font-size: 14px;&quot;&gt;&lt;font color=&quot;#084d92&quot;&gt;&lt;b&gt;Cloud Foundry&lt;/b&gt;&lt;/font&gt;&lt;/span&gt;&lt;/div&gt;&lt;div style=&quot;&quot;&gt;&lt;span style=&quot;background-color: initial; font-size: 14px;&quot;&gt;&lt;font color=&quot;#084d92&quot;&gt;&lt;b&gt;Runtime&lt;/b&gt;&lt;/font&gt;&lt;/span&gt;&lt;/div&gt;" style="text;whiteSpace=wrap;html=1;align=left;" parent="1" vertex="1">
                    <mxGeometry x="882" y="431" width="110" height="50" as="geometry"/>
                </mxCell>
                <mxCell id="s0rFaAMLf7Hx1bdV1saP-3" value="SAP Cloud Application Programming Model (CAP)" style="text;html=1;align=center;verticalAlign=middle;resizable=0;points=[];autosize=1;strokeColor=none;fillColor=none;" parent="1" vertex="1">
                    <mxGeometry x="840" y="490.57" width="290" height="30" as="geometry"/>
                </mxCell>
                <mxCell id="DbYkKETLYe-rnW8ThWG0-3" value="&lt;font color=&quot;#ffb570&quot; style=&quot;font-size: 15px;&quot;&gt;&lt;b&gt;Smart Co2nverter&lt;/b&gt;&lt;/font&gt;" style="text;html=1;strokeColor=none;fillColor=none;align=center;verticalAlign=middle;whiteSpace=wrap;rounded=0;dashed=1;dashPattern=1 1;strokeWidth=3;shadow=0;" parent="1" vertex="1">
                    <mxGeometry x="1253.71" y="400" width="140" height="30" as="geometry"/>
                </mxCell>
                <mxCell id="DbYkKETLYe-rnW8ThWG0-43" style="edgeStyle=orthogonalEdgeStyle;rounded=0;sketch=0;jumpStyle=none;orthogonalLoop=1;jettySize=auto;html=1;exitX=0;exitY=0.5;exitDx=0;exitDy=0;entryX=1;entryY=0.5;entryDx=0;entryDy=0;shadow=0;strokeColor=default;fontFamily=Helvetica;fontSize=13;fontColor=#000000;startSize=6;endSize=6;sourcePerimeterSpacing=0;targetPerimeterSpacing=0;" parent="1" source="DbYkKETLYe-rnW8ThWG0-4" target="XRfYKmiPNdRlxdjmCls0-25" edge="1">
                    <mxGeometry relative="1" as="geometry"/>
                </mxCell>
                <mxCell id="DbYkKETLYe-rnW8ThWG0-4" value="React Native&#10;Application" style="shape=image;verticalLabelPosition=bottom;labelBackgroundColor=default;verticalAlign=top;aspect=fixed;imageAspect=0;image=data:image/png,iVBORw0KGgoAAAANSUhEUgAAAEgAAAA+CAYAAACIll2bAAAAAXNSR0IArs4c6QAAAIRlWElmTU0AKgAAAAgABQESAAMAAAABAAEAAAEaAAUAAAABAAAASgEbAAUAAAABAAAAUgEoAAMAAAABAAIAAIdpAAQAAAABAAAAWgAAAAAAAACQAAAAAQAAAJAAAAABAAOgAQADAAAAAQABAACgAgAEAAAAAQAAAEigAwAEAAAAAQAAAD4AAAAA9JuyFQAAAAlwSFlzAAAWJQAAFiUBSVIk8AAAC+hJREFUeAHVXE2oZEcVruruF7II6EZGHGE66Pxk5SwCs3DxXla6U9BFXE2/t4i4Mrpx+Towi4ggEQQx4LyelREMjEtBmG4wiwEXDgjxvTHkBYworgQXg69fl99Xt071qep7+/41hFyYVN2q81P11alTp87tF2t29EyeXhwMVubAGTsx1l0zzn6E8twYe+6sm82u7813pMpEXdYcQOa+l+v1mfmuddldDPrw7GIeB1olEBNwAzfpAxSBsSs78wtQpQft1pk37t/cm24hadzVG6BG4OjhdACqKTBaza5AGmihbetHZ8sJeAoTL5gXzppXTm7sWXc5etEae4j1fJDIxfajFRydXkyT9ooX6sBkH21ajX2gdXl9sBwRg75jAivvXcteFpRZzwLAlA5o8r4bD4aX8E/uJBvoAhObzF6y51m7IY8dLmdo1wtQu30IPMEJ8irHlOureu8MUJjAhyKYK1g2UelnWTrpki3ntxStJn0qwdRkG+OCRffxe5232GCwnKwHZh/UgUNa0tBi6B8ir2y5Yrv6E8pvqUhQOF1aZ1MdYF0Iu3U4VXs8nQFy1o5FL8xwLvW6kpPkCUP/EWkBknNmenR28WYODunankjwfbMou2elM0A99RqaPbelYfzChyAZ8yMtl+D02R6FLDfWMtvWuwPkzIEoW10O51JvU/ottxoeAJ1/JXzOnfYBZ+UD1CDR2XEiu+VLd4BaKqokHy3Hxrgraf/g+fS95dtydN6So5K8O0B6lfwkK3VUdvgTZ/O08tuNsRL7K5m3dejx6HFu46no6w5QhcA2zSHOiSzO2e/EF55ug8t5Z5CioH6VHgCtg7tBh32eBZnw1XDIN0fvsIxTIkhFsBibmlTS8azH2YQ3p+kMkHW8qYfHtdsK4ZqxH9nVaeVPNw0SIumm1xKRZ9R4knFGguaVzgAZu14ZHRPVqWaUDCs5FjoGjflRzncdTDKF0uZelYxHjVN0tilHbYg1LY92mH/RpI58TVNWD+kK6Xq8Wo0KZ6wdqz+Fln8A0dfx7w5jpOC0G0XThuOxhYquIYgMMIiR1+blxp0nu4txxb0vCOYOqznA8XQHR3qPI9w+A/9jyDn3WwfWwZgnt0D4NyczYWZB6l3KXsza0ULQj7Fyzwog0ht4l4G15mFEbs3cGvdPoCMR+Sdzm6f1hPTF65jIV1pPRjPIVYNtjFmcHbPqH2wtqXYsn2DBXs8trI2sVhbE5BVyOhMo2K9VElbU07kVfIItJov2k5ujcS2/Igjb+Y9ouspmOPD34Ij/hu025jue7eMJY+mSr24EUJaEKoZU9l/nHriBTRL0eW4HK9rpAprLYbby/o3RjMPwwSSc/NANXl6Z1U/KhhbbAlgnN0aT2LalsvWYJzB0eJjU8YYMKApHMZxmeOzA39LllaU/tWID8kYdv24UfOv0LdMjIpaXXvY7t3pB2pwx7xYp33VuyPf5bevuHp4uzw/PfMZSWErLUgvyq1X29YCgGDfT+Zmw7U68dPTr7VMMwN0VzX1PlPzkBPwPtCVw0gwJqC+3MO8zCWru1zDmbV9bNgAq3U4ExpqpmLRMmGU+aNlCebsesOaX+tFf3ReMvficcXv/vn/L/kPa8zJfEJlcrq9sMUgTDpcJ5O5H2SULL33JFuOK59uJE6NVlIFDISENuhCBkuK0w8uptKFcVPEfnf3vtaOnF6dusPwYjvfPLPnOdsUfq0FOoQ/WIPryFHBkUBWfzYTfYvo2bL+iF3I477IrTQSI2wqnQtwO4GSS/MWqiSm9NOdZfEcUy5XSsqB8GvtD5bU/ub3DpxcPcY34JfzJDd3Pd7azn3S6j/VEHvXx+sIvuuHBtphLvarkvHxGU+WvPUghNy58HiBvnmlexgdYwTqEtrL04TzM1BNwVYfLh4p4UeaYLz5z+VMElt9QdJtV9Hu6rCfIi1aET973tG9psqgUyfnxIwJ9maig8y+MpWjxAOXbgSYoDE1KKqKPUrQxeExWOxBMPnh2HTfu7yn66iroPH1GUUysaISOr0q3vuRK27ayAGk4BU0EXLYt+Yotpi6bWjEJmj7ll8LyY90uh9+G3GFD2cNAn5AH6y4mpXp4+VWvjaprSwrkCo8CIHX0BcWNBGuiwLeOidDJyFXTSB2hwktSb1JW0Zcs5u+7jj8Zh8JjUDjU0C1+JKFu/uKM+btQw3H/V+qfhjIHVnAZhI64/7SDajsxa8y3hAd3thf0XpZ2ljhx3tfvdfUq+o10rLO3ZGJ1MvP+bN4LAaxw0uqYTq8GuZjq97IYgkd9ptgLcKPL36JyWS0t6bkM9EljAGId7LHXn6BJ/JXwbHuBc59KP+pzqXuAkg9tUBLyPELTqNRxCE6oU2HSiqVt9qXnn+J2/wt531qCztNnRNp6oOO92K0cbGyrqei8FklXgwwgxhVJZIkwnExNzZXhv45D3GqPqVJ59susaO8/wx8iwvydEJWW6Pd0WWeQF61nZezPcSJ85MmwwGX6MhH+lfPLwUHIkGQbilMM5AyusBJvKEH7/C7lJ68ay6pwzgfSThnF/l0HX2VW9PbL9uLk+t43cUJ9FzHUmfCz5Dvb2U863ef71XZgkMfPRToOq/J9Wg5BhBV+iLYItJeVZRsiQGRmDJGAhNWAsz3hLXk7UOsrisQh7tIHXzKm/Sr++zeee/v+9b2bdjW6ijzzbZZ8Z7sw6zLIiZMSPUkctmWbkZ/zwTwfabmct84MSB8Ons3Ho1uR7sC2mOvMHBUSRC8FZq7THUlmAH0OP1SQ02FTa7MWbAknlJyUTr3o7aK3CrdSxS/cGKy1S3eIci8UP5KComNpS0rueYAFDZ9H+9fYlw+YMrhN0XGN/TThslUq+ur/qwHgxPRikFsvFlB8d+DMX/zhEfXnOurHU2pBWkxEvyzZpAmL+s8A6EN9OfXWqMxZr+wme3VLnZwAzm1I+H61FPQAWPi3JOm3jb4WIGGOQHVL2t+G55UL7Me4DH9R5DYtYT2M0q96euee4NR9CLAPAv9+KLcVC1j4XG/JbcTS1xggYWCpwHoTr1d0X6s6t6l+dv7Zx31gzeBe0/SHHorUOwEkzEkO2NlfwXl/OfQ1WVERs5tSfKJzn4VvLPJMJX6qrbJRW4aEXjm/1Wp4T04oWpjBZxj5GQoc5gE2/xi8t/Cvu8UZfno2v8E/+H18ZLSbn56pG/FNARAJez6dLSh3mmVJ8nxsfvDJqWYeI2Xxqqfb+PECQBgu30HfHZHTRAdp9WnX9VAQnZ0tyP9lT4CXx7sI3FbSwgDsBPSPAt0dJtuD4zzXvOGbVQSHE9X9TescJ2jnTelzuiSSzju3vSe/wdlGmPX5e58CFBM/5hGtyWid2JJ3pQ0n1qEOHaS9qgT9TPq6jlP4OwMkAnwJX5C817wUFrO+qzFRLiDlWxeiKj8Z1ajZSXcPgOIPB0ySLmk4LH+HkmOedz6ANDldvqq2HyX5rysNRUaydDzrcUaCFpXuADk7jno6/C6Z/oh3M0a2Xg5Astb9OspEBdtvqt8b1/V49DgbC1gTdgdoLaNzzYOEv0IsE9D39CmT2aWtO0CMeuXRR7S0tSufpOT40wRtBWln/Zsejx5nPecGRXeANkS1b1AOWe5pQYi74n9E7k+z9nJ3ydEDoPXJJRFzm4EpcCIbrio/iC/0SchJyekW2xtUQuwTKNfjbMC6QdIZIKuCL6dSrhsaShqYSMtOKzpk5IKfe4tlZAmnW/kXk0i1UdGxzyf2Q/KmKU49el41eA0ACMe6XTtkBoQeJHW6kZ58/o6nGSvr6yBTUsCVpDUdMITuj77z8LpRlWvhxHilyIGB5sq/Q/X3tvyPegkaU77Id8vFOB+9HhPlt/0hRi6vF0Ahi3eyFso/1S7+LwseFPylM/9uogQY3MarARV5lcAKUPz2j9PO3/GKW/wMvPvCzytKn1wQ5fQCiAKSxDwb6p8FAJu2uVsFhz6F6Dj5ejX9rYc6egNEIQ1BWvAS2XVFxSLxBWUClXVA9d5anBefnQBEQXIcxwn4bcBgEleKsO1It4unsCg7wWVkbJwdY79eQ1n4px3r+j8sMidjavOT3AAAAABJRU5ErkJggg==;fontStyle=1;fontColor=#084D92;imageBorder=none;" parent="1" vertex="1">
                    <mxGeometry x="1292" y="538" width="53.42" height="46" as="geometry"/>
                </mxCell>
                <mxCell id="DbYkKETLYe-rnW8ThWG0-5" value="&lt;font style=&quot;font-size: 12px;&quot; color=&quot;#808080&quot;&gt;Calculate personal CO&lt;sub&gt;2&lt;/sub&gt; Scores&lt;/font&gt;" style="whiteSpace=wrap;html=1;dashed=1;strokeColor=#666666;strokeWidth=1;fontSize=15;fontColor=#FFB570;fillColor=none;" parent="1" vertex="1">
                    <mxGeometry x="856" y="530" width="180" height="20" as="geometry"/>
                </mxCell>
                <mxCell id="DbYkKETLYe-rnW8ThWG0-7" value="&lt;font color=&quot;#666666&quot; style=&quot;font-size: 12px;&quot;&gt;Challenges &amp;amp; Equivalencies&lt;/font&gt;" style="whiteSpace=wrap;html=1;dashed=1;strokeColor=#666666;strokeWidth=1;fontSize=15;fontColor=#FFB570;fillColor=none;" parent="1" vertex="1">
                    <mxGeometry x="856" y="560" width="180" height="20" as="geometry"/>
                </mxCell>
                <mxCell id="DbYkKETLYe-rnW8ThWG0-8" value="&lt;font color=&quot;#666666&quot; style=&quot;font-size: 12px;&quot;&gt;AI Features (OpenAI)&lt;/font&gt;" style="whiteSpace=wrap;html=1;dashed=1;strokeColor=#666666;strokeWidth=1;fontSize=15;fontColor=#FFB570;fillColor=none;" parent="1" vertex="1">
                    <mxGeometry x="856" y="590" width="180" height="20" as="geometry"/>
                </mxCell>
                <mxCell id="DbYkKETLYe-rnW8ThWG0-14" value="" style="group" parent="1" vertex="1" connectable="0">
                    <mxGeometry x="1450" y="349" width="70" height="98" as="geometry"/>
                </mxCell>
                <mxCell id="DbYkKETLYe-rnW8ThWG0-15" value="End &lt;br&gt;User" style="rounded=0;whiteSpace=wrap;html=1;strokeWidth=2;dashed=1;fontStyle=1;verticalAlign=bottom;" parent="DbYkKETLYe-rnW8ThWG0-14" vertex="1">
                    <mxGeometry width="70" height="98" as="geometry"/>
                </mxCell>
                <mxCell id="DbYkKETLYe-rnW8ThWG0-16" value="" style="shape=image;verticalLabelPosition=bottom;labelBackgroundColor=default;verticalAlign=top;aspect=fixed;imageAspect=0;image=data:image/png,iVBORw0KGgoAAAANSUhEUgAAAFYAAABYCAYAAABvXACHAAAAAXNSR0IArs4c6QAAAERlWElmTU0AKgAAAAgAAYdpAAQAAAABAAAAGgAAAAAAA6ABAAMAAAABAAEAAKACAAQAAAABAAAAVqADAAQAAAABAAAAWAAAAACmpLCGAAAJ6ElEQVR4Ae1bfXBU1RU/9739SDabQKoEqAZFhqYIRbEFpa2t1gLG1o+Z2vJHq9MqjlUq/mFHKWPahVqs4zRqpwwOjKOM1XagHTvNjIqlSJmWUhxqWwmBUI0ZB2makBDNfu97t7+TZHFZ9r3d5b23+3b6TuY32b33vHvP/e2559573ntEnngMeAx4DHgMeAx4DHgMeAzUEgMnXwzMH3y+7ppastkJWxU7Gx15IXh/uCF9sLEp8eqJZ+u/bmfbtdaWsMvg6A51Syis3TU6RiTQariOKJ5QX0wn6x5v/mb0H3b1Uyvt2ELs0AuBn4TDqXWJ1JnDZoLrAiRjMaVbkf6tQ8emvT4w0npcH1XSRENnKuNbnS+sqCltwqap0Dh+vkwkLknf2LUldpayywssE3tiW7B9RkvyZfbUQiIlUcBPFKonGuhppVNDDaSjrJAoudbg88i7Myl2coomFBlXhBjENf2aRj06yf2aLvddv/P3/y7UjhvKcodStj3dEQpccpn6l0RG+0yxhhSVaPDYhZQYbSi5n5H+mRQfnoLYcuYvEVAUAtGU0uQh/HAdw2F/1zd27NBKbrgCipYWr5bZjRdn9OKk2j2OlK5TAq4LfhfU+5WXZiQyR3fdcMsPuiPzA3b3da7tWSJWVZO3BzHNqyUZEBzLZCipaXOCAbmx96XPD3ZS59WSZLEJ5LjJlogVPm1F2iUTMAUPzmiiqSGQ3rs19MhznRd2IqpXTywRSyQvgtO4RiTplKYMSRK3h4djBx+jBxurZZxFYqnqUy6fODZIx58gMe+8UPPRzeHIgnydSny3Suz7WEBcKRnS4L3pmT7dv/fntHFapY20RIuuqXt82Ea5WbCQNYdD4s0nG9ZNr6Sd1ohN+rdhzXC1aAgLKcpcUC9Dz1bSUEvEnhqLdQuhHOHTlZsFXktB8rdvbtjwaKXstETs3DWU/OBD9Ymm0g9ThuPywRJVkORjbRaqEFLFsUsRCvlw0vJNnrgMGzGpiFGCAtL/wNOByKUmarZV+ay2NP229JbhX/mvbgilvxXPS8KU2nZjUKHhqLhH0dQ3dF0/HbWTaV3qUiFd05tIoVngfDGcb3mD3z9HxzSJ43BQqmCXwFsxv+LzbUBsuLXU685Vz/J2CVFArI+QeGihultRtS8akWuUKwj6MOC08ot5jx6+r9RB7Fx+42y0d2fQp96akdQmORYpGp3s+zgN9l5Eis848IdEHY1RbNHqaMTRVKalUMBE4JeRkQjpdRntukTc/9QUhAVOF5oJh2Se7uGAgpyt8v1ySOV2V7zW1bfsla6HR0m7gsj3ZfQ4UK+ednSzrikl0yR0sclUyYbKIhSU1QO3pdy0RDm8bqVsuXwOYaSykUkeJxLfBntbKTrcwMmTwXRGHEiklYcXPd5ti+fsufkrnSffnrVmoLdVFT7jEDGxkAXGYnpm4X2Jjr6yRliGsp3EcrezgXdCfloV3T71tyPR+FKhyiVC0VqElImhvta3YyONB/yUPtoWOhoV8PQybC2qum3a2kWpsca9GaGFzZQVzDNdyO/cE/3hc2Z6VursJvYOGPMMwAmQhBXDzvXaTeEfzwvqvt06aTN4D1tIkM1Fsdx1d6xjWaF6O8osx9g8I27B9zeAqpDKtqwe6+ihWHI+dgHD/L2QcLIG4ek6kGu3Y53uzm5iP4uWXz/depU+rKLIcFroKwNUOFnMMR+7A7G5fv1ip0y0k1ie/ucBh5wytpx274127ErLzNogFb6pwDs0oahLy2mzHF07ic1mkN4vxwAndb8b73gMh4J/FuoDaXHc1NQcO4XZSWz2YBstNJBqlcFrN9YhU5AvEwubmJlfbtd3O4nN2lR4Kc7WVvj/9+KR7QlK9k/sBD7qnOMs9tihj0rs/eQEsfZaeHZrWM1pDdAG4NhRgkh60FdQ1bFNwfiGrgTLXKWyENb8DDgCvAncDJiKHtdfxu2aU7lK45RKSuaW2fm5Fj32CRDA+6gvARzXfwfcARjK4MS+ujtXgUMDYtZ/c8vs/FyLxGbHz/tlDgebAD7tfQ0oKBGKIMGoH1JzJiiHBiFEb8ELbCisFLE885qBGYCdCwZnW+4HjgHrAcP8MjK7Pb6c6gmPTR/ANY5IpYj9Eax/DzgB/AtYAtglnHz9NjAf+CRgIPI9PomppOKuhIIzd4pSzVP3GSi7qngerOFdTD5pV02WP43/XwU4rnGqsLQVHYolyofQe8hYV4p2urIJXtsL7EH60FGnMpw6xgaWXcMhYMMk2Ls4FrYD/CPYKXziu9i4QSFfmfDqudBZhSSNq/bbxnYTGXms2TV21vGTzBxyzIR3BrxFc1wq4bGODwIdfALgBNCrJp3dibpLgRtMdFxZVU2P/RMY4cXRKG43oe448HfA0diK9m2XahHLCxbH63tNRvTapM75JjquraoksXgnZ3xa88GASd1qwkpkUuc2Ex1XV1WK2NVggRcqvHkzTirHTqPpzckaJv4poGYlS+wih0fAnvcbgE9cU0z6ugt1xbzZ5HL3VGWJ7YdJRybBrws9YrOJAu0xigmHiVHAaEErdr2leju3W/ym1x8ATsXxwPkcvxy4ALBT2AtLFT4ElKNfartF9ewklrc71+f0yIN6C6iZE06O7ZY/2kksG5NPYilT1vIg3NiA0WrqRltryiaPWId+Lo9Yj1iHGHCoWc9jPWIdYsChZj2PrVFivX2sQz/cB2h3qkNtu7pZp0PBfoy+3dUMOGSc08T+EnbXA1uA/yvPtTtXkP/7H0TBAwA/xMbPFPDDGn1AAsgVfhZrJ9CVW2jxs2bx+pq4nJPfnJw+BvBNPX4iJgt+HoBTe08CVoUfkpsFXAXsAUYAp2clujhbnPbYbI98L5/fX+V7VcFs4eR/3jkcBs7lkUq2/0pgBfAFYC7wMYD7YWFiqyKVIjY7OA4B+WGglC0Z3wVoAaYD/GwAv51zDcDPa7HwnQLOB+8D/grsBfjd3JuAqkiliTUbZH6mvxXKywD2RvZKfiAjDLAMALuBnwJ/AwaBOJDr9cbvfULRaXELsbzQtAFrgWuBpUAjwIlzXuyOArwQMomM/wCeFGGAQ8E7AHssE7wf6AB4AeItGsfLUhagAPQ+B2wA/gywBzNKuRZq9opbPDaIYfFe9+4Shse6s4DZwALg08BigBculmGAdx/bAY657PUVF7cQy157ymD0bOMVwApgOXAZUA9kbX8Xn/8IrAOYSI63TCYjP26jqDKSNa4yvZn3wlO2FfgUwJ54OcCEtgEsvPLztmwHwPH2LYBfL63algp9u1qyMZbja9bL2NP6gW3ASiD7bALr1oS4wVC24dcAx0Y+SPQARwCe0p54DHgMeAx4DHgMeAx4DHgMeAx4DHgMeAx4DHgMVJaB/wGgnJ2VuIqtrAAAAABJRU5ErkJggg==;" parent="DbYkKETLYe-rnW8ThWG0-14" vertex="1">
                    <mxGeometry x="3.5499999999999545" y="3" width="66.45" height="68" as="geometry"/>
                </mxCell>
                <mxCell id="DbYkKETLYe-rnW8ThWG0-21" style="edgeStyle=orthogonalEdgeStyle;rounded=0;sketch=0;jumpStyle=none;orthogonalLoop=1;jettySize=auto;html=1;exitX=0.5;exitY=1;exitDx=0;exitDy=0;shadow=0;strokeColor=default;fontSize=14;fontColor=#000000;endSize=6;sourcePerimeterSpacing=0;targetPerimeterSpacing=0;" parent="1" source="DbYkKETLYe-rnW8ThWG0-15" target="DbYkKETLYe-rnW8ThWG0-18" edge="1">
                    <mxGeometry relative="1" as="geometry"/>
                </mxCell>
                <mxCell id="DbYkKETLYe-rnW8ThWG0-23" value="" style="group" parent="1" vertex="1" connectable="0">
                    <mxGeometry x="1430" y="455" width="110" height="181.25" as="geometry"/>
                </mxCell>
                <mxCell id="DbYkKETLYe-rnW8ThWG0-18" value="" style="rounded=0;whiteSpace=wrap;html=1;dashed=1;strokeColor=#808080;strokeWidth=2;fontSize=12;fontColor=#000000;fillColor=none;" parent="DbYkKETLYe-rnW8ThWG0-23" vertex="1">
                    <mxGeometry y="42.17217484008529" width="110" height="127.9184434968017" as="geometry"/>
                </mxCell>
                <mxCell id="DbYkKETLYe-rnW8ThWG0-17" value="Mobile Device&#10;(iOS/Android)" style="shape=image;verticalLabelPosition=bottom;verticalAlign=top;imageAspect=0;aspect=fixed;image=data:image/svg+xml,PHN2ZyB4bWxucz0iaHR0cDovL3d3dy53My5vcmcvMjAwMC9zdmciIHZpZXdCb3g9Ii0wLjAwMTE1OTgxOTQyNTA4MzY5NjggLTAuMDAwMjE0OTc5MTY4OTU4OTYxOTYgMzAuMDAyMzE5MzM1OTM3NSA0OC4wMDA1NzYwMTkyODcxMSIgd2lkdGg9IjMwLjAwMjMxOTMzNTkzNzUiIGhlaWdodD0iNDguMDAwNTc2MDE5Mjg3MTEiPjxkZWZzPjxzdHlsZT4uY2xzLTF7ZmlsbDojNTk1OTU5O308L3N0eWxlPjwvZGVmcz48dGl0bGU+aXBob25lPC90aXRsZT48ZyBpZD0iTGF5ZXJfMiIgZGF0YS1uYW1lPSJMYXllciAyIj48ZyBpZD0iaXBob25lIj48cGF0aCBjbGFzcz0iY2xzLTEiIGQ9Ik0yNCwwYTUuNzcxLDUuNzcxLDAsMCwxLDQuMjE5LDEuNzgxQTUuNzY5LDUuNzY5LDAsMCwxLDMwLDZWNDJhNS43MjUsNS43MjUsMCwwLDEtMS43ODEsNC4yNjZBNS44NDQsNS44NDQsMCwwLDEsMjQsNDhINmE1Ljg0Miw1Ljg0MiwwLDAsMS00LjIxOS0xLjczNEE1LjcyNSw1LjcyNSwwLDAsMSwwLDQyVjZBNS43NjksNS43NjksMCwwLDEsMS43ODEsMS43ODEsNS43Nyw1Ljc3LDAsMCwxLDYsMFptMyw2SDNWMzlIMjdaTTE1LDQ1YTIuMjU3LDIuMjU3LDAsMCwwLDEuNTk0LS42MDksMi4xMzcsMi4xMzcsMCwwLDAsLjY1Ni0xLjY0MSwyLjI1LDIuMjUsMCwxLDAtNC41LDAsMi4xMzMsMi4xMzMsMCwwLDAsLjY1NiwxLjY0MUEyLjI1MywyLjI1MywwLDAsMCwxNSw0NVoiLz48L2c+PC9nPjwvc3ZnPg==;dashed=1;strokeColor=#808080;strokeWidth=1;fontSize=12;fontColor=#000000;fillColor=none;fontStyle=1" parent="DbYkKETLYe-rnW8ThWG0-23" vertex="1">
                    <mxGeometry x="43.41" y="89.85067164179104" width="23.187633262260128" height="37.10021321961621" as="geometry"/>
                </mxCell>
                <mxCell id="DbYkKETLYe-rnW8ThWG0-19" value="&lt;b&gt;&lt;font style=&quot;font-size: 14px;&quot;&gt;Application&lt;br&gt;Client&lt;/font&gt;&lt;/b&gt;" style="text;html=1;align=center;verticalAlign=middle;resizable=0;points=[];autosize=1;strokeColor=none;fillColor=none;fontSize=12;fontColor=#000000;" parent="DbYkKETLYe-rnW8ThWG0-23" vertex="1">
                    <mxGeometry x="5" y="39.85341151385928" width="100" height="50" as="geometry"/>
                </mxCell>
                <mxCell id="DbYkKETLYe-rnW8ThWG0-26" value="Business Application&#10;Studio" style="shape=image;verticalLabelPosition=bottom;verticalAlign=top;imageAspect=0;aspect=fixed;image=data:image/svg+xml,PHN2ZyB4bWxucz0iaHR0cDovL3d3dy53My5vcmcvMjAwMC9zdmciIGlkPSJzYXAtYXBwbGljYXRpb24tc3R1ZGlvX2Zvcm1lcl9XZWJfSURFXyIgZGF0YS1uYW1lPSJzYXAtYXBwbGljYXRpb24tc3R1ZGlvIChmb3JtZXIgV2ViIElERSkiIHZpZXdCb3g9IjQuODE5MDAwMjQ0MTQwNjI1IDQgNDYuMzYxOTk5NTExNzE4NzUgNDgiIHdpZHRoPSI0Ni4zNjE5OTk1MTE3MTg3NSIgaGVpZ2h0PSI0OCI+PGRlZnM+PHN0eWxlPi5jbHMtMXtmaWxsOiMwNTNiNzA7fS5jbHMtMntmaWxsOiMwYTZlZDE7fTwvc3R5bGU+PC9kZWZzPjx0aXRsZT5zYXAtYXBwbGljYXRpb24tc3R1ZGlvPC90aXRsZT48cG9seWdvbiBjbGFzcz0iY2xzLTEiIHBvaW50cz0iMzAuMzA1IDIyLjExNCAyOC42MTggMjEuMDQzIDI2Ljk0MiAxOS45OCAyNi40NjQgMTkuNjc3IDI1LjkwMiAxOS4zMjUgMjUuMzE2IDE5LjYzNSA1LjgwNiAyOS45NjQgNS4yNTEgMzAuMjU5IDUuMTk3IDMwLjg4MyA0Ljk5NSAzMy4yNDcgNC44MTkgMzUuMzI0IDYuNjY2IDM0LjM2NCAyOC41MzQgMjMuMDMyIDMwLjMwNSAyMi4xMTQiLz48cG9seWdvbiBjbGFzcz0iY2xzLTEiIHBvaW50cz0iNy4yNTkgMjYuODI3IDIyLjE3OSAxOC45ODkgMjMuOTQzIDE4LjA2MyAyMi4yNiAxNi45OTkgMjAuMTYzIDE1LjY3NiAxOS42MDkgMTUuMzI0IDE5LjAyMyAxNS42MyA2LjQyMiAyMi4xNiA1Ljg2MyAyMi40NTEgNS44MSAyMy4wODIgNS41OCAyNS43MTQgNS4zOTYgMjcuODAzIDUuNCAyNy44MDMgNy4yNTkgMjYuODI3Ii8+PHBvbHlnb24gY2xhc3M9ImNscy0xIiBwb2ludHM9IjQ5LjQxNCAyMi4yMjkgMjcuNjQ2IDMzLjc0IDI1LjgwNiAzNC43MTQgMjcuNjEyIDM1Ljc0OSAyOS42NyAzNi45MzUgMzAuMjEzIDM3LjI0NSAzMC43NjggMzYuOTU4IDUwLjM3NCAyNi44MDggNTAuOTYzIDI2LjUwMiA1MC45OTQgMjUuODQgNTEuMDE3IDI1LjI3NCA1MS4wOTcgMjMuMjg5IDUxLjE4MSAyMS4yOTYgNDkuNDE0IDIyLjIyOSIvPjxwb2x5Z29uIGNsYXNzPSJjbHMtMSIgcG9pbnRzPSIyNS44MDIgMzQuNzE2IDI1LjgwNiAzNC43MTQgMjUuODAyIDM0LjcxMiAyNS44MDIgMzQuNzE2Ii8+PHBvbHlnb24gY2xhc3M9ImNscy0xIiBwb2ludHM9IjM0LjE2NSAzNy41NTQgMzIuMzA2IDM4LjUyMiAzNC4xMjcgMzkuNTY3IDM2LjQyMiA0MC44NzkgMzYuOTY5IDQxLjE5MyAzNy41MjggNDAuODk4IDUwLjA3MiAzNC4yNjQgNTAuNjUzIDMzLjk1OCA1MC42OCAzMy4zIDUwLjc4NyAzMC44MjUgNTAuODc1IDI4LjgzNiA0OS4xMTIgMjkuNzU4IDM0LjE2NSAzNy41NTQiLz48cG9seWdvbiBjbGFzcz0iY2xzLTIiIHBvaW50cz0iMTcuMTI2IDMxLjg1NCAxNi41NzkgMzEuNTM3IDE2LjAyIDMxLjgyOCAxMy42NzUgMzMuMDQ0IDExLjgxMiAzNC4wMTIgMTMuNjI5IDM1LjA2IDI4LjIzNSA0My40NTQgMjkuOTYxIDQ0LjQ0OCAyOS45NjEgNDIuNDU5IDI5Ljk2MSAzOS4zMjIgMjkuMzkxIDM4Ljk4OSAxNy4xMjYgMzEuODU0Ii8+PHBvbHlnb24gY2xhc3M9ImNscy0yIiBwb2ludHM9IjEwLjIwNSAzNS41MTUgOS42NjIgMzUuMjA2IDkuMTA3IDM1LjQ5MiA2Ljk5OSAzNi41OSA1LjE1MiAzNy41NTQgNS4xNDggMzcuNTYyIDYuOTUgMzguNjEgMjguMjM1IDUwLjk5OCAyOS45NjEgNTIgMjkuOTYxIDQ2Ljc4OSAyOS4zODMgNDYuNDYxIDEwLjIwNSAzNS41MTUiLz48cG9seWdvbiBjbGFzcz0iY2xzLTIiIHBvaW50cz0iMjguMTQzIDEyLjcwMyAyNi4zODQgMTEuNTU2IDI2LjM2NSAxMS41NTYgMjYuMzY1IDEzLjY1NiAyNi4zNDIgMTYuMjk5IDI2LjM0MiAxNi45MzEgMjYuODczIDE3LjI3MSAzOC43OTQgMjQuOTggMzkuMzQ1IDI1LjMzNSAzOS45MzQgMjUuMDM3IDQyLjE0NSAyMy45MDkgNDMuOTIgMjMuMDA5IDQyLjI1NiAyMS45MjMgMjguMTQzIDEyLjcwMyIvPjxwb2x5Z29uIGNsYXNzPSJjbHMtMiIgcG9pbnRzPSI0OC45NjYgMTguNDk5IDI4LjI3IDUuMTQ0IDI2LjUyMSA0LjAxNSAyNi40OTUgNCAyNi40OTUgNi4wODUgMjYuNDcyIDguNDYxIDI2LjQ3MiA5LjA4NCAyNi45OTYgOS40MjkgNDUuNDM5IDIxLjU2IDQ1Ljk5OCAyMS45NDIgNDYuNTkxIDIxLjY0IDQ3LjA5NiAyMS4zODQgNDguODYzIDIwLjQ4NSA1MC42NDIgMTkuNTgyIDQ4Ljk2NiAxOC40OTkiLz48L3N2Zz4=;shadow=0;dashed=1;strokeColor=default;strokeWidth=2;fontSize=12;fontColor=#084D92;fillColor=default;fontStyle=1;" parent="1" vertex="1">
                    <mxGeometry x="846" y="720" width="46" height="48" as="geometry"/>
                </mxCell>
                <mxCell id="DbYkKETLYe-rnW8ThWG0-28" value="Node.js&#10;CAP Service" style="shape=image;verticalLabelPosition=bottom;labelBackgroundColor=default;verticalAlign=top;aspect=fixed;imageAspect=0;image=data:image/png,iVBORw0KGgoAAAANSUhEUgAAAEYAAABQCAYAAACkoQMCAAAAAXNSR0IArs4c6QAAAIRlWElmTU0AKgAAAAgABQESAAMAAAABAAEAAAEaAAUAAAABAAAASgEbAAUAAAABAAAAUgEoAAMAAAABAAIAAIdpAAQAAAABAAAAWgAAAAAAAACQAAAAAQAAAJAAAAABAAOgAQADAAAAAQABAACgAgAEAAAAAQAAAEagAwAEAAAAAQAAAFAAAAAAk72DrwAAAAlwSFlzAAAWJQAAFiUBSVIk8AAAC1NJREFUeAHtXHlwU8cZ3306bZNAMGSgCQFSenK0DFgMk9LJdNL80ZY0TYuBTpgUcpAh2OE0km3sFcaWHDOcLQV6JqTtUOiZUpJOppNJ2hIfQBoSZhLc1m3ahnC0nI4lPb3tbxU/kKV3ypIsqPYPvfe+/fbbb3/77bffe7srQoqpiEARgSICRQT+PxFgjEjM7/sc54QWCgLSUCsiQCF9vmVE4nuCdb6HCwWcIeshxmaUkoj0CCdkCzrnagdBoX8qnNac+k/8wJ49R2JD1XF5B8bvn3pLieT5OlfoNk6JQ6/hUOxdDKwVxF32a8Ze6tPjyxU9b8C0BKaP7uOuJZTyFjTmqoVYaNgpSZKWc5d8iLEjvRb4s8KSF2CYf+YSTuluaOzMVGsoegZlHyce5fl8AJQXYAQYLOBbxQmvw+1I8ZySZCjyDmgT4HMMdULmJUrpwjHj479bujR3PshQiRTls/LYD1AzhHkxA8UlSl9joY6ZQvjKlbNHDvfGjwLAcXg0HG5QPBYnjjlTp4/rqqzcHxfls5myCkyD3/eVDeGOX1hRkAVmfYGF2n+ryYspvDFScRJ5d2rmJxEdkkQUotzFmjv/lEQe9G1WgGkI+JZKlO+CBfQneiIY6piCh6sUNcfOlX1jgpePHX0YVvVp5ZpwTRGUgMEh3cM2dvxek8EmcVDAAJCHodB21FmqUa8C2gnqic1h7LXzGvlWSTQQmDPKzSPPSg5yr6KYYE35ZcrpQyzU+XOrFWjxZQRMQ62viiq8AW5ylJbQFJoMvqMuSr5W39wpHGymibKa6WO55GylEn2Qm1gQKjlFiVSF4XogkwptAdNQO3MtemMFKvqQ3cpQUQwAHZZl/tjGp7resls+iZ/W1U2/w8VdAYzUpUb4oE4Os+3BRBfcEOp4OkmG6a0lYIK1vrUY49WQdrupRBOGBECEvBxXlJVNrUeOm7AbZtfX+yY640SEAcuNGAVAhNNuXDaxcOceI141zxCYICwE7y2i0jvUAnpXCNoncd6KgGSKROhueIISPV5BR0/HMaG8KDl4oKGp65gRr1keY7Nu5xFeBalrwGs4zcN6uilXtrFw1zeN5KYBM2/ePMcnPtKzgnKyCgXNhwxmI6dEtq7feG14oNE0WDdrMQw5DIBGGykAXgTF5AX4jfWsuaPLiNcsr27l7NucXnkFZK6GzLS2pZTvoVxqawy1fxu8aR49rXBNzV03lTljF42mR9EYiZKdMUlua24+9veUCgc8BgOzFiHOqAfxowMyUh6gHBI/SBRpMwsPbsplayvGECevFdZuBJCERnDXFQ9jb0ZT1ElHlbG7h5Fo7yUtrw/dIzDFPfgJhkId51KFGT2z2lkPwoL8qHEygNVNAiB4zJfx4t3Iwq++pMtoISMQ8JV7CGmExMdQJW4HpuwAw+muixHHqi1bDr8/ULy9pwZ/xXy8YdfifWeaMUCUwGr/KCmSn7W2/8FeLQO5E50d6d0JQ1+UnGMLGDGUSjGUki0GjSBRQse0tLS/lyx4MPes3vclReYtcMBTzQCCp+4kcb6cPdXVkWmdTZjB4gr/a3JdRsCYePBrapRdu83KHUL332wId06TOP0shufrekJFB2EYVBAnbW8MVBxntTOn6PEa0eMyPovZSJaBuWJDqB3WhlDHK3iv+pTX45iIcm/rle3vaYBCjwOgvzF/hekLpp4sK3TLwFgRNhieAHu1Jxjq/JgsRUUQ+Q/hg7Xk9QM0Af3/FxaoOMtqEMPkYHXBMjDZHkpajRa05uY//wsAjXdR5TaA854eQIIXyJVzh/JOcM2McvGczWQZmGxWakVWXcuRd/GGPIbEImPAn7dvvapuacCUlro0TThXPkZVRO/KNr1+GhZU5iHeW2EiZ7X43G6Hps5avFZpacBYLZhvvtrQK2dgQbeKKTYfyTIw+fIxRo1GOKVpGdFo3BQthxNvfzaSZWBsyLwhWNOA6e2NaaI/VD7GCspWfEzOAjwrCt5IPGkWo9e4QvAxerpZ8TF6ZfXoloHRE3Cj0m8IYKz4GLsdeEMAY7fRVvjTgNGLfK0IGyoeKz6mGMdkqXfSLEZPbgHHMfjW7hbLwYbJbhyT8UYeQy3ykIkoFFs/6FvYQjI5F9WlASMi39I0KiEFFcdw8iJWFD+fC0BUmRoQqFmFeX3j7fHO/fuzv1EotbXXnY/JBygCJMvApCK6ffuktAWsVJ7r+dkyMKk+5sLpERPwMTqKL/a/up4B0NN9UD4GC/EurvD7AE4EH5FeIO4v3s8YM5069ZQpJHqaxWQY+bqxhDGXRA5Gsd6Dndx3DwrwXAA0pJEvvh06sN4zl8Z6Y7CifWI3eC4amQ+ZaRaj9wXPjjL9Gwgro9R1Gvt6n8HWsPF2yueC127kmwaMVaXishJPXvjXKvfBujNf5OLOnoZAxfeZf/YkLb5CpGUMDAsf7XZI/OMIyw+gYYYOVyyrIoRfzKl8ktX6vlNfP+PDhQhGsk6awGh+DU8u1X8vtpdhQX4e9cjjUGYfyLIG2wASrOgRZ1wSW+YLOqUBI2YlrQUYTiXdmYaxY//GYtiC8sujhqHwc2hx2tatIUeBKm47Oug2NlmI8BUxLvcgoJt/c5/z0CqdXVXVOw5hFxq5T5RdH6h4Dqjfg1uveB6q1LZmWtkll/sBKknPmO4qT1LSEjD9/E5Y0s8ulcYJdmTef/biued37OgWQGimplDnXJEhpm0Ms7koa7i9VVPIIIiIpbxK35Wv9rmkZ6mMTzZmW+1T6tIA5gz2V5SJYy6ax/I+qID/cvTwcpxBGvHlN7snHjR6scOC/HxRp5i2IXgBAHKl6JDVx0RwGb2ywBl/f69YOpQBil5C1K57nEfXz2L22AyBK82mZKdDIjE59sCG8FFrx3HqfK3YlXmncNp6CmdKb6jxrXN5aNgIDCFb7CnE1tA6FuoSxxA1ky4wgpvh3BCJVGxHLz+hWTqJCEFxLLlX4wPSziSy5i1cltANYrOTgn5fo0KVBjQ5bTJJrgH1coQYq984OXG7kZWLMobAqELFdlAe6Q0AZj9oxpXjaB62zDN8chTHhrPWeFUX9ZrotL6KjQol1WhE6su/ypa4Il+Mqie5R3na6nlKS8CotTA2eySJyMvgxxh6XNMHqbxA5ByGzFZHSVkYx4NN4xu1nNm1qmqSp7xsZBOn/FHwjjDhj1KJryMu+Yd2z0zZAkZV4oMd13wxGt+m0vSuqOAM+Haf6J7AzMxXT4agiwPsPCptgw1W4vFmI14MmTjGQpXkif3ELiCq3IyAUQv7/Z+5xUUjixwUh8uhjVESFiQR/uNzl8+vNZrmU2W0tU0ru/xfz1YrgOBchQDkceKmP2Ws/WKqLDvPgwJGragFe/ajJGHaIWN4Ek7nAg6D7aXeK6u1DjeoMhmbPIxESjfDTy9EqWEqXecqo95lkkf5kVUfoiPnKjkrwKjS1q2bMbxEcjxBKG82MSBRROzE/G752FE11dWJiDkhJoBvOB7iasIE8hAIplEzGvAk8fTuMgI5IdjmT1aBUevG+emS4V7Zj14Us5jhOwoUEOa/NdZHtjm9pB4O+1E4djO9+sAQbAx1tuJqZqSqWrauZgrYEpbKvBkAXSyRG6H6Mmh/U2p+8nMisDExM8i4gLMHW0m4YwMz+dSRLDuT+5wCoyokALrglVtgB0sAkuGMopYZcKXkLOLB3Z882dVYuR8WloeUF2DUdggf5HXQMJzvQvT+cJWudwXPGSj4PeopW5/NWEivvmR6XoFRKxaRNIn0blLwUgkF0gAC7RxA2QtAAkPx3zFCzyEB5hpAk928r/RbeMmo7B9i52FNPyDe0pp8W4iqU8FdWY0v8Y8gBadYUaEiAkUEiggUEcgfAv8DdK0B2/YO5E8AAAAASUVORK5CYII=;fontColor=#084D92;fontStyle=1;" parent="1" vertex="1">
                    <mxGeometry x="1096" y="520.57" width="53.75" height="61.43" as="geometry"/>
                </mxCell>
                <mxCell id="DbYkKETLYe-rnW8ThWG0-34" style="edgeStyle=orthogonalEdgeStyle;rounded=0;sketch=0;jumpStyle=none;orthogonalLoop=1;jettySize=auto;html=1;exitX=1;exitY=0.5;exitDx=0;exitDy=0;entryX=0;entryY=0.75;entryDx=0;entryDy=0;shadow=0;strokeColor=default;fontSize=11;fontColor=default;startSize=6;endSize=6;sourcePerimeterSpacing=0;targetPerimeterSpacing=0;endFill=1;startArrow=classic;startFill=1;" parent="1" source="XRfYKmiPNdRlxdjmCls0-5" target="XRfYKmiPNdRlxdjmCls0-25" edge="1">
                    <mxGeometry relative="1" as="geometry"/>
                </mxCell>
                <mxCell id="DbYkKETLYe-rnW8ThWG0-35" value="" style="rounded=0;whiteSpace=wrap;html=1;strokeWidth=2;fontStyle=1;fontSize=14;align=right;labelPosition=center;verticalLabelPosition=middle;verticalAlign=bottom;strokeColor=#808080;fillColor=none;" parent="1" vertex="1">
                    <mxGeometry x="12" y="600" width="240" height="220" as="geometry"/>
                </mxCell>
                <mxCell id="DbYkKETLYe-rnW8ThWG0-36" value="" style="shape=image;verticalLabelPosition=bottom;labelBackgroundColor=default;verticalAlign=top;aspect=fixed;imageAspect=0;image=data:image/png,iVBORw0KGgoAAAANSUhEUgAAARIAAAA2CAYAAAALfRa3AAAAAXNSR0IArs4c6QAAAIRlWElmTU0AKgAAAAgABQESAAMAAAABAAEAAAEaAAUAAAABAAAASgEbAAUAAAABAAAAUgEoAAMAAAABAAIAAIdpAAQAAAABAAAAWgAAAAAAAACQAAAAAQAAAJAAAAABAAOgAQADAAAAAQABAACgAgAEAAAAAQAAARKgAwAEAAAAAQAAADYAAAAAU4Js5QAAAAlwSFlzAAAWJQAAFiUBSVIk8AAAJmRJREFUeAHtnQmcXEWd+Kve654+5uieSWJOSEgmMwNDYsIgInLEACJgFFm5wQ2s4sGq+N/944qos6iIrOuioCiHshyyElgBgYgiBDAEgYRzSDIzOQg5Seaevvu92m+97unpmemZzJUDPq+SN++9elW/qvrV7/erX/3qV9VCuMHFgIsBFwMuBlwMuBhwMXCgMSD3VQUu/2NdsNuwJ4lkeqIyvSFTqRKlrCJpSENYylJKJiwpu4WhOkSRbIsmYy2PfHp9176qjwvXxYCLgX2HgdEJEiVkvRCyYdk50uNbO9FjeOqUUMcKJecpJeYC9FAERqk0qbjiP9eggcSSS6dRaZXi5V1gbSeq2RZija3SKzq88Tc+fHpzql5DkxqiG1wMuBg4mDAAvw4zwMKX31rniRziCYhUYh6C4mxli1Ph7cMNU3p4dqSBw+VjYXUtWHSV9J+shAH2LinlE9KUv2tX8rk/Llkd1Unc4GLAxcDBgYG9CpL6emFsr6vzx6SaiaQ4n0nJ+VS9Sld/zEJjBDjQMoWQFMK4pVMEvvPIp1e606AR4M9N6mJgX2LAMxTw039e6Vs/q7jSI+zLbVtdDC9XDDlNGQrYGL/pchEmRULYdWUqMg9wz48RpJvdxYCLgXHCQGFBwjTmnGV1ZT6/Og294wcIkbmOrWOcCh0tmOyMqUR6jbLRwnDzuRhwMTD+GCgkSOTShxaE0oH0xRhPf4h94qBhWsdkIkS7suyW8UeFC9HFgIuB0WJggCBZ+ttZPsuUS9BArkeIFI8W8L7Ih0aiDMPYnFZy076A78J0MeBiYHQYMPKzYYeQiYqKKlZMtCYyRiEiLYwacXhfG0XbEEyt3PXVyRXj0us8ww8YaPi/hdXf5+5bsnrP8DO6KV0MuBjY1xjoo5F88dG6gCHsr+PHccgIC1YweTf52mH3KAIkCde3GVJst2y5C1htLN0mVNr2SKnKpMeYKiwxW0kZkrbyommUkmYil3eIcmPkXe6Nph4aIo37ycWAi4EDgIE+gqRLJA81DfM8ZQ27JizHit3CkDulUi/gW/J4Ki3eKttlvHvrF/fu63HO/bUlgWLPNJWUxylTnqeUOgzNZQowQ/k1wDai/UYeSytx893nNmitxg0uBlwMHEQYQJHIhHr8RZoWLvgmzmXX2XDs0EHi3S52M814WZjyXjOl/nTnZ15FGxlbuPShhUekTfsyZctTmGZpI68Xh/ounNFWScP+8V1nvtY4thLc3C4GXAzsCwz0CpKnF3k2RDueQYgch1YweJAqLoVcC4PfES9J/feyjzV0D554dF8u/lPdVJmyFlppOaGoSL1RtNVsQMNJjQ7aSHJV+vwhc5ohrbCwDQ+TLkNQqpSGRXuTtqFaYi3e3UI0aE3MDS4GXAxkMZATJBc+Oq/cUJ538Fwd3MgqhbZTPCOFcf3dn3rlmfcNFifPLw7G4kcoU1Wy5H0O7ToabavU1g5wyBKQlCBuNzag54h/3LaMhkRp1zti+3bXVf99QwQDG1JSMucDymNMQ0MeynbXJ6M0VCrS3vRqn8iD+0UGJ1ZPFUk13TbMd+Ptwe1CjHzQztlIjIQ8zAiIYmsw+4gUSWwgz8NW19615JVVBzduhl076Ss7vNKMJxcjL76FEJnZk1PvDpSOZub8CRJfTozeGrDUMNUKf7Tkv81JtX+J7G7QxuShdLgekO59P2OgtLRmQlfXulH7HKU95ifo86+zQ33yMKvOmGO8S9qFw0x/ECRbZKr0jnOxc/6roew7S0u7buzqEiNeFc0JEtNrHqaZpyBPMAyj4G8UhrjlrjPfN0JEBEM1RylhX6WkOnd4PerIC72n+WSuY+x0+tf+UPUv4x3r3+Z9ZMvZwyvQTTUyDDAwzJkjDc8hhq0CaWnPJ/v1IwPRm5pVxxJ6fBrUr1cUtzGwDNBANWP05tCOTiKS/37AnyuZru/xTPX4UtHuXRu0kBsQ0LTLEJjTaUu5HUiZYhS72HKCJG2rKYbDJwPK0ZjqZnh+KrjVfGTg1/dmTFF59Xyl7J9S+xPzWqD1sa2goZE2YwfR61fa1UZp4aGXqCu5pnFpnJRCYFcy1Qv4wzU/ibeve5voQTCoc7hhP2AAf0XPd+mGM2DoCfTdDsoctSDJ1Jcu5WgLzrm4SZpWg/a10vEsNjh97bxkEmb+WmY6//WAPs+YEQi0mmfCu4utlHyKujxQuD4Z3Zt0arRiMCdIDJNVkkHYACeRLYYwHtw/Bs/CTR3P2LKy2oqknfoRJNEjRHTLO3n/M/PhJ+LK8wfROQnHuRUZoqir8/qbuw5h9ehTpMOGouZxR7Aojb8vcN+JGn3LWNRo4LhhzBioNaVIfYrOzLoPqHFgakSFwjfKkKsirY3vqY2iwXhxOXryt3GrmGJI+eKY0TsEgJwgQcbqUbdQsFDx3vbakZcKfXwvxqXM1OVSyTOgEF19/aeFIeaOmLSuEx3N2vO2b1i9OoWL7kYibwxOqFoJef4/hM7pvGuCfRdSm4BCqDWWFi43HDAM+BlS02iRTr9Si+xIO+b6MJQqdJz3YAATNrQ6mOVz3FqUEySWpeKmd4CiRl+ICJVp+s375BjE4uLaKUqlvsm8MItEyUqUvC3aNgWVOKuBDIHeaEvjS8Fw5Q3QFY65YpISxiPCSP8h3tq8rXC2umCwvGsRvVmRJUaNZPIaaWWrnfFJ1krR3KxXhQaE0tKqiSlTzoOC8alRMm2q9cmWpvX+8OGHGFLNs5VdTqYeArdJ83a8Xf2dw+UKwJsWDIRLTmMuTFWkZVmpdYnODRv8oarDGG0/Qt30QJKpmyES2BjWs/rwOnHAHToEKipnSNs42payJANHOzrDxFKmpWU3xzqbqNPwQnDi4Xg9WwvsjF2ip23gS6Xwgl4fLU+/JTZvRq7ngukL1ZxsSjuoVIQ2qKLcF6GCvorqT5i28Ok4mwTxjsan9GNvmv3+ZNKv5XTQRHAlvSrdGonMZADaO+0NUVMpymrLRWeD9uXq37YsoY9CqIbmlfvs1CSOSDUz9dyE68MA+E61coKEjmqFyAbUFVEchdE2D/jwHo1Q3tSXwGw4W32L9q2MitSPR9KR0fbmVwJlVTcahhntblu7FlgFJb6vvOp0w+7GFiO+CIFPB7t6GVEjGZq2EwiixsAe87cqXPMaNpYVxPcJaY+spvuvob6Hw5QShviZv7xqpbTtC4g7k/7CXuMIAPKxt0mIVwIhcX/MmH2baNvYkQ8sUBGsgARuIR/n5doxYXhuCoarN9tCnQVBX5Ctm2Zcm38RhMIzfL/NtNTzXV2Ng1jxZwSC4eJTyf9xOP1sptjaKAlN0TKH4FRSGMYLxeG5d+GD85dYa/PW/DrlP4dCh5bHVfAYlbZOI34JbZtJ2zR9AoudX8qIU7HnAu1Ff1Ghqj8gEDbzzZ4hZhS1SPUDpNaMrAISJD4b7HLDNm6nzbo+glXHzbVCPNvg2L960uyne0VlmU/JE0zalbbFoUi8WRpPrCxvDZRv3yRF1QYjZb/c3d28m0WAOtq8AJw1xj3eV8TujK+WFtiMJyfg42TF/L7Hiru7SqyiolMNS5XZZmpGfNq0HwQSJeUAXQKFWSplh2m07pNi8HNSMFSlhawUeshQapvHKlrV2bkCDbyaiJ5QLLzhIxaaIo2hOl4pDWM2WbzU851gedUG25br4h0lz/VfIs4JEq/H3I7fBAG09wlGkkqN2Wu1D8gD+MIgcF5O45UyQXN/0Z/phlO9WGfjUHNOGQhV/wNaz7WUVQM8h7Py4DJbFAHeP8j1EynsNcFw1Y+i7Y0P5aXR7ONDwE8ibqruFmTJSdxPBeZJxGlyyAsO030IwvlQUBqh6OT514tdr+dWEJTt8VAOy5iOtTCBAF0EyHnUY04eEP2ohYk2JH+S1axKpmzXiVmzlvXTAkSI0SohEp8FxrdJO3Mg3QBHCT/xi1CBjhe2/JWvtPrmRNf69f3KE1pLTMrURYa0/5Fv8zLfgZwLuAOiXdB+LWROAXlHohX+PNo+4w1b28WlnASypuaS5x70dF1Nz70qCT4QJQJRsv+CoTVIYVuXgY/z0dXmwspaXYvSB9rdsRimNtHA1tse4/e4I9zL1yW0/t+o4l0BK76ZHa6O06chPLWMQD9kkhX3J2I7bY/3DIT3V3gvxbdLhKNFN8SVqEHDvAUYgNBkl8EjtLiUcpc6zdaTHWE8ZZv213nvHXAYDWxP6iSEwsXELyZ/ABroproaj8VAJIVY4w9Hbo63192bL0xyggSC3cJINDDQWqTSOBitBoLe/zF1XmF0zcziFtyorqhl/G286xGoqP4swvc/oZYZwKbTeoJsosx2YrRwmMmlO1r3wYcgrBvQAFS0ff3DPan739EkTu0BR5++ReZmrR3TuYxgDkwNjyLkNb5YfBXq85+IL9SremQ6hauEGsTJoqcwrFbJCrqbkUhUcGlQNTDvl/ztvq3MJZ524jJ/zJSRuJD2fYtEvYwq5Bryv4E2w8mcNvFSl6EFpm7jl01TlU2aNOmK3bt3O4yhQWmBlJSJC3i8iusDOi4bqL7aRVsitE/7cZRzaVya1HMpjFDmD+/8F6t9Iuq2djTWnzJMw0NeyI/Xz/s1SH/4sEPogu9S8qVUsZUq/h5G36ppD87SAj1ks8LE9w9Tsytxogb3Roi0dKRulJ4mZkMaNmQPCxElPHwVYaEF65OkeVunbi9JJ3ydxhb8KG8mjo0usoS0eoEgiFx5HkhvZSDhDSZVk206Nr0e+CR3FhE+QppyioUO7a0IkTbysdlWhpiKH0m1FlGBH/rKIjsSneLPpHWQrjvYCd3dxja/39IryNpo2BsAbwmKfB8EX1n7TPgWwnbazh86tGtd23g2LVA298NIbk04msG46X6yH6DnminwTVaFWuiUKXTkEcz5F9JJmtlIpGaD6qvwg2jAdtFcuE56ZJBNjBJPk/dJyxQNaC1FWOQ/ClN/GiDHky8AkTKjEN8UYsbTyAcGtAFBV6qYC+GhfoVV/yVh25sZ8T6g7SXU7ePUVdeLailNWCdwPculp08iEK7SKyNf5TEjRKTYgeB8iJP0HvfY6ZfiwWCkyFIzDdt6CcLTDHImFwJAnBNNhlEHdt/Auw5m0kjUQrRfpiBHiJBGC5lVqCArbWVAyNqrAWGl9DROLIHY0cNJJZhKCfueXZOsv+Aw8iviETSO5vJVPqMJ6SC7yP8zLWx51plaGkSD0wbn8/D/IBclwncWcNMad0OEPHxXVKLZmd+CiS+j/Lep901Kmg/E29ZuAYCuTyYw7SlSxmLa/FWAn41vE90iPVBFb5qetPquHFxpIXKnbclfJLoubBKi3hbMG5C+PIsrdTKmQlNh3aPIMBnm/59oe9NdOj4bNGwGmUXIgB08QklCHEfBG6HV2xBodzEV3aY/cOkg0QIXQFnfI+pMMI3GNOsZITL2qpwgEWI2viJNzVR+YS6rk585uFJ6VHnPB0MUTexnztCIKjRij7qtzMO/AP5mAwC6cCjhHmUZPxio0i/yBEq3H8umxygdo0cNrT4eYUrzUp6/XagCCJoIRPm/Zsp7YyTSsDMvzavYbF5CCNwDjEriGUjkiSJk+FFcCwkSnbUDBquPtzfekQenEcJ6IRDeuQE4c7lmOrCUmlpcfNjESGTTLoQTtCAvhCb4roNMoyn9Mm5YN4mOjR0QstC+COgIev7QAPEtRCDMgZBrePejrXyFpfI79FJ5cfGRE207eQG1dWBBsWzQRIuy1H9GO5v01LGHiHmsLfKXpV/l+7W8ENRyem4be8+TMbE2K5gqiwJh8/N8ywoS0Y6G9x0Sw5+5kAczFzfEgzNFKEe4LvWHik4R/AjT4ImlFe8Q9XxHdRASm8iJ9NflPO9m8PhRtG3+7UIsGyjIWps7wdcj/vDcVvr4+xRwInmGCj4+Ljd91g9ijpNZff+0ThnSYMbUS9263QPL7pszTT0fNFPW7d3dA5zX0JabX/GHK/9LKuM48HFCUXmgMtkm3tQgPD1wat9apjbULfw7CRZq1OUFRjxzQt77AX/83P/WTECxOFIYVsuc4op19R8bk8V73NrjD808DNTpEcARvGgb6xlcvpfoatw4sJAV6ViXWBUor74BdjmO7wg5ESbPCaJ8dqiQ3QaxtIb58GP9hIgDWttsAuHqtbzM4vIiSGBbrzdvBuyky/7RKzes8Ky/Iz8y87wCwVD9Cqz3VyBclomThyqPqbWPXf5QMRqKmsMzgpLASGd6im7HINjhvPf7kzFM13wfN/N7ET6AFBVp07qQ+03KkzqEelwAPJ0LE518WVrqPxAiL+mIvqEhGe8U/+Mvr6ZIqXzK/3h7Z/8d5z4AaR7uCY4Wol/6UnTP52HftbYjLtYoHTIotnhWiu+LZl2JyiJcDLQNAkOxeDLaPgVcFxAivQDteHvTSn+46jdEzeCa3ftpwFPSluqO2K7weGrTsL7YiJB4uru78d0BJWYj4u2+VYFwaiuvk9jRuoB7X0FS/z2hLnnMeoa1gS8xF8rB4SmAVNUNOyjCRY/VzbNt6xIk7bE0ev2GSOvPqJjTmL1V0BbJPajvJMu1TzOHZoheub03IEN9l0Un8XkyFySnyV39Otbh1UgfLFhFduythPA9wHLwl7L1CgekcThqxAsDM8k13rR8C3vFYGETHxjcsgdEWUWDTUkRFuq1wYDESyM7A13BJt0KHWCgEgxlQf0MshZzm5PBIKINI2E6kTrKV1Yz6GhnGXaU1QqdXYcAo67WwG6Cw0IYCWFSFGr0GMp5MdrZWECIOPn0Hyvetv5e/TCYmqW/9QZHcPW+jvpJtgBpGS3Q+M01JAsugwodr7ACOEKERgZYLZHyZBrWTusQDsMa7MBhagXdB34kgqQH9ICKtzFAMWiMfHPdAEi9Ecg9sd5Ip4eiV1I3JJWsfhfaZq5qaFufEzRXZQJosB5VLxraCJRvJ1HaWKYOveSJ+cV3n9a7CtCTbX/eL3u4ujRpWUvA7xVUFwOS8JnCWd4aVjUSneG3A+VdMfJrjQGCQECW1pRjJ2Edf+yBntDDpbY9AB1BYqm/gfj8IXJAIR0dk7qDZZ2P0okIEieEmY8fzlM/QeIIpkhXV4SpUOHAkBKhf3upTxVpIVkgyDRT4sYCHzJRW0OWCFupDCE74PTQnmEgKabwjLFPB/1NnscqypIhZTGSI5PWyYT3qWMYZiYmWZbMBOL2aKGUfT2Ibo4e0g693Rtra6Q/hxdkkT0ZMwfZVFu8w/vs8HKx4Noe3MGIvy0PXwWyGp2GWaQHjHEMUI9Uu60i5yjUIeFCidA0PaftONmQe9DvZqvcpcrlSwyli3PkmFl1nizjtlZnX8/mOyC3pFHCz2JYiyDLoGZUlsKalW1sHX5lVuPUVL0ZhGlG1cxeGjTV8XDmw8OHMURKKRm1ez0gGZ90Z/fwyiAZV+PXUdOax4jaQp4RRvk5NBuzPspsdCh4OtVQ37MQ0UdYWckHP/xnx28lJ6DglCOzIma4ILSIdfJjVIT+MkoTFcexWI2Hqp7Xfi3/DkyALoOOrotDpx7Fh1+LhiT25E4GlhQ9CaoG5oR+8X9ioXecA9SVMtJ6ABl56CNIAkd4k7Ed9sMQ7GLcWTLQuOGE8gEk4LFEHFBBgmPCXCb32HDAMBY+cNwkO9La5Dz8INX9JP6ek0EpH8LkK9gkVhSySQwFFOPmMabZ1yENZYCRKztJ13grYgUs4pBCFpmFIFZiz7BnZgZ8Jxn2SjUuGlKh0sYclyFwPY3JTpvkGp71ykoBki9UmsPczfoLHZjIShQt/crA1EEzhS5U8xHF4Ymr0zMF944oH8OFZQgfG2j78OYIYYwuOaPC6DLmGVs1gFvrVqcvWr7wSUZS7cmojX9OgEImKds+YenTi+6682Mrhpii9+QY//tFD86fgQn6RCA79YJsNyCu37j7ktej4nPDL0+mvL8S3hQHXDverSYy6fig9HwTreS7QBlyGtJTCp6aCxBoX8N5cDJLoY/j+PdgrK1hC3FrWOLqJJ0z70et/SxGN+b8hVzWM9BKS43StKEu7oGNQGm1UnbGfjGGju2FN75PqESboAetOdAPuoLqUWTKXxnN9jLqagGSETbSVIzS5MZlnT89FZzAAKZXb7RAykX2fOy9V7Ji0TwMTa83x4F4whiKPc5pTBgns7mJzrVNw6kHfjWhhEpge9A+i0OgYTjA9mOavlIPukjejz9JwHqCdlzUY3RFA/DTqtpUZ3sddVu5H+uXK0r6jcMxiX5Cm0WNDI7XGB7jVYeWc6n2/qBXPALlVT+Gpn+U6SgVQJh8gTgjJu3rBEtxQ0EJhqqPxhb9DRjgDLo5TNoj8P2ZyVECN8bt7ucCZvF2BMghwIaO5CWBcvlArE38rTDMOm9Kdp8GL53ssE8mUXuyW2wonP7AxyJ5lyMwP0lNECRaMxSno2r/Nta5bvPgtavzBsrbpsbaNm7JT8Nvz7cgjGEwR4BAY2oRTnmfGtwpj7M1wuZVrCR/wLLsXyS7Gtflw8s85zNf7zRzYLp9G5PwB3cGEolNrFZNNYV1KaVdPZwS4yJ+NDvtj3wvCRHdLkezzG9geZuIoo7dh+kFFbs30D2zmdyeVa/qB+TpTbVvns5/eOE0BMiZ0O0smB4+xSAs5Zpod/yd0ZTotby30pY/Z/PqEXACsL8UUMbtHFT0T2yAqhCOo042hT5GIFQ1m+XVK2GaG8GNZiQtRHSYwDi722uh3ndubaV+T1LF7swnPEQVO4bDVWfhi5WdCmS+TJpUWxIs7/48sK5BiPidWCX0afy/z2kwjpEyC2n4N92efRbYyPcm7dtIARntTYoPIQB+Bt4OK1hoeEHYF+78nVSe2/0V1d8RtbXaq9YJEZHcQttvyyghjm5Sg4ZzdaCi6jwh8ELOC8XFs6YEw/LblIUjnP1PpiluC4Yqvyxw5upNpp3NZA/uiVbhcsFS+oEIu17XNqgbGbD84Ots/C9O2ls1OPJwGkLkM9T7iL2lHcF3ineGqX1KF301EkrUZ44wjXiNsyqfo/hTYISeUMbjiU3LH/0IEftNK6nHlW7jcvFBOy0+S10MHL40Wlbz9Myyc0dixOppBgePdDa0Mj1hB7BRQqcdxxeN5BDwz4axj/HL1HkyvB31eS6Eidzc0KVXL0tJW0m6ab0ocazXt0Es9+JghcEUQKb6NW4/J/H4US4tPOqAe10g/NrnOalxI+fv78ZPeFokmZqJADoCuDNJowO/BSRXRmUKQXJQh7SljBs9eOaCj6MyNcXTUYpyhO1afG+fEqn0Nmz0YWUaJysZO4LlgFPBGRs5xFH+7dZ05saZFaq2jZ1WReXjrBR+nA44BVhayBzFoHFtINx5IYtgOxCs+lCtKbaSU/n2Qa6sT5M8Hvg3i1Y7f8Cjv9QrpNG2Fj3gFSdC5jK/qGoDzzGWmlti7ev+jfgU1wgCehe7tUeQQSe1WdN4AEf18+j/Y8FHPcL2+5ym91QhOIHy2kOVlbyCcs7Seh746CWzQhmGESdjScv2etmMywAsjWnDyDLqJAMEiYbk7ezck55Q/hvaciIjbGYEyYyOtYaVvuCyhz/6+m8+vVIvE+/z0PzEUbOFZV9OPXCT1tQoOMVevBCwxRtjKVwf0IvB9BuQ2zeBc3YWlmb8mcDPMjdPg/QnVdFemL/G5MtRi+u29CSMtTRuKw5XfQ31X+PPYTSoQq8SHU4bIqi6eqQqJi7AvSfYtOx5K219V3T33bXbk2AE9zET4N7KSnWsW2OUV11j2Iy4bFslvcbbCWDrQwiBxcL06GVovMPUDFgQYZ0L7GC2l+XeQFCyLL3B1+G9EdbBLiARFM7eI2DKKoRIjMak+aZx1YdWWXa63ptSf81pb1mglHszq14sRztoIKs8lXpRFYSHoTZWisqrm3H2GH4AolDllLeU6e8iPZb1y9vnnbVEm2Xi63Wa6J71O9FErgY9t6FJnQi9/BStdgVJ7ouVyA2i22v7hD2BqQ87qFNagBxFaS9xgLTF4HRqv3JG/BrxmbGgLVbRAP3zLp/B2W0rvxLxogbElp1EvCPKQsUKhGr1iGH3z9Cnc3o+3nnp5sTS5eFV6ZR4ksafoVHpBAUDKHFGyhN7mfc7M5H77q8+2V6m7HMo8zRNF1ob4bYagf3HWz+59x/g2lvN8AZ9yVda8y3TUE8yZdECZebQeTTN6OMX5bPc7zQ8nj8XOvw50t74WlF5zVK461rmYZ8ikx4d4TnHx6QY5soLMsrrfewM/2myu/mtvA88Uivy5tYAncN1Bt/rQVqKcHZqklfXtX9w6g9YGD8HtH+a7LseOHpA6K2lcFJeSpVo8/41UBG/lL0cNxCvtS9dpJ6iVWafc9n1B3Kvw5n+C5Guxr7aLGeLJCbPX+GLJ69idfvL5EUIOIJJgwnkF5ptEz//Kq8z0+Y9XZGMFqgT9oR4R/JvgXDRf5H2XzJxDrJ1W/hFAOXtSTfMuyY43XdMfdUF3FMIip4qOYD7w6HDoI/c8Y54q4ae94e6ObpCXYWAO41vc+nRxYEo/hpGSsPQU5/p3CdRxz/Bbwghx2GPtLzlBw8uOLbuC5bPHaUl/2OB59bmiAjVPIIqyN4otRBg3zc9bCpwQKjVvrKi/2Dj3UYIgjbyVe/t1Y4Hjim8ALxsFLB6aDJXv4KChPRsu+zeMcFTchts81FQE+oBi/3kULS2pRc/NH/DPWe9/lxP/Hjf+RW+IsPynAArXUFnOqM3AqXDNOSTIaNr9TiVpxJd6xrF5Pnb+DmKlwv/HAXd7+yFkvrnKFbSf49btnojWVq6RWwfXJgl29a94QtV/qtHeH9pS0ur8sdCMHqJ00N7klA2Kqfid4Ts3+C8tCnZuuGd/m3CWWCPR8lnoKfNuvPYbb6eGRiEurV/UuedJcN1qDaP8xLAUO4TViK3wuZJp6Jp07OcxqAsiQTwNhUE4kRC2zKyEXw/TnqqLd/ySMuZuvXmaUjGWsWqkglzv2CljVrgXYqg/yD2K91GL7ksmKobpmmGhm4xDbsh0jXIzzRw3EFC1K7whdIb8PB9CNz8A4xyNOWX0nbOcFIJYO2EhR+k/KfiRnKNiAymuW2OG6nan1ie1HL45Vz6i6mlKkWQ6X0kbzYvarbEit5WDPVE+dv5voq8znQKROw1gDi6ID9wul7HomeLSrdv5zjTD4POz4GbebRvTmZ8USwYygam1D/ktKkntNOkv6K7mjTPgftGIxnMTd3QJlrx4vk77Jk2k85PpOQXVOjZinak3wyUGV9E9HyCdpyOsJhMO/Q0DbHhde48vk3c3/jeHEuUMKUfOpD2TerPz7UYOZrNSZRCWbWRk+XMq+nKK3J+JSSkQ+IAekR55L/fe8Yr/UbRQpBGFnfO/eeYgUDzMVT4V+wone+QspaZUj6RFukr71vyRgFr/cjKKJx6Lz+QBTPFWn3vjszBSLCVvGamodIVKBTIFfoPtzj9+ye2YbfECgiQXN304b1R30R2eBYxcDFXUG3Yd9r4DmoGBucsWpkOwcOMWj6Z6GzYTKrs3H6RxxfaOlPnYr5ux2WiTbRvbtfvBYIU4Vkhn/I4DMTqWDwWiLaKrXk7W/tkqi3yhRKHmLKoTNhpPOacEY6GMhH22JFki72p/xSkT/b8F9rs7wpONbSNRVkZfKX1D5TJhJG2d3DIkhZo/Zg1H0Du2fm9lrRthb3K9KQgWMO29Qlp1KUw/nI5sw/h8KxwTOPAyzg+3ADbD9ygmc1M23ydpTNMfv/aaRvRbElJW7boSvjUDrFnfZdOqU/GS/qMCo80OyO7/S05V3h+f8kfj08ml4p3TIWJV2T7Ngt/8JsBbYTj3uRkr6YlpBZ2ro74dA7HbmhgTKyZkPSpiR4j2R559+g9e9kTpHcVz+A3cIoTSc9uTmXL2AYHL1uIRfWLPDMWtB+DZL+ZdAvRRnIBaRlBgi3jjIkfjedPadajSjb9cUEdEu4XkEsdHIMnNcVKnM8M+d05L79yf339sAgpV1f3wcWAi4F9iwFzKPCbV2y2j71oegsTQ05Yl4uR43oO3BMYJfV8WE456uLpTa/+bgcj9diC1kQ6NxWdiNDQQmQB0DL1k0xpTON38Wjytl9esTun6o2tNDe3iwEXA+OFgSEFiS5k9X070rXnT9zJ5jitFxzPlT8d0sJkDopK7YKLpr177EnTtqx+dEee3sLXYYZvPP+RQMLajfFOXY8QqSGbUzcKw9ou/pKIGf++7NzXMBS5wcWAi4GDDQPOasJeKsXpFG/uZmvL3TD03c40Iz8DKzkcRHMixr1bYtPta5YuXzALI1W+sMlPXfD5kscWHr2nJXa/StvXkncOiTL14rRzDnlbhW3ke8vOXf1OwcxupIsBFwMHHAPDZvhFT2Mv6W6dD49fg63kMwPMVdq6z6oKALdinX5Qpq0/+jwta29dsl37TWDq6BvO+sOCcKlpH8XRc19GCzmGr5MRIr5cKoSIYajVWPCvjMUqX1x27pCHwuSyuQ8uBlwM7H8MDFuQ6KrVI0yautoXopVcDdN/minIgPxE6GORcGHXO0LlHt5f5wSU9Xh0coycrbfIT8Gcr3fw1pBf+wlUkL5XgDg4ILUh1qDYfG1badnLKw6SE9D2f/e4JboYeG9gYIAg2Fu1tWYyPdpyOCuM/581+vMRKEM5+SBqpF6XTrKWr4+cQ8FwbB9acAyWL2Wa8lkOm7oyHq1e62oie+sR97uLgQOPgRELEl3lepZo1z2ycAqeVZfz+s9oFHrT29gD+yEM07hbeWL1lS+s3eUu844dpS4EFwP7AwOjEiROxdAult45y2dNCS/mCJermaZ8BL8SHKFGUW1qwc8nNCqvvDqYMpbfumR1QbvKKCC7WVwMuBjYDxgYvSDJVk5rJ42PzQuZtvccjj78GlOYWn2QHlOeAibW3hbp1R/J1gFWe3Yhfn6O6+EvI6m5Xe5UphdH7pOLgfcKBsYsSHINRUNZcmtdIDzNWoQx5HzsJ4sxrE53FnJ7tBQtPHBHsRJ2B0LkGbai31NqdD8y4cXmlDuNyWHSfXAx8J7DwPgJkgJNv+DJIyebcc8czmSYzN4SAwNtCxsem+4697VtBZK7US4GXAy4GHAx4GLAxYCLARcDLgZcDLgYGCUG/g9669HJabdumQAAAABJRU5ErkJggg==;" parent="1" vertex="1">
                    <mxGeometry x="23.84" y="611" width="147.15" height="29" as="geometry"/>
                </mxCell>
                <mxCell id="DbYkKETLYe-rnW8ThWG0-38" value="&lt;span style=&quot;color: rgb(52, 73, 94); background-color: initial;&quot;&gt;Carbon&amp;nbsp;&lt;/span&gt;&lt;span style=&quot;color: rgb(52, 73, 94); background-color: initial;&quot;&gt;Estimation of a purchase based on Merchant Category Code (MCC) or Purchase Category.&lt;/span&gt;&lt;span style=&quot;color: rgb(52, 73, 94); background-color: initial;&quot;&gt;&lt;br&gt;&lt;/span&gt;" style="rounded=0;whiteSpace=wrap;html=1;shadow=0;strokeColor=#808080;strokeWidth=2;fontFamily=Helvetica;fontSize=13;fontColor=#000000;fillColor=none;" parent="1" vertex="1">
                    <mxGeometry x="31" y="653" width="189" height="67" as="geometry"/>
                </mxCell>
                <mxCell id="DbYkKETLYe-rnW8ThWG0-39" value="&lt;span style=&quot;color: rgb(52, 73, 94); background-color: initial;&quot;&gt;Challenges, Equivalencies, Suggestions&lt;br&gt;&lt;/span&gt;" style="rounded=0;whiteSpace=wrap;html=1;shadow=0;strokeColor=#808080;strokeWidth=2;fontFamily=Helvetica;fontSize=13;fontColor=#000000;fillColor=none;" parent="1" vertex="1">
                    <mxGeometry x="32" y="733" width="189" height="67" as="geometry"/>
                </mxCell>
                <mxCell id="DbYkKETLYe-rnW8ThWG0-41" value="REST" style="rounded=1;whiteSpace=wrap;html=1;strokeWidth=1;fontSize=14;arcSize=50;fillColor=#616161;fontColor=#FFFFFF;strokeColor=#000000;fontStyle=1" parent="1" vertex="1">
                    <mxGeometry x="276" y="697" width="70" height="26" as="geometry"/>
                </mxCell>
                <mxCell id="DbYkKETLYe-rnW8ThWG0-44" style="edgeStyle=orthogonalEdgeStyle;rounded=0;sketch=0;jumpStyle=none;orthogonalLoop=1;jettySize=auto;html=1;exitX=0;exitY=0.5;exitDx=0;exitDy=0;entryX=1;entryY=0.5;entryDx=0;entryDy=0;shadow=0;strokeColor=default;fontFamily=Helvetica;fontSize=13;fontColor=#000000;startSize=6;endSize=6;sourcePerimeterSpacing=0;targetPerimeterSpacing=0;" parent="1" source="DbYkKETLYe-rnW8ThWG0-18" target="DbYkKETLYe-rnW8ThWG0-4" edge="1">
                    <mxGeometry relative="1" as="geometry"/>
                </mxCell>
            </root>
        </mxGraphModel>
    </diagram>
</mxfile>